<svg width="452" height="262" viewBox="0 0 452 262" fill="none" xmlns="http://www.w3.org/2000/svg">
<path d="M1 7L8.8906 12.2604C9.5624 12.7083 10.4376 12.7083 11.1094 12.2604L19 7H1ZM3 18H17C18.1046 18 19 17.1046 19 16V6C19 4.89543 18.1046 4 17 4H3C1.89543 4 1 4.89543 1 6V16C1 17.1046 1.89543 18 3 18Z" stroke="#484A4A" stroke-width="2" stroke-linecap="round" stroke-linejoin="round"/>
<path d="M15.6569 63.6569C14.7202 64.5935 12.7616 66.5521 11.4138 67.8999C10.6327 68.681 9.3677 68.6814 8.5866 67.9003C7.26234 66.576 5.34159 64.6553 4.34315 63.6569C1.21895 60.5327 1.21895 55.4673 4.34315 52.3431C7.46734 49.219 12.5327 49.219 15.6569 52.3431C18.781 55.4673 18.781 60.5327 15.6569 63.6569Z" stroke="#484A4A" stroke-width="2" stroke-linecap="round" stroke-linejoin="round"/>
<path d="M13 58C13 59.6569 11.6569 61 10 61C8.3431 61 7 59.6569 7 58C7 56.3431 8.3431 55 10 55C11.6569 55 13 56.3431 13 58Z" stroke="#484A4A" stroke-width="2" stroke-linecap="round" stroke-linejoin="round"/>
<path d="M5 112H5.01M5 116C2.79086 116 1 114.209 1 112V100C1 98.8954 1.89543 98 3 98H7C8.1046 98 9 98.8954 9 100V112C9 114.209 7.20914 116 5 116ZM5 116H17C18.1046 116 19 115.105 19 114V110C19 108.895 18.1046 108 17 108H14.6569L5 116ZM9 102.343L10.6569 100.686C11.4379 99.905 12.7042 99.905 13.4853 100.686L16.3137 103.515C17.0948 104.296 17.0948 105.562 16.3137 106.343L7.82843 114.828L9 102.343Z" stroke="#484A4A" stroke-width="2" stroke-linecap="round" stroke-linejoin="round"/>
<path d="M61 16H55M61 16H66L64.5951 14.5951C64.2141 14.2141 64 13.6973 64 13.1585V10C64 7.38757 62.3304 5.16509 60 4.34142V4C60 2.89543 59.1046 2 58 2C56.8954 2 56 2.89543 56 4V4.34142C53.6696 5.16509 52 7.38757 52 10V13.1585C52 13.6973 51.7859 14.2141 51.4049 14.5951L50 16H55H61ZM61 16V17C61 18.6569 59.6569 20 58 20C56.3431 20 55 18.6569 55 17V16H61Z" stroke="#484A4A" stroke-width="2" stroke-linecap="round" stroke-linejoin="round"/>
<path d="M62 54C62 56.2091 60.2091 58 58 58C55.7909 58 54 56.2091 54 54C54 51.7909 55.7909 50 58 50C60.2091 50 62 51.7909 62 54Z" stroke="#484A4A" stroke-width="2" stroke-linecap="round" stroke-linejoin="round"/>
<path d="M58 61C54.134 61 51 64.134 51 68H65C65 64.134 61.866 61 58 61Z" stroke="#484A4A" stroke-width="2" stroke-linecap="round" stroke-linejoin="round"/>
<path d="M66 108H63.4142C63.149 108 62.8946 108.105 62.7071 108.293L60.2929 110.707C60.1054 110.895 59.851 111 59.5858 111H56.4142C56.149 111 55.8946 110.895 55.7071 110.707L53.2929 108.293C53.1054 108.105 52.851 108 52.5858 108H50M66 108V101C66 99.895 65.1046 99 64 99H52C50.8954 99 50 99.895 50 101V108H66ZM66 108V113C66 114.105 65.1046 115 64 115H52C50.8954 115 50 114.105 50 113V108H66Z" stroke="#484A4A" stroke-width="2" stroke-linecap="round" stroke-linejoin="round"/>
<path d="M103 20H109M97 11L99 9L97 11ZM99 9L106 2L113 9H99ZM99 9V19C99 19.5523 99.448 20 100 20H103L99 9ZM113 9L115 11L113 9ZM113 9V19C113 19.5523 112.552 20 112 20H109L113 9ZM103 20C103.552 20 104 19.5523 104 19V15C104 14.4477 104.448 14 105 14H107C107.552 14 108 14.4477 108 15V19C108 19.5523 108.448 20 109 20H103Z" stroke="#484A4A" stroke-width="2" stroke-linecap="round" stroke-linejoin="round"/>
<path d="M106 51.3542C106.733 50.5238 107.805 50 109 50C111.209 50 113 51.7909 113 54C113 56.2091 111.209 58 109 58C107.805 58 106.733 57.4762 106 56.6458V51.3542ZM109 68H97V67C97 63.6863 99.686 61 103 61C106.314 61 109 63.6863 109 67V68ZM109 68H115V67C115 63.6863 112.314 61 109 61C107.907 61 106.883 61.2922 106 61.8027L109 68ZM107 54C107 56.2091 105.209 58 103 58C100.791 58 99 56.2091 99 54C99 51.7909 100.791 50 103 50C105.209 50 107 51.7909 107 54Z" stroke="#484A4A" stroke-width="2" stroke-linecap="round" stroke-linejoin="round"/>
<path d="M98 108H100.586C100.851 108 101.105 108.105 101.293 108.293L103.707 110.707C103.895 110.895 104.149 111 104.414 111H107.586C107.851 111 108.105 110.895 108.293 110.707L110.707 108.293C110.895 108.105 111.149 108 111.414 108H114M102 99H100C98.895 99 98 99.895 98 101V113C98 114.105 98.895 115 100 115H112C113.105 115 114 114.105 114 113V101C114 99.895 113.105 99 112 99H110H102ZM106 98V106V98ZM106 106L109 103L106 106ZM106 106L103 103L106 106Z" stroke="#484A4A" stroke-width="2" stroke-linecap="round" stroke-linejoin="round"/>
<path d="M163 12.2554C160.221 13.3805 157.183 14 154 14C150.817 14 147.779 13.3805 145 12.2554H163ZM158 5V3C158 1.89543 157.105 1 156 1H152C150.895 1 150 1.89543 150 3V5H158ZM154 11H154.01H154ZM147 19H161C162.105 19 163 18.1046 163 17V7C163 5.89543 162.105 5 161 5H147C145.895 5 145 5.89543 145 7V17C145 18.1046 145.895 19 147 19Z" stroke="#484A4A" stroke-width="2" stroke-linecap="round" stroke-linejoin="round"/>
<path d="M159 67H164V65C164 63.3431 162.657 62 161 62C160.044 62 159.193 62.4468 158.644 63.1429L159 67ZM159 67H149H159ZM159 67V65C159 64.3438 158.874 63.717 158.644 63.1429L159 67ZM149 67H144V65C144 63.3431 145.343 62 147 62C147.956 62 148.807 62.4468 149.356 63.1429L149 67ZM149 67V65C149 64.3438 149.126 63.717 149.356 63.1429L149 67ZM149.356 63.1429C150.094 61.301 151.895 60 154 60C156.105 60 157.906 61.301 158.644 63.1429H149.356ZM157 54C157 55.6569 155.657 57 154 57C152.343 57 151 55.6569 151 54C151 52.3431 152.343 51 154 51C155.657 51 157 52.3431 157 54ZM163 57C163 58.1046 162.105 59 161 59C159.895 59 159 58.1046 159 57C159 55.8954 159.895 55 161 55C162.105 55 163 55.8954 163 57ZM149 57C149 58.1046 148.105 59 147 59C145.895 59 145 58.1046 145 57C145 55.8954 145.895 55 147 55C148.105 55 149 55.8954 149 57Z" stroke="#484A4A" stroke-width="2" stroke-linecap="round" stroke-linejoin="round"/>
<path d="M152 107H156M147 103H161H147ZM147 103C145.895 103 145 102.105 145 101C145 99.895 145.895 99 147 99H161C162.105 99 163 99.895 163 101C163 102.105 162.105 103 161 103H147ZM147 103V113C147 114.105 147.895 115 149 115H159C160.105 115 161 114.105 161 113V103H147Z" stroke="#484A4A" stroke-width="2" stroke-linecap="round" stroke-linejoin="round"/>
<path d="M199 11L201 13L205 9L199 11ZM210.618 4.98434C210.413 4.99472 210.207 4.99997 210 4.99997C206.927 4.99997 204.123 3.84453 202 1.94434C199.877 3.84446 197.073 4.99985 194 4.99985C193.793 4.99985 193.587 4.9946 193.382 4.98422C193.133 5.94783 193 6.95842 193 8.00001C193 13.5915 196.824 18.2898 202 19.622C207.176 18.2898 211 13.5915 211 8.00001C211 6.95847 210.867 5.94791 210.618 4.98434Z" stroke="#484A4A" stroke-width="2" stroke-linecap="round" stroke-linejoin="round"/>
<path d="M200 68H204M209 68V52C209 50.8954 208.105 50 207 50H197C195.895 50 195 50.8954 195 52V68H209ZM209 68H211H209ZM209 68H204H209ZM195 68H193H195ZM195 68H200H195ZM199 54H200H199ZM199 58H200H199ZM204 54H205H204ZM204 58H205H204ZM200 68V63C200 62.4477 200.448 62 201 62H203C203.552 62 204 62.4477 204 63V68H200Z" stroke="#484A4A" stroke-width="2" stroke-linecap="round" stroke-linejoin="round"/>
<path d="M202 103V107L205 110L202 103ZM211 107C211 111.971 206.971 116 202 116C197.029 116 193 111.971 193 107C193 102.029 197.029 98 202 98C206.971 98 211 102.029 211 107Z" stroke="#484A4A" stroke-width="2" stroke-linecap="round" stroke-linejoin="round"/>
<path d="M258.618 4.98434C258.413 4.99472 258.207 4.99997 258 4.99997C254.927 4.99997 252.123 3.84453 250 1.94434C247.877 3.84446 245.073 4.99985 242 4.99985C241.793 4.99985 241.587 4.9946 241.382 4.98422C241.133 5.94783 241 6.95842 241 8.00001C241 13.5915 244.824 18.2898 250 19.622C255.176 18.2898 259 13.5915 259 8.00001C259 6.95847 258.867 5.94791 258.618 4.98434Z" stroke="#484A4A" stroke-width="2" stroke-linecap="round" stroke-linejoin="round"/>
<path d="M250 14H250.01M250 8V10V8Z" stroke="#484A4A" stroke-width="2" stroke-linecap="round" stroke-linejoin="round"/>
<path d="M250 68H253M241 53L244 54L241 53ZM244 54L241 63C242.773 64.3334 245.229 64.3334 247.001 63L244 54ZM244 54L247 63L244 54ZM244 54L250 52L244 54ZM256 54L259 53L256 54ZM256 54L253 63C254.773 64.3334 257.229 64.3334 259.001 63L256 54ZM256 54L259 63L256 54ZM256 54L250 52L256 54ZM250 50V52V50ZM250 68V52V68ZM250 68H247H250Z" stroke="#484A4A" stroke-width="2" stroke-linecap="round" stroke-linejoin="round"/>
<path d="M242 111L246.586 106.414C247.367 105.633 248.633 105.633 249.414 106.414L254 111H242ZM252 109L253.586 107.414C254.367 106.633 255.633 106.633 256.414 107.414L258 109H252ZM252 103H252.01H252ZM244 115H256C257.105 115 258 114.105 258 113V101C258 99.895 257.105 99 256 99H244C242.895 99 242 99.895 242 101V113C242 114.105 242.895 115 244 115Z" stroke="#484A4A" stroke-width="2" stroke-linecap="round" stroke-linejoin="round"/>
<path d="M296.325 3.31731C296.751 1.5609 299.249 1.5609 299.675 3.31731C299.951 4.45193 301.251 4.99038 302.248 4.38285C303.791 3.44239 305.558 5.2087 304.617 6.75218C304.01 7.74925 304.548 9.0492 305.683 9.3246C307.439 9.751 307.439 12.249 305.683 12.6754C304.548 12.9508 304.01 14.2507 304.617 15.2478C305.558 16.7913 303.791 18.5576 302.248 17.6172C301.251 17.0096 299.951 17.5481 299.675 18.6827C299.249 20.4391 296.751 20.4391 296.325 18.6827C296.049 17.5481 294.749 17.0096 293.752 17.6172C292.209 18.5576 290.442 16.7913 291.383 15.2478C291.99 14.2507 291.452 12.9508 290.317 12.6754C288.561 12.249 288.561 9.751 290.317 9.3246C291.452 9.0492 291.99 7.74926 291.383 6.75218C290.442 5.2087 292.209 3.44239 293.752 4.38285C294.749 4.99037 296.049 4.45193 296.325 3.31731Z" stroke="#484A4A" stroke-width="2" stroke-linecap="round" stroke-linejoin="round"/>
<path d="M301 11C301 12.6569 299.657 14 298 14C296.343 14 295 12.6569 295 11C295 9.3431 296.343 8 298 8C299.657 8 301 9.3431 301 11Z" stroke="#484A4A" stroke-width="2" stroke-linecap="round" stroke-linejoin="round"/>
<path d="M297 52H292C290.895 52 290 52.8954 290 54V65C290 66.1046 290.895 67 292 67H303C304.105 67 305 66.1046 305 65V60L297 52ZM303.586 50.5858C304.367 49.8047 305.633 49.8047 306.414 50.5858C307.195 51.3668 307.195 52.6332 306.414 53.4142L297.828 62H295V59.1716L303.586 50.5858Z" stroke="#484A4A" stroke-width="2" stroke-linecap="round" stroke-linejoin="round"/>
<path d="M293 102H293.01H293ZM293 98H298C298.512 98 299.024 98.1952 299.414 98.5858L306.414 105.586C307.195 106.367 307.195 107.633 306.414 108.414L299.414 115.414C298.633 116.195 297.367 116.195 296.586 115.414L289.586 108.414C289.195 108.024 289 107.512 289 107V102C289 99.791 290.791 98 293 98Z" stroke="#484A4A" stroke-width="2" stroke-linecap="round" stroke-linejoin="round"/>
<path d="M339 12L343 16L353 6" stroke="#484A4A" stroke-width="2" stroke-linecap="round" stroke-linejoin="round"/>
<path d="M341 67.0355V66.8285L351.354 56.4749L351.707 56.8285L352.061 57.1819L341.207 68.0355L341 67.8284V67.0355ZM353.829 54.7071L353.475 54.3537L353.561 54.2678L354.268 54.9749L354.182 55.0607L353.829 54.7071ZM354.946 54.2385L354.223 53.516C354.592 52.8912 354.592 52.1088 354.223 51.484L354.622 51.0857L354.946 50.7615C355.685 51.7989 355.685 53.2011 354.946 54.2385ZM350.761 50.0545C351.799 49.3152 353.201 49.3152 354.239 50.0545L353.914 50.3787L353.516 50.7768C352.891 50.4078 352.109 50.4078 351.484 50.7768L350.761 50.0545ZM338.5 67.5355H339.293L340 68.5355H338.5V68.0355V67.5355ZM350.025 50.7322L350.732 51.4393L350.646 51.5251L350.293 51.1715L349.939 50.8181L350.025 50.7322ZM348.171 53.2929L348.525 53.6463L338.207 63.9644H338H337.207L337 63.7573L347.818 52.9393L348.171 53.2929ZM336.793 64.9644L337.353 65.525L337.5 65.6716V66.5355H337H336.5V64.9644H336.793ZM349.939 53.6463L350.646 52.9393L352.061 54.3537L351.354 55.0607L349.939 53.6463Z" fill="#FF6C62" stroke="#484A4A"/>
<mask id="path-28-inside-1" fill="white">
<path d="M343.228 98.6838L342.279 99L343.228 98.6838ZM344.726 103.177L343.777 103.493L344.726 103.177ZM344.224 104.388L344.671 105.282L344.224 104.388ZM341.967 105.516L341.52 104.622C341.04 104.862 340.835 105.438 341.055 105.928L341.967 105.516ZM347.484 111.033L347.072 111.945C347.562 112.165 348.138 111.96 348.378 111.48L347.484 111.033ZM348.612 108.776L347.718 108.329L348.612 108.776ZM349.823 108.274L349.507 109.223L349.823 108.274ZM354.316 109.772L354.632 108.823L354.316 109.772ZM339 97C337.343 97 336 98.3431 336 100H338C338 99.448 338.448 99 339 99V97ZM342.279 97H339V99H342.279V97ZM344.177 98.3675C343.904 97.5509 343.14 97 342.279 97V99L344.177 98.3675ZM345.674 102.861L344.177 98.3675L342.279 99L343.777 103.493L345.674 102.861ZM344.671 105.282C345.562 104.837 345.989 103.805 345.674 102.861L343.777 103.493L344.671 105.282ZM342.414 106.411L344.671 105.282L343.777 103.493L341.52 104.622L342.414 106.411ZM347.895 110.121C345.672 109.119 343.881 107.328 342.879 105.105L341.055 105.928C342.258 108.595 344.405 110.742 347.072 111.945L347.895 110.121ZM347.718 108.329L346.589 110.586L348.378 111.48L349.507 109.223L347.718 108.329ZM350.139 107.326C349.195 107.011 348.163 107.438 347.718 108.329L349.507 109.223L350.139 107.326ZM354.632 108.823L350.139 107.326L349.507 109.223L354 110.721L354.632 108.823ZM356 110.721C356 109.86 355.449 109.096 354.632 108.823L354 110.721H356ZM356 114V110.721H354V114H356ZM353 117C354.657 117 356 115.657 356 114H354C354 114.552 353.552 115 353 115V117ZM352 117H353V115H352V117ZM336 101C336 109.837 343.163 117 352 117V115C344.268 115 338 108.732 338 101H336ZM336 100V101H338V100H336Z"/>
</mask>
<path d="M343.228 98.6838L342.279 99L343.228 98.6838ZM344.726 103.177L343.777 103.493L344.726 103.177ZM344.224 104.388L344.671 105.282L344.224 104.388ZM341.967 105.516L341.52 104.622C341.04 104.862 340.835 105.438 341.055 105.928L341.967 105.516ZM347.484 111.033L347.072 111.945C347.562 112.165 348.138 111.96 348.378 111.48L347.484 111.033ZM348.612 108.776L347.718 108.329L348.612 108.776ZM349.823 108.274L349.507 109.223L349.823 108.274ZM354.316 109.772L354.632 108.823L354.316 109.772ZM339 97C337.343 97 336 98.3431 336 100H338C338 99.448 338.448 99 339 99V97ZM342.279 97H339V99H342.279V97ZM344.177 98.3675C343.904 97.5509 343.14 97 342.279 97V99L344.177 98.3675ZM345.674 102.861L344.177 98.3675L342.279 99L343.777 103.493L345.674 102.861ZM344.671 105.282C345.562 104.837 345.989 103.805 345.674 102.861L343.777 103.493L344.671 105.282ZM342.414 106.411L344.671 105.282L343.777 103.493L341.52 104.622L342.414 106.411ZM347.895 110.121C345.672 109.119 343.881 107.328 342.879 105.105L341.055 105.928C342.258 108.595 344.405 110.742 347.072 111.945L347.895 110.121ZM347.718 108.329L346.589 110.586L348.378 111.48L349.507 109.223L347.718 108.329ZM350.139 107.326C349.195 107.011 348.163 107.438 347.718 108.329L349.507 109.223L350.139 107.326ZM354.632 108.823L350.139 107.326L349.507 109.223L354 110.721L354.632 108.823ZM356 110.721C356 109.86 355.449 109.096 354.632 108.823L354 110.721H356ZM356 114V110.721H354V114H356ZM353 117C354.657 117 356 115.657 356 114H354C354 114.552 353.552 115 353 115V117ZM352 117H353V115H352V117ZM336 101C336 109.837 343.163 117 352 117V115C344.268 115 338 108.732 338 101H336ZM336 100V101H338V100H336Z" fill="#FF6C62"/>
<path d="M341.967 105.516L342.379 106.427L343.327 105.999L342.861 105.069L341.967 105.516ZM341.52 104.622L342.414 104.175L341.967 103.28L341.073 103.728L341.52 104.622ZM341.055 105.928L340.143 106.338L340.553 107.252L341.467 106.839L341.055 105.928ZM347.484 111.033L347.931 110.139L347.001 109.673L346.573 110.621L347.484 111.033ZM347.072 111.945L346.161 111.533L345.748 112.447L346.662 112.857L347.072 111.945ZM348.378 111.48L349.272 111.927L349.72 111.033L348.825 110.586L348.378 111.48ZM339 97H340V96H339V97ZM336 100H335V101H336V100ZM338 100V101H339V100H338ZM339 99V100H340V99H339ZM342.279 97H343.279V96H342.279V97ZM339 97V96H338V97H339ZM339 99H338V100H339V99ZM342.279 99V100H343.279V99H342.279ZM344.177 98.3675L344.493 99.3162L345.443 98.9998L345.125 98.0504L344.177 98.3675ZM342.279 97V96H341.279V97H342.279ZM342.279 99H341.279V100.387L342.595 99.9487L342.279 99ZM345.674 102.861L345.99 103.81L346.939 103.494L346.623 102.545L345.674 102.861ZM344.177 98.3675L345.126 98.0514L344.81 97.1026L343.861 97.4188L344.177 98.3675ZM342.279 99L341.963 98.0513L341.014 98.3675L341.33 99.3163L342.279 99ZM343.777 103.493L342.828 103.809L343.145 104.758L344.093 104.442L343.777 103.493ZM344.671 105.282L343.776 105.729L344.223 106.623L345.118 106.177L344.671 105.282ZM345.674 102.861L346.623 102.544L346.306 101.596L345.358 101.912L345.674 102.861ZM343.777 103.493L343.461 102.544L342.367 102.909L342.882 103.94L343.777 103.493ZM342.414 106.411L341.519 106.858L341.967 107.753L342.861 107.305L342.414 106.411ZM344.671 105.282L345.118 106.176L346.012 105.729L345.566 104.835L344.671 105.282ZM343.777 103.493L344.672 103.046L344.224 102.151L343.33 102.599L343.777 103.493ZM341.52 104.622L341.073 103.728L340.179 104.175L340.625 105.069L341.52 104.622ZM347.895 110.121L348.806 110.532L349.218 109.62L348.306 109.209L347.895 110.121ZM342.879 105.105L343.791 104.694L343.38 103.782L342.468 104.193L342.879 105.105ZM341.055 105.928L340.644 105.016L339.732 105.428L340.143 106.339L341.055 105.928ZM347.072 111.945L346.661 112.857L347.572 113.268L347.984 112.356L347.072 111.945ZM347.718 108.329L348.165 107.434L347.271 106.988L346.824 107.882L347.718 108.329ZM346.589 110.586L345.695 110.139L345.247 111.033L346.142 111.481L346.589 110.586ZM348.378 111.48L347.931 112.375L348.825 112.821L349.272 111.927L348.378 111.48ZM349.507 109.223L350.401 109.67L350.849 108.776L349.954 108.328L349.507 109.223ZM350.139 107.326L351.088 107.642L351.404 106.694L350.456 106.377L350.139 107.326ZM347.718 108.329L346.823 107.882L346.377 108.777L347.271 109.224L347.718 108.329ZM349.507 109.223L349.06 110.118L350.091 110.633L350.456 109.539L349.507 109.223ZM354.632 108.823L355.581 109.139L355.897 108.19L354.948 107.874L354.632 108.823ZM350.139 107.326L350.455 106.377L349.506 106.061L349.19 107.01L350.139 107.326ZM349.507 109.223L348.558 108.907L348.242 109.855L349.191 110.172L349.507 109.223ZM354 110.721L353.684 111.67L354.633 111.986L354.949 111.037L354 110.721ZM356 110.721V111.721H357V110.721H356ZM354.632 108.823L354.949 107.875L353.999 107.557L353.683 108.507L354.632 108.823ZM354 110.721L353.051 110.405L352.613 111.721H354V110.721ZM356 114V115H357V114H356ZM356 110.721H357V109.721H356V110.721ZM354 110.721V109.721H353V110.721H354ZM354 114H353V115H354V114ZM353 117H352V118H353V117ZM356 114H357V113H356V114ZM354 114V113H353V114H354ZM353 115V114H352V115H353ZM352 117H351V118H352V117ZM353 117V118H354V117H353ZM353 115H354V114H353V115ZM352 115V114H351V115H352ZM336 101V100H335V101H336ZM352 117V118H353V117H352ZM352 115H353V114H352V115ZM338 101H339V100H338V101ZM336 100V99H335V100H336ZM336 101H335V102H336V101ZM338 101V102H339V101H338ZM338 100H339V99H338V100ZM342.912 97.7351L341.963 98.0513L342.595 99.9487L343.544 99.6325L342.912 97.7351ZM342.595 99.9487L343.544 99.6325L342.912 97.7351L341.963 98.0513L342.595 99.9487ZM344.41 102.228L343.461 102.544L344.093 104.442L345.042 104.126L344.41 102.228ZM344.093 104.442L345.042 104.126L344.41 102.228L343.461 102.544L344.093 104.442ZM343.33 104.835L343.777 105.729L345.565 104.835L345.118 103.941L343.33 104.835ZM345.565 104.835L345.118 103.941L343.33 104.835L343.777 105.729L345.565 104.835ZM342.861 105.069L342.414 104.175L340.626 105.069L341.073 105.963L342.861 105.069ZM341.073 103.728C340.112 104.208 339.704 105.359 340.143 106.338L341.967 105.518C341.966 105.517 341.967 105.517 341.967 105.518C341.967 105.518 341.967 105.518 341.967 105.517C341.967 105.516 341.968 105.516 341.967 105.516C341.967 105.516 341.967 105.517 341.966 105.517C341.966 105.517 341.966 105.517 341.967 105.516L341.073 103.728ZM341.467 106.839L342.379 106.427L341.555 104.605L340.643 105.017L341.467 106.839ZM346.573 110.621L346.161 111.533L347.983 112.357L348.395 111.445L346.573 110.621ZM346.662 112.857C347.641 113.296 348.792 112.888 349.272 111.927L347.484 111.033C347.483 111.034 347.483 111.034 347.483 111.034C347.483 111.033 347.484 111.033 347.484 111.033C347.484 111.032 347.484 111.033 347.483 111.033C347.482 111.033 347.482 111.033 347.482 111.033C347.483 111.033 347.483 111.034 347.482 111.033L346.662 112.857ZM348.825 110.586L347.931 110.139L347.037 111.927L347.931 112.374L348.825 110.586ZM349.059 107.882L348.165 107.435L347.271 109.223L348.165 109.67L349.059 107.882ZM347.271 109.223L348.165 109.67L349.059 107.882L348.165 107.435L347.271 109.223ZM348.874 107.958L348.558 108.907L350.456 109.539L350.772 108.59L348.874 107.958ZM350.456 109.539L350.772 108.59L348.874 107.958L348.558 108.907L350.456 109.539ZM355.265 110.088L355.581 109.139L353.683 108.507L353.367 109.456L355.265 110.088ZM353.683 108.507L353.367 109.456L355.265 110.088L355.581 109.139L353.683 108.507ZM339 96C336.791 96 335 97.7908 335 100H337C337 98.8954 337.895 98 339 98V96ZM336 101H338V99H336V101ZM339 100V98C337.896 98 337 98.8957 337 100H339ZM340 99V97H338V99H340ZM342.279 96H339V98H342.279V96ZM338 97V99H340V97H338ZM339 100H342.279V98H339V100ZM343.279 99V97H341.279V99H343.279ZM345.125 98.0504C344.716 96.8265 343.571 96 342.279 96V98C342.709 98 343.092 98.2753 343.229 98.6846L345.125 98.0504ZM341.279 97V99H343.279V97H341.279ZM342.595 99.9487L344.493 99.3162L343.861 97.4188L341.963 98.0513L342.595 99.9487ZM346.623 102.545L345.126 98.0514L343.228 98.6836L344.725 103.177L346.623 102.545ZM343.861 97.4188L341.963 98.0513L342.595 99.9487L344.493 99.3162L343.861 97.4188ZM341.33 99.3163L342.828 103.809L344.726 103.177L343.228 98.6837L341.33 99.3163ZM344.093 104.442L345.99 103.81L345.358 101.912L343.461 102.544L344.093 104.442ZM345.118 106.177C346.454 105.509 347.095 103.961 346.623 102.544L344.725 103.178C344.883 103.649 344.67 104.165 344.224 104.387L345.118 106.177ZM345.358 101.912L343.461 102.544L344.093 104.442L345.99 103.81L345.358 101.912ZM342.882 103.94L343.776 105.729L345.566 104.835L344.672 103.046L342.882 103.94ZM342.861 107.305L345.118 106.176L344.224 104.388L341.967 105.517L342.861 107.305ZM345.566 104.835L344.672 103.046L342.882 103.94L343.776 105.729L345.566 104.835ZM343.33 102.599L341.073 103.728L341.967 105.516L344.224 104.387L343.33 102.599ZM340.625 105.069L341.519 106.858L343.309 105.964L342.415 104.175L340.625 105.069ZM348.306 109.209C346.305 108.308 344.692 106.695 343.791 104.694L341.967 105.516C343.07 107.961 345.039 109.93 347.484 111.033L348.306 109.209ZM342.468 104.193L340.644 105.016L341.466 106.84L343.29 106.017L342.468 104.193ZM340.143 106.339C341.447 109.228 343.772 111.553 346.661 112.857L347.483 111.033C345.038 109.931 343.069 107.962 341.967 105.517L340.143 106.339ZM347.984 112.356L348.806 110.532L346.983 109.71L346.16 111.534L347.984 112.356ZM346.824 107.882L345.695 110.139L347.483 111.033L348.612 108.776L346.824 107.882ZM346.142 111.481L347.931 112.375L348.825 110.585L347.036 109.691L346.142 111.481ZM349.272 111.927L350.401 109.67L348.613 108.776L347.484 111.033L349.272 111.927ZM349.954 108.328L348.165 107.434L347.271 109.224L349.06 110.118L349.954 108.328ZM350.456 106.377C349.039 105.905 347.491 106.546 346.823 107.882L348.613 108.776C348.835 108.331 349.351 108.117 349.822 108.275L350.456 106.377ZM347.271 109.224L349.06 110.118L349.954 108.328L348.165 107.434L347.271 109.224ZM350.456 109.539L351.088 107.642L349.19 107.01L348.558 108.907L350.456 109.539ZM354.948 107.874L350.455 106.377L349.823 108.275L354.316 109.772L354.948 107.874ZM349.19 107.01L348.558 108.907L350.456 109.539L351.088 107.642L349.19 107.01ZM349.191 110.172L353.684 111.67L354.316 109.772L349.823 108.274L349.191 110.172ZM354.949 111.037L355.581 109.139L353.683 108.507L353.051 110.405L354.949 111.037ZM357 110.721C357 109.429 356.173 108.284 354.949 107.875L354.315 109.771C354.725 109.908 355 110.291 355 110.721H357ZM353.683 108.507L353.051 110.405L354.949 111.037L355.581 109.139L353.683 108.507ZM354 111.721H356V109.721H354V111.721ZM357 114V110.721H355V114H357ZM356 109.721H354V111.721H356V109.721ZM353 110.721V114H355V110.721H353ZM354 115H356V113H354V115ZM353 118C355.209 118 357 116.209 357 114H355C355 115.105 354.105 116 353 116V118ZM356 113H354V115H356V113ZM353 114V116C354.104 116 355 115.104 355 114H353ZM352 115V117H354V115H352ZM352 118H353V116H352V118ZM354 117V115H352V117H354ZM353 114H352V116H353V114ZM351 115V117H353V115H351ZM335 101C335 110.389 342.611 118 352 118V116C343.715 116 337 109.285 337 101H335ZM353 117V115H351V117H353ZM352 114C344.82 114 339 108.18 339 101H337C337 109.284 343.716 116 352 116V114ZM338 100H336V102H338V100ZM335 100V101H337V100H335ZM336 102H338V100H336V102ZM339 101V100H337V101H339ZM338 99H336V101H338V99Z" fill="#484A4A" mask="url(#path-28-inside-1)"/>
<path d="M394.751 4C393.783 9.7702 390.07 14.6095 385 17.129M385 4H397H385ZM391 2V4V2ZM392.048 13.5C390.521 11.9178 389.281 10.0565 388.412 8L392.048 13.5ZM394.5 17H401.5H394.5ZM393 20L398 10L403 20H393Z" stroke="#484A4A" stroke-width="2" stroke-linecap="round" stroke-linejoin="round"/>
<path d="M397 59C397 60.6569 395.657 62 394 62C392.343 62 391 60.6569 391 59C391 57.3431 392.343 56 394 56C395.657 56 397 57.3431 397 59Z" stroke="#484A4A" stroke-width="2" stroke-linecap="round" stroke-linejoin="round"/>
<path d="M384.457 59C385.732 54.9429 389.522 52 393.999 52C398.477 52 402.267 54.9429 403.542 59C402.267 63.0571 398.477 66 393.999 66C389.522 66 385.732 63.0571 384.457 59Z" stroke="#484A4A" stroke-width="2" stroke-linecap="round" stroke-linejoin="round"/>
<path d="M398 98H403H398ZM403 98V103V98ZM403 98L397 104L403 98ZM387 98C385.895 98 385 98.8954 385 100V101C385 109.284 391.716 116 400 116H401C402.105 116 403 115.105 403 114V110.721C403 110.29 402.725 109.908 402.316 109.772L397.823 108.274C397.351 108.117 396.835 108.331 396.612 108.776L395.484 111.033C393.039 109.931 391.069 107.961 389.967 105.516L392.224 104.388C392.669 104.165 392.883 103.649 392.726 103.177L391.228 98.6838C391.092 98.2754 390.71 98 390.279 98H387Z" stroke="#484A4A" stroke-width="2" stroke-linecap="round" stroke-linejoin="round"/>
<path d="M447 8V6C447 4.89543 446.105 4 445 4H435C433.895 4 433 4.89543 433 6V12C433 13.1046 433.895 14 435 14H437L447 8ZM439 18H449C450.105 18 451 17.1046 451 16V10C451 8.89543 450.105 8 449 8H439C437.895 8 437 8.89543 437 10V16C437 17.1046 437.895 18 439 18ZM446 13C446 14.1046 445.105 15 444 15C442.895 15 442 14.1046 442 13C442 11.8954 442.895 11 444 11C445.105 11 446 11.8954 446 13Z" stroke="#484A4A" stroke-width="2" stroke-linecap="round" stroke-linejoin="round"/>
<path d="M435 52C435 50.8954 435.895 50 437 50H447C448.105 50 449 50.8954 449 52V68L442 64.5L435 68V52Z" stroke="#484A4A" stroke-width="2" stroke-linecap="round" stroke-linejoin="round"/>
<path d="M451 98L445 104L451 98ZM445 104V99V104ZM445 104H450H445ZM435 98C433.895 98 433 98.8954 433 100V101C433 109.284 439.716 116 448 116H449C450.105 116 451 115.105 451 114V110.721C451 110.29 450.725 109.908 450.316 109.772L445.823 108.274C445.351 108.117 444.835 108.331 444.612 108.776L443.484 111.033C441.039 109.931 439.069 107.961 437.967 105.516L440.224 104.388C440.669 104.165 440.883 103.649 440.726 103.177L439.228 98.6838C439.092 98.2754 438.71 98 438.279 98H435Z" stroke="#484A4A" stroke-width="2" stroke-linecap="round" stroke-linejoin="round"/>
<path d="M1 152L8.8906 157.26C9.5624 157.708 10.4376 157.708 11.1094 157.26L19 152H1ZM3 163H17C18.1046 163 19 162.105 19 161V151C19 149.895 18.1046 149 17 149H3C1.89543 149 1 149.895 1 151V161C1 162.105 1.89543 163 3 163Z" stroke="#484A4A" stroke-width="2" stroke-linecap="round" stroke-linejoin="round"/>
<path d="M15.6569 208.657C14.7202 209.593 12.7616 211.552 11.4138 212.9C10.6327 213.681 9.3677 213.681 8.5866 212.9C7.26234 211.576 5.34159 209.655 4.34315 208.657C1.21895 205.533 1.21895 200.467 4.34315 197.343C7.46734 194.219 12.5327 194.219 15.6569 197.343C18.781 200.467 18.781 205.533 15.6569 208.657Z" stroke="#484A4A" stroke-width="2" stroke-linecap="round" stroke-linejoin="round"/>
<path d="M13 203C13 204.657 11.6569 206 10 206C8.3431 206 7 204.657 7 203C7 201.343 8.3431 200 10 200C11.6569 200 13 201.343 13 203Z" stroke="#484A4A" stroke-width="2" stroke-linecap="round" stroke-linejoin="round"/>
<path d="M5 257H5.01M5 261C2.79086 261 1 259.209 1 257V245C1 243.895 1.89543 243 3 243H7C8.1046 243 9 243.895 9 245V257C9 259.209 7.20914 261 5 261ZM5 261H17C18.1046 261 19 260.105 19 259V255C19 253.895 18.1046 253 17 253H14.6569L5 261ZM9 247.343L10.6569 245.686C11.4379 244.905 12.7042 244.905 13.4853 245.686L16.3137 248.515C17.0948 249.296 17.0948 250.562 16.3137 251.343L7.82843 259.828L9 247.343Z" stroke="#484A4A" stroke-width="2" stroke-linecap="round" stroke-linejoin="round"/>
<path d="M61 161H55M61 161H66L64.5951 159.595C64.2141 159.214 64 158.697 64 158.158V155C64 152.388 62.3304 150.165 60 149.341V149C60 147.895 59.1046 147 58 147C56.8954 147 56 147.895 56 149V149.341C53.6696 150.165 52 152.388 52 155V158.158C52 158.697 51.7859 159.214 51.4049 159.595L50 161H55H61ZM61 161V162C61 163.657 59.6569 165 58 165C56.3431 165 55 163.657 55 162V161H61Z" stroke="#484A4A" stroke-width="2" stroke-linecap="round" stroke-linejoin="round"/>
<path d="M62 199C62 201.209 60.2091 203 58 203C55.7909 203 54 201.209 54 199C54 196.791 55.7909 195 58 195C60.2091 195 62 196.791 62 199Z" stroke="#484A4A" stroke-width="2" stroke-linecap="round" stroke-linejoin="round"/>
<path d="M58 206C54.134 206 51 209.134 51 213H65C65 209.134 61.866 206 58 206Z" stroke="#484A4A" stroke-width="2" stroke-linecap="round" stroke-linejoin="round"/>
<path d="M66 253H63.4142C63.149 253 62.8946 253.105 62.7071 253.293L60.2929 255.707C60.1054 255.895 59.851 256 59.5858 256H56.4142C56.149 256 55.8946 255.895 55.7071 255.707L53.2929 253.293C53.1054 253.105 52.851 253 52.5858 253H50M66 253V246C66 244.895 65.1046 244 64 244H52C50.8954 244 50 244.895 50 246V253H66ZM66 253V258C66 259.105 65.1046 260 64 260H52C50.8954 260 50 259.105 50 258V253H66Z" stroke="#484A4A" stroke-width="2" stroke-linecap="round" stroke-linejoin="round"/>
<path d="M103 165H109M97 156L99 154L97 156ZM99 154L106 147L113 154H99ZM99 154V164C99 164.552 99.448 165 100 165H103L99 154ZM113 154L115 156L113 154ZM113 154V164C113 164.552 112.552 165 112 165H109L113 154ZM103 165C103.552 165 104 164.552 104 164V160C104 159.448 104.448 159 105 159H107C107.552 159 108 159.448 108 160V164C108 164.552 108.448 165 109 165H103Z" stroke="#484A4A" stroke-width="2" stroke-linecap="round" stroke-linejoin="round"/>
<path d="M106 196.354C106.733 195.524 107.805 195 109 195C111.209 195 113 196.791 113 199C113 201.209 111.209 203 109 203C107.805 203 106.733 202.476 106 201.646V196.354ZM109 213H97V212C97 208.686 99.686 206 103 206C106.314 206 109 208.686 109 212V213ZM109 213H115V212C115 208.686 112.314 206 109 206C107.907 206 106.883 206.292 106 206.803L109 213ZM107 199C107 201.209 105.209 203 103 203C100.791 203 99 201.209 99 199C99 196.791 100.791 195 103 195C105.209 195 107 196.791 107 199Z" stroke="#484A4A" stroke-width="2" stroke-linecap="round" stroke-linejoin="round"/>
<path d="M98 253H100.586C100.851 253 101.105 253.105 101.293 253.293L103.707 255.707C103.895 255.895 104.149 256 104.414 256H107.586C107.851 256 108.105 255.895 108.293 255.707L110.707 253.293C110.895 253.105 111.149 253 111.414 253H114M102 244H100C98.895 244 98 244.895 98 246V258C98 259.105 98.895 260 100 260H112C113.105 260 114 259.105 114 258V246C114 244.895 113.105 244 112 244H110H102ZM106 243V251V243ZM106 251L109 248L106 251ZM106 251L103 248L106 251Z" stroke="#484A4A" stroke-width="2" stroke-linecap="round" stroke-linejoin="round"/>
<path d="M163 157.255C160.221 158.38 157.183 159 154 159C150.817 159 147.779 158.38 145 157.255H163ZM158 150V148C158 146.895 157.105 146 156 146H152C150.895 146 150 146.895 150 148V150H158ZM154 156H154.01H154ZM147 164H161C162.105 164 163 163.105 163 162V152C163 150.895 162.105 150 161 150H147C145.895 150 145 150.895 145 152V162C145 163.105 145.895 164 147 164Z" stroke="#484A4A" stroke-width="2" stroke-linecap="round" stroke-linejoin="round"/>
<path d="M159 212H164V210C164 208.343 162.657 207 161 207C160.044 207 159.193 207.447 158.644 208.143L159 212ZM159 212H149H159ZM159 212V210C159 209.344 158.874 208.717 158.644 208.143L159 212ZM149 212H144V210C144 208.343 145.343 207 147 207C147.956 207 148.807 207.447 149.356 208.143L149 212ZM149 212V210C149 209.344 149.126 208.717 149.356 208.143L149 212ZM149.356 208.143C150.094 206.301 151.895 205 154 205C156.105 205 157.906 206.301 158.644 208.143H149.356ZM157 199C157 200.657 155.657 202 154 202C152.343 202 151 200.657 151 199C151 197.343 152.343 196 154 196C155.657 196 157 197.343 157 199ZM163 202C163 203.105 162.105 204 161 204C159.895 204 159 203.105 159 202C159 200.895 159.895 200 161 200C162.105 200 163 200.895 163 202ZM149 202C149 203.105 148.105 204 147 204C145.895 204 145 203.105 145 202C145 200.895 145.895 200 147 200C148.105 200 149 200.895 149 202Z" stroke="#484A4A" stroke-width="2" stroke-linecap="round" stroke-linejoin="round"/>
<path d="M152 252H156M147 248H161H147ZM147 248C145.895 248 145 247.105 145 246C145 244.895 145.895 244 147 244H161C162.105 244 163 244.895 163 246C163 247.105 162.105 248 161 248H147ZM147 248V258C147 259.105 147.895 260 149 260H159C160.105 260 161 259.105 161 258V248H147Z" stroke="#484A4A" stroke-width="2" stroke-linecap="round" stroke-linejoin="round"/>
<path d="M199 156L201 158L205 154L199 156ZM210.618 149.984C210.413 149.995 210.207 150 210 150C206.927 150 204.123 148.845 202 146.944C199.877 148.844 197.073 150 194 150C193.793 150 193.587 149.995 193.382 149.984C193.133 150.948 193 151.958 193 153C193 158.591 196.824 163.29 202 164.622C207.176 163.29 211 158.591 211 153C211 151.958 210.867 150.948 210.618 149.984Z" stroke="#484A4A" stroke-width="2" stroke-linecap="round" stroke-linejoin="round"/>
<path d="M200 213H204M209 213V197C209 195.895 208.105 195 207 195H197C195.895 195 195 195.895 195 197V213H209ZM209 213H211H209ZM209 213H204H209ZM195 213H193H195ZM195 213H200H195ZM199 199H200H199ZM199 203H200H199ZM204 199H205H204ZM204 203H205H204ZM200 213V208C200 207.448 200.448 207 201 207H203C203.552 207 204 207.448 204 208V213H200Z" stroke="#484A4A" stroke-width="2" stroke-linecap="round" stroke-linejoin="round"/>
<path d="M202 248V252L205 255L202 248ZM211 252C211 256.971 206.971 261 202 261C197.029 261 193 256.971 193 252C193 247.029 197.029 243 202 243C206.971 243 211 247.029 211 252Z" stroke="#484A4A" stroke-width="2" stroke-linecap="round" stroke-linejoin="round"/>
<path d="M258.618 149.984C258.413 149.995 258.207 150 258 150C254.927 150 252.123 148.845 250 146.944C247.877 148.844 245.073 150 242 150C241.793 150 241.587 149.995 241.382 149.984C241.133 150.948 241 151.958 241 153C241 158.591 244.824 163.29 250 164.622C255.176 163.29 259 158.591 259 153C259 151.958 258.867 150.948 258.618 149.984Z" stroke="#484A4A" stroke-width="2" stroke-linecap="round" stroke-linejoin="round"/>
<path d="M250 159H250.01M250 153V155V153Z" stroke="#484A4A" stroke-width="2" stroke-linecap="round" stroke-linejoin="round"/>
<path d="M250 213H253M241 198L244 199L241 198ZM244 199L241 208C242.773 209.333 245.229 209.333 247.001 208L244 199ZM244 199L247 208L244 199ZM244 199L250 197L244 199ZM256 199L259 198L256 199ZM256 199L253 208C254.773 209.333 257.229 209.333 259.001 208L256 199ZM256 199L259 208L256 199ZM256 199L250 197L256 199ZM250 195V197V195ZM250 213V197V213ZM250 213H247H250Z" stroke="#484A4A" stroke-width="2" stroke-linecap="round" stroke-linejoin="round"/>
<path d="M242 256L246.586 251.414C247.367 250.633 248.633 250.633 249.414 251.414L254 256H242ZM252 254L253.586 252.414C254.367 251.633 255.633 251.633 256.414 252.414L258 254H252ZM252 248H252.01H252ZM244 260H256C257.105 260 258 259.105 258 258V246C258 244.895 257.105 244 256 244H244C242.895 244 242 244.895 242 246V258C242 259.105 242.895 260 244 260Z" stroke="#484A4A" stroke-width="2" stroke-linecap="round" stroke-linejoin="round"/>
<path d="M296.325 148.317C296.751 146.561 299.249 146.561 299.675 148.317C299.951 149.452 301.251 149.99 302.248 149.383C303.791 148.442 305.558 150.209 304.617 151.752C304.01 152.749 304.548 154.049 305.683 154.325C307.439 154.751 307.439 157.249 305.683 157.675C304.548 157.951 304.01 159.251 304.617 160.248C305.558 161.791 303.791 163.558 302.248 162.617C301.251 162.01 299.951 162.548 299.675 163.683C299.249 165.439 296.751 165.439 296.325 163.683C296.049 162.548 294.749 162.01 293.752 162.617C292.209 163.558 290.442 161.791 291.383 160.248C291.99 159.251 291.452 157.951 290.317 157.675C288.561 157.249 288.561 154.751 290.317 154.325C291.452 154.049 291.99 152.749 291.383 151.752C290.442 150.209 292.209 148.442 293.752 149.383C294.749 149.99 296.049 149.452 296.325 148.317Z" stroke="#484A4A" stroke-width="2" stroke-linecap="round" stroke-linejoin="round"/>
<path d="M301 156C301 157.657 299.657 159 298 159C296.343 159 295 157.657 295 156C295 154.343 296.343 153 298 153C299.657 153 301 154.343 301 156Z" stroke="#484A4A" stroke-width="2" stroke-linecap="round" stroke-linejoin="round"/>
<path d="M297 197H292C290.895 197 290 197.895 290 199V210C290 211.105 290.895 212 292 212H303C304.105 212 305 211.105 305 210V205L297 197ZM303.586 195.586C304.367 194.805 305.633 194.805 306.414 195.586C307.195 196.367 307.195 197.633 306.414 198.414L297.828 207H295V204.172L303.586 195.586Z" stroke="#484A4A" stroke-width="2" stroke-linecap="round" stroke-linejoin="round"/>
<path d="M293 247H293.01H293ZM293 243H298C298.512 243 299.024 243.195 299.414 243.586L306.414 250.586C307.195 251.367 307.195 252.633 306.414 253.414L299.414 260.414C298.633 261.195 297.367 261.195 296.586 260.414L289.586 253.414C289.195 253.024 289 252.512 289 252V247C289 244.791 290.791 243 293 243Z" stroke="#484A4A" stroke-width="2" stroke-linecap="round" stroke-linejoin="round"/>
<path d="M339 157L343 161L353 151" stroke="#484A4A" stroke-width="2" stroke-linecap="round" stroke-linejoin="round"/>
<path d="M341 212.035V211.829L351.354 201.475L351.707 201.828L352.061 202.182L341.207 213.035L341 212.828V212.035ZM353.829 199.707L353.475 199.354L353.561 199.268L354.268 199.975L354.182 200.061L353.829 199.707ZM354.946 199.238L354.223 198.516C354.592 197.891 354.592 197.109 354.223 196.484L354.622 196.086L354.946 195.762C355.685 196.799 355.685 198.201 354.946 199.238ZM350.761 195.054C351.799 194.315 353.201 194.315 354.239 195.054L353.914 195.379L353.516 195.777C352.891 195.408 352.109 195.408 351.484 195.777L350.761 195.054ZM338.5 212.535H339.293L340 213.535H338.5V213.035V212.535ZM350.025 195.732L350.732 196.439L350.646 196.525L350.293 196.172L349.939 195.818L350.025 195.732ZM348.171 198.293L348.525 198.646L338.207 208.964H338H337.207L337 208.757L347.818 197.939L348.171 198.293ZM336.793 209.964L337.353 210.525L337.5 210.672V211.535H337H336.5V209.964H336.793ZM349.939 198.646L350.646 197.939L352.061 199.354L351.354 200.061L349.939 198.646Z" fill="#FF6C62" stroke="#484A4A"/>
<mask id="path-64-inside-2" fill="white">
<path d="M343.228 243.684L342.279 244L343.228 243.684ZM344.726 248.177L343.777 248.493L344.726 248.177ZM344.224 249.388L344.671 250.282L344.224 249.388ZM341.967 250.516L341.52 249.622C341.04 249.862 340.835 250.438 341.055 250.928L341.967 250.516ZM347.484 256.033L347.072 256.945C347.562 257.165 348.138 256.96 348.378 256.48L347.484 256.033ZM348.612 253.776L347.718 253.329L348.612 253.776ZM349.823 253.274L349.507 254.223L349.823 253.274ZM354.316 254.772L354.632 253.823L354.316 254.772ZM339 242C337.343 242 336 243.343 336 245H338C338 244.448 338.448 244 339 244V242ZM342.279 242H339V244H342.279V242ZM344.177 243.368C343.904 242.551 343.14 242 342.279 242V244L344.177 243.368ZM345.674 247.861L344.177 243.368L342.279 244L343.777 248.493L345.674 247.861ZM344.671 250.282C345.562 249.837 345.989 248.805 345.674 247.861L343.777 248.493L344.671 250.282ZM342.414 251.411L344.671 250.282L343.777 248.493L341.52 249.622L342.414 251.411ZM347.895 255.121C345.672 254.119 343.881 252.328 342.879 250.105L341.055 250.928C342.258 253.595 344.405 255.742 347.072 256.945L347.895 255.121ZM347.718 253.329L346.589 255.586L348.378 256.48L349.507 254.223L347.718 253.329ZM350.139 252.326C349.195 252.011 348.163 252.438 347.718 253.329L349.507 254.223L350.139 252.326ZM354.632 253.823L350.139 252.326L349.507 254.223L354 255.721L354.632 253.823ZM356 255.721C356 254.86 355.449 254.096 354.632 253.823L354 255.721H356ZM356 259V255.721H354V259H356ZM353 262C354.657 262 356 260.657 356 259H354C354 259.552 353.552 260 353 260V262ZM352 262H353V260H352V262ZM336 246C336 254.837 343.163 262 352 262V260C344.268 260 338 253.732 338 246H336ZM336 245V246H338V245H336Z"/>
</mask>
<path d="M343.228 243.684L342.279 244L343.228 243.684ZM344.726 248.177L343.777 248.493L344.726 248.177ZM344.224 249.388L344.671 250.282L344.224 249.388ZM341.967 250.516L341.52 249.622C341.04 249.862 340.835 250.438 341.055 250.928L341.967 250.516ZM347.484 256.033L347.072 256.945C347.562 257.165 348.138 256.96 348.378 256.48L347.484 256.033ZM348.612 253.776L347.718 253.329L348.612 253.776ZM349.823 253.274L349.507 254.223L349.823 253.274ZM354.316 254.772L354.632 253.823L354.316 254.772ZM339 242C337.343 242 336 243.343 336 245H338C338 244.448 338.448 244 339 244V242ZM342.279 242H339V244H342.279V242ZM344.177 243.368C343.904 242.551 343.14 242 342.279 242V244L344.177 243.368ZM345.674 247.861L344.177 243.368L342.279 244L343.777 248.493L345.674 247.861ZM344.671 250.282C345.562 249.837 345.989 248.805 345.674 247.861L343.777 248.493L344.671 250.282ZM342.414 251.411L344.671 250.282L343.777 248.493L341.52 249.622L342.414 251.411ZM347.895 255.121C345.672 254.119 343.881 252.328 342.879 250.105L341.055 250.928C342.258 253.595 344.405 255.742 347.072 256.945L347.895 255.121ZM347.718 253.329L346.589 255.586L348.378 256.48L349.507 254.223L347.718 253.329ZM350.139 252.326C349.195 252.011 348.163 252.438 347.718 253.329L349.507 254.223L350.139 252.326ZM354.632 253.823L350.139 252.326L349.507 254.223L354 255.721L354.632 253.823ZM356 255.721C356 254.86 355.449 254.096 354.632 253.823L354 255.721H356ZM356 259V255.721H354V259H356ZM353 262C354.657 262 356 260.657 356 259H354C354 259.552 353.552 260 353 260V262ZM352 262H353V260H352V262ZM336 246C336 254.837 343.163 262 352 262V260C344.268 260 338 253.732 338 246H336ZM336 245V246H338V245H336Z" fill="#FF6C62"/>
<path d="M341.967 250.516L342.379 251.427L343.327 250.999L342.861 250.069L341.967 250.516ZM341.52 249.622L342.414 249.175L341.967 248.28L341.073 248.728L341.52 249.622ZM341.055 250.928L340.143 251.338L340.553 252.252L341.467 251.839L341.055 250.928ZM347.484 256.033L347.931 255.139L347.001 254.673L346.573 255.621L347.484 256.033ZM347.072 256.945L346.161 256.533L345.748 257.447L346.662 257.857L347.072 256.945ZM348.378 256.48L349.272 256.927L349.72 256.033L348.825 255.586L348.378 256.48ZM339 242H340V241H339V242ZM336 245H335V246H336V245ZM338 245V246H339V245H338ZM339 244V245H340V244H339ZM342.279 242H343.279V241H342.279V242ZM339 242V241H338V242H339ZM339 244H338V245H339V244ZM342.279 244V245H343.279V244H342.279ZM344.177 243.368L344.493 244.316L345.443 244L345.125 243.05L344.177 243.368ZM342.279 242V241H341.279V242H342.279ZM342.279 244H341.279V245.387L342.595 244.949L342.279 244ZM345.674 247.861L345.99 248.81L346.939 248.494L346.623 247.545L345.674 247.861ZM344.177 243.368L345.126 243.051L344.81 242.103L343.861 242.419L344.177 243.368ZM342.279 244L341.963 243.051L341.014 243.367L341.33 244.316L342.279 244ZM343.777 248.493L342.828 248.809L343.145 249.758L344.093 249.442L343.777 248.493ZM344.671 250.282L343.776 250.729L344.223 251.623L345.118 251.177L344.671 250.282ZM345.674 247.861L346.623 247.544L346.306 246.596L345.358 246.912L345.674 247.861ZM343.777 248.493L343.461 247.544L342.367 247.909L342.882 248.94L343.777 248.493ZM342.414 251.411L341.519 251.858L341.967 252.753L342.861 252.305L342.414 251.411ZM344.671 250.282L345.118 251.176L346.012 250.729L345.566 249.835L344.671 250.282ZM343.777 248.493L344.672 248.046L344.224 247.151L343.33 247.599L343.777 248.493ZM341.52 249.622L341.073 248.728L340.179 249.175L340.625 250.069L341.52 249.622ZM347.895 255.121L348.806 255.532L349.218 254.62L348.306 254.209L347.895 255.121ZM342.879 250.105L343.791 249.694L343.38 248.782L342.468 249.193L342.879 250.105ZM341.055 250.928L340.644 250.016L339.732 250.428L340.143 251.339L341.055 250.928ZM347.072 256.945L346.661 257.857L347.572 258.268L347.984 257.356L347.072 256.945ZM347.718 253.329L348.165 252.434L347.271 251.988L346.824 252.882L347.718 253.329ZM346.589 255.586L345.695 255.139L345.247 256.033L346.142 256.481L346.589 255.586ZM348.378 256.48L347.931 257.375L348.825 257.821L349.272 256.927L348.378 256.48ZM349.507 254.223L350.401 254.67L350.849 253.776L349.954 253.328L349.507 254.223ZM350.139 252.326L351.088 252.642L351.404 251.694L350.456 251.377L350.139 252.326ZM347.718 253.329L346.823 252.882L346.377 253.777L347.271 254.224L347.718 253.329ZM349.507 254.223L349.06 255.118L350.091 255.633L350.456 254.539L349.507 254.223ZM354.632 253.823L355.581 254.139L355.897 253.19L354.948 252.874L354.632 253.823ZM350.139 252.326L350.455 251.377L349.506 251.061L349.19 252.01L350.139 252.326ZM349.507 254.223L348.558 253.907L348.242 254.855L349.191 255.172L349.507 254.223ZM354 255.721L353.684 256.67L354.633 256.986L354.949 256.037L354 255.721ZM356 255.721V256.721H357V255.721H356ZM354.632 253.823L354.949 252.875L353.999 252.557L353.683 253.507L354.632 253.823ZM354 255.721L353.051 255.405L352.613 256.721H354V255.721ZM356 259V260H357V259H356ZM356 255.721H357V254.721H356V255.721ZM354 255.721V254.721H353V255.721H354ZM354 259H353V260H354V259ZM353 262H352V263H353V262ZM356 259H357V258H356V259ZM354 259V258H353V259H354ZM353 260V259H352V260H353ZM352 262H351V263H352V262ZM353 262V263H354V262H353ZM353 260H354V259H353V260ZM352 260V259H351V260H352ZM336 246V245H335V246H336ZM352 262V263H353V262H352ZM352 260H353V259H352V260ZM338 246H339V245H338V246ZM336 245V244H335V245H336ZM336 246H335V247H336V246ZM338 246V247H339V246H338ZM338 245H339V244H338V245ZM342.912 242.735L341.963 243.051L342.595 244.949L343.544 244.633L342.912 242.735ZM342.595 244.949L343.544 244.633L342.912 242.735L341.963 243.051L342.595 244.949ZM344.41 247.228L343.461 247.544L344.093 249.442L345.042 249.126L344.41 247.228ZM344.093 249.442L345.042 249.126L344.41 247.228L343.461 247.544L344.093 249.442ZM343.33 249.835L343.777 250.729L345.565 249.835L345.118 248.941L343.33 249.835ZM345.565 249.835L345.118 248.941L343.33 249.835L343.777 250.729L345.565 249.835ZM342.861 250.069L342.414 249.175L340.626 250.069L341.073 250.963L342.861 250.069ZM341.073 248.728C340.112 249.208 339.704 250.359 340.143 251.338L341.967 250.518C341.966 250.517 341.967 250.517 341.967 250.518C341.967 250.518 341.967 250.518 341.967 250.517C341.967 250.516 341.968 250.516 341.967 250.516C341.967 250.516 341.967 250.517 341.966 250.517C341.966 250.517 341.966 250.517 341.967 250.516L341.073 248.728ZM341.467 251.839L342.379 251.427L341.555 249.605L340.643 250.017L341.467 251.839ZM346.573 255.621L346.161 256.533L347.983 257.357L348.395 256.445L346.573 255.621ZM346.662 257.857C347.641 258.296 348.792 257.888 349.272 256.927L347.484 256.033C347.483 256.034 347.483 256.034 347.483 256.034C347.483 256.033 347.484 256.033 347.484 256.033C347.484 256.032 347.484 256.033 347.483 256.033C347.482 256.033 347.482 256.033 347.482 256.033C347.483 256.033 347.483 256.034 347.482 256.033L346.662 257.857ZM348.825 255.586L347.931 255.139L347.037 256.927L347.931 257.374L348.825 255.586ZM349.059 252.882L348.165 252.435L347.271 254.223L348.165 254.67L349.059 252.882ZM347.271 254.223L348.165 254.67L349.059 252.882L348.165 252.435L347.271 254.223ZM348.874 252.958L348.558 253.907L350.456 254.539L350.772 253.59L348.874 252.958ZM350.456 254.539L350.772 253.59L348.874 252.958L348.558 253.907L350.456 254.539ZM355.265 255.088L355.581 254.139L353.683 253.507L353.367 254.456L355.265 255.088ZM353.683 253.507L353.367 254.456L355.265 255.088L355.581 254.139L353.683 253.507ZM339 241C336.791 241 335 242.791 335 245H337C337 243.895 337.895 243 339 243V241ZM336 246H338V244H336V246ZM339 245V243C337.896 243 337 243.896 337 245H339ZM340 244V242H338V244H340ZM342.279 241H339V243H342.279V241ZM338 242V244H340V242H338ZM339 245H342.279V243H339V245ZM343.279 244V242H341.279V244H343.279ZM345.125 243.05C344.716 241.827 343.571 241 342.279 241V243C342.709 243 343.092 243.275 343.229 243.685L345.125 243.05ZM341.279 242V244H343.279V242H341.279ZM342.595 244.949L344.493 244.316L343.861 242.419L341.963 243.051L342.595 244.949ZM346.623 247.545L345.126 243.051L343.228 243.684L344.725 248.177L346.623 247.545ZM343.861 242.419L341.963 243.051L342.595 244.949L344.493 244.316L343.861 242.419ZM341.33 244.316L342.828 248.809L344.726 248.177L343.228 243.684L341.33 244.316ZM344.093 249.442L345.99 248.81L345.358 246.912L343.461 247.544L344.093 249.442ZM345.118 251.177C346.454 250.509 347.095 248.961 346.623 247.544L344.725 248.178C344.883 248.649 344.67 249.165 344.224 249.387L345.118 251.177ZM345.358 246.912L343.461 247.544L344.093 249.442L345.99 248.81L345.358 246.912ZM342.882 248.94L343.776 250.729L345.566 249.835L344.672 248.046L342.882 248.94ZM342.861 252.305L345.118 251.176L344.224 249.388L341.967 250.517L342.861 252.305ZM345.566 249.835L344.672 248.046L342.882 248.94L343.776 250.729L345.566 249.835ZM343.33 247.599L341.073 248.728L341.967 250.516L344.224 249.387L343.33 247.599ZM340.625 250.069L341.519 251.858L343.309 250.964L342.415 249.175L340.625 250.069ZM348.306 254.209C346.305 253.308 344.692 251.695 343.791 249.694L341.967 250.516C343.07 252.961 345.039 254.93 347.484 256.033L348.306 254.209ZM342.468 249.193L340.644 250.016L341.466 251.84L343.29 251.017L342.468 249.193ZM340.143 251.339C341.447 254.228 343.772 256.553 346.661 257.857L347.483 256.033C345.038 254.931 343.069 252.962 341.967 250.517L340.143 251.339ZM347.984 257.356L348.806 255.532L346.983 254.71L346.16 256.534L347.984 257.356ZM346.824 252.882L345.695 255.139L347.483 256.033L348.612 253.776L346.824 252.882ZM346.142 256.481L347.931 257.375L348.825 255.585L347.036 254.691L346.142 256.481ZM349.272 256.927L350.401 254.67L348.613 253.776L347.484 256.033L349.272 256.927ZM349.954 253.328L348.165 252.434L347.271 254.224L349.06 255.118L349.954 253.328ZM350.456 251.377C349.039 250.905 347.491 251.546 346.823 252.882L348.613 253.776C348.835 253.331 349.351 253.117 349.822 253.275L350.456 251.377ZM347.271 254.224L349.06 255.118L349.954 253.328L348.165 252.434L347.271 254.224ZM350.456 254.539L351.088 252.642L349.19 252.01L348.558 253.907L350.456 254.539ZM354.948 252.874L350.455 251.377L349.823 253.275L354.316 254.772L354.948 252.874ZM349.19 252.01L348.558 253.907L350.456 254.539L351.088 252.642L349.19 252.01ZM349.191 255.172L353.684 256.67L354.316 254.772L349.823 253.274L349.191 255.172ZM354.949 256.037L355.581 254.139L353.683 253.507L353.051 255.405L354.949 256.037ZM357 255.721C357 254.429 356.173 253.284 354.949 252.875L354.315 254.771C354.725 254.908 355 255.291 355 255.721H357ZM353.683 253.507L353.051 255.405L354.949 256.037L355.581 254.139L353.683 253.507ZM354 256.721H356V254.721H354V256.721ZM357 259V255.721H355V259H357ZM356 254.721H354V256.721H356V254.721ZM353 255.721V259H355V255.721H353ZM354 260H356V258H354V260ZM353 263C355.209 263 357 261.209 357 259H355C355 260.105 354.105 261 353 261V263ZM356 258H354V260H356V258ZM353 259V261C354.104 261 355 260.104 355 259H353ZM352 260V262H354V260H352ZM352 263H353V261H352V263ZM354 262V260H352V262H354ZM353 259H352V261H353V259ZM351 260V262H353V260H351ZM335 246C335 255.389 342.611 263 352 263V261C343.715 261 337 254.285 337 246H335ZM353 262V260H351V262H353ZM352 259C344.82 259 339 253.18 339 246H337C337 254.284 343.716 261 352 261V259ZM338 245H336V247H338V245ZM335 245V246H337V245H335ZM336 247H338V245H336V247ZM339 246V245H337V246H339ZM338 244H336V246H338V244Z" fill="#484A4A" mask="url(#path-64-inside-2)"/>
<path d="M394.751 149C393.783 154.77 390.07 159.609 385 162.129M385 149H397H385ZM391 147V149V147ZM392.048 158.5C390.521 156.918 389.281 155.056 388.412 153L392.048 158.5ZM394.5 162H401.5H394.5ZM393 165L398 155L403 165H393Z" stroke="#484A4A" stroke-width="2" stroke-linecap="round" stroke-linejoin="round"/>
<path d="M397 204C397 205.657 395.657 207 394 207C392.343 207 391 205.657 391 204C391 202.343 392.343 201 394 201C395.657 201 397 202.343 397 204Z" stroke="#484A4A" stroke-width="2" stroke-linecap="round" stroke-linejoin="round"/>
<path d="M384.457 204C385.732 199.943 389.522 197 393.999 197C398.477 197 402.267 199.943 403.542 204C402.267 208.057 398.477 211 393.999 211C389.522 211 385.732 208.057 384.457 204Z" stroke="#484A4A" stroke-width="2" stroke-linecap="round" stroke-linejoin="round"/>
<path d="M398 243H403H398ZM403 243V248V243ZM403 243L397 249L403 243ZM387 243C385.895 243 385 243.895 385 245V246C385 254.284 391.716 261 400 261H401C402.105 261 403 260.105 403 259V255.721C403 255.29 402.725 254.908 402.316 254.772L397.823 253.274C397.351 253.117 396.835 253.331 396.612 253.776L395.484 256.033C393.039 254.931 391.069 252.961 389.967 250.516L392.224 249.388C392.669 249.165 392.883 248.649 392.726 248.177L391.228 243.684C391.092 243.275 390.71 243 390.279 243H387Z" stroke="#484A4A" stroke-width="2" stroke-linecap="round" stroke-linejoin="round"/>
<path d="M447 153V151C447 149.895 446.105 149 445 149H435C433.895 149 433 149.895 433 151V157C433 158.105 433.895 159 435 159H437L447 153ZM439 163H449C450.105 163 451 162.105 451 161V155C451 153.895 450.105 153 449 153H439C437.895 153 437 153.895 437 155V161C437 162.105 437.895 163 439 163ZM446 158C446 159.105 445.105 160 444 160C442.895 160 442 159.105 442 158C442 156.895 442.895 156 444 156C445.105 156 446 156.895 446 158Z" stroke="#484A4A" stroke-width="2" stroke-linecap="round" stroke-linejoin="round"/>
<path d="M435 197C435 195.895 435.895 195 437 195H447C448.105 195 449 195.895 449 197V213L442 209.5L435 213V197Z" stroke="#484A4A" stroke-width="2" stroke-linecap="round" stroke-linejoin="round"/>
<path d="M451 243L445 249L451 243ZM445 249V244V249ZM445 249H450H445ZM435 243C433.895 243 433 243.895 433 245V246C433 254.284 439.716 261 448 261H449C450.105 261 451 260.105 451 259V255.721C451 255.29 450.725 254.908 450.316 254.772L445.823 253.274C445.351 253.117 444.835 253.331 444.612 253.776L443.484 256.033C441.039 254.931 439.069 252.961 437.967 250.516L440.224 249.388C440.669 249.165 440.883 248.649 440.726 248.177L439.228 243.684C439.092 243.275 438.71 243 438.279 243H435Z" stroke="#484A4A" stroke-width="2" stroke-linecap="round" stroke-linejoin="round"/>
</svg>