<svg version="1.1" id="Flare" xmlns="http://www.w3.org/2000/svg" xmlns:xlink="http://www.w3.org/1999/xlink" x="0px" y="0px"
	 viewBox="0 0 1200 90" style="enable-background:new 0 0 1200 90;" xml:space="preserve">
<rect y="0" style="fill:#FFFFFF;" width="1200" height="90"/>
<polyline style="fill:#F6EDFE;" points="819.3,0 380.7,0 305,44.1 383.5,90 816.1,90 895,44.1 819.3,0 "/>
<g>
	<g>
		<rect x="746.3" y="21.3" style="fill:#94F2C8;" width="72" height="43.7"/>
		<g>
			<path style="opacity:0;" d="M801.3,58.2L801.3,58.2L801.3,58.2"/>
		</g>
	</g>
	<g>
		<g>
			<path style="fill:#4B476D;" d="M221.7,32.1h17.4v3.3h-6.7v18.5h-3.9V35.4h-6.7V32.1z"/>
			<path style="fill:#4B476D;" d="M246.1,53.9h-3.9V32.1h3.8v8.2h0.2c0.8-1.9,2.4-3,4.9-3c3.4,0,5.6,2.2,5.6,6.2v10.4h-3.9v-9.8
				c0-2.2-1.2-3.5-3.2-3.5c-2.1,0-3.5,1.4-3.5,3.7V53.9z"/>
			<path style="fill:#4B476D;" d="M260,45.8c0-5,3.1-8.5,7.7-8.5c4,0,7.5,2.5,7.5,8.3v1.2h-11.4c0,2.8,1.7,4.4,4.2,4.4
				c1.7,0,2.9-0.7,3.5-2.1l3.6,0.4c-0.7,2.8-3.3,4.7-7.1,4.7C263,54.2,260,50.9,260,45.8z M271.5,44.2c0-2.2-1.5-3.8-3.7-3.8
				c-2.3,0-3.8,1.8-4,3.8H271.5z"/>
			<path style="fill:#4B476D;" d="M285.2,45.8c0-5.1,3-8.5,7.8-8.5c4.8,0,7.8,3.4,7.8,8.5c0,5.1-3,8.4-7.8,8.4
				C288.2,54.2,285.2,50.8,285.2,45.8z M297,45.8c0-3-1.3-5.4-3.9-5.4c-2.7,0-4,2.4-4,5.4c0,3,1.3,5.4,4,5.4
				C295.7,51.1,297,48.8,297,45.8z"/>
			<path style="fill:#4B476D;" d="M308,53.9h-3.9V37.5h3.7v2.8h0.2c0.7-1.8,2.4-3,4.9-3c3.4,0,5.6,2.2,5.6,6.2v10.4h-3.9v-9.8
				c0-2.2-1.2-3.5-3.2-3.5c-2,0-3.5,1.4-3.5,3.7V53.9z"/>
			<path style="fill:#4B476D;" d="M326.3,53.9h-3.9V32.1h3.9V53.9z"/>
			<path style="fill:#4B476D;" d="M330.1,59.6l0.9-3c1.7,0.5,2.8,0.3,3.5-1.5l0.3-0.9l-5.9-16.7h4.1l3.8,12.4h0.2l3.8-12.4l4.1,0
				l-6.6,18.3c-0.9,2.6-2.7,4.1-5.7,4.1C331.6,60,330.7,59.8,330.1,59.6z"/>
			<path style="fill:#4B476D;" d="M354.3,45.8c0-5,3.1-8.5,7.7-8.5c4,0,7.5,2.5,7.5,8.3v1.2h-11.4c0,2.8,1.7,4.4,4.2,4.4
				c1.7,0,2.9-0.7,3.5-2.1l3.6,0.4c-0.7,2.8-3.3,4.7-7.1,4.7C357.3,54.2,354.3,50.9,354.3,45.8z M365.8,44.2c0-2.2-1.5-3.8-3.7-3.8
				c-2.3,0-3.8,1.8-4,3.8H365.8z"/>
			<path style="fill:#4B476D;" d="M372.8,37.5h3.7v2.7h0.2c0.6-1.9,2.2-3,4-3c0.4,0,1,0,1.4,0.1v3.5c-0.3-0.1-1.1-0.2-1.8-0.2
				c-2.1,0-3.7,1.5-3.7,3.5v9.6h-3.9V37.5z"/>
			<path style="fill:#4B476D;" d="M384.7,37.5h3.7v2.7h0.2c0.6-1.9,2.2-3,4-3c0.4,0,1,0,1.4,0.1v3.5c-0.3-0.1-1.1-0.2-1.8-0.2
				c-2.1,0-3.7,1.5-3.7,3.5v9.6h-3.9V37.5z"/>
			<path style="fill:#4B476D;" d="M395.2,45.8c0-5.1,3-8.5,7.8-8.5s7.8,3.4,7.8,8.5c0,5.1-3,8.4-7.8,8.4S395.2,50.8,395.2,45.8z
				 M407,45.8c0-3-1.3-5.4-3.9-5.4c-2.7,0-4,2.4-4,5.4c0,3,1.3,5.4,4,5.4C405.7,51.1,407,48.8,407,45.8z"/>
			<path style="fill:#4B476D;" d="M414.1,37.5h3.7v2.7h0.2c0.6-1.9,2.2-3,4-3c0.4,0,1,0,1.4,0.1v3.5c-0.3-0.1-1.1-0.2-1.8-0.2
				c-2.1,0-3.7,1.5-3.7,3.5v9.6h-3.9V37.5z"/>
			<path style="fill:#4B476D;" d="M441.6,40.5h-3.2V49c0,1.6,0.8,1.9,1.7,1.9c0.5,0,0.9-0.1,1.1-0.1l0.6,3c-0.4,0.1-1.2,0.4-2.3,0.4
				c-2.9,0.1-5.1-1.4-5.1-4.5v-9.1h-2.3v-3h2.3v-3.9h3.9v3.9h3.2V40.5z"/>
			<path style="fill:#4B476D;" d="M444.9,37.5h3.7v2.7h0.2c0.6-1.9,2.2-3,4-3c0.4,0,1,0,1.4,0.1v3.5c-0.3-0.1-1.1-0.2-1.8-0.2
				c-2.1,0-3.7,1.5-3.7,3.5v9.6h-3.9V37.5z"/>
			<path style="fill:#4B476D;" d="M455.7,49.3c0-3.7,3-4.6,6.2-5c2.9-0.3,4-0.4,4-1.5v-0.1c0-1.6-1-2.5-2.8-2.5c-1.9,0-3,1-3.4,2.1
				l-3.6-0.5c0.9-3,3.5-4.5,6.9-4.5c3.1,0,6.6,1.3,6.6,5.6v10.9h-3.7v-2.2H466c-0.7,1.4-2.2,2.6-4.8,2.6
				C458.1,54.2,455.7,52.5,455.7,49.3z M466,48v-1.9c-0.5,0.4-2.5,0.7-3.5,0.8c-1.7,0.2-3,0.9-3,2.3c0,1.4,1.1,2.2,2.8,2.2
				C464.5,51.4,466,49.8,466,48z"/>
			<path style="fill:#4B476D;" d="M473,45.8c0-5,3-8.5,7.8-8.5c4,0,6.8,2.3,7,5.9h-3.7c-0.3-1.6-1.4-2.8-3.3-2.8c-2.4,0-4,2-4,5.3
				c0,3.3,1.6,5.4,4,5.4c1.7,0,3-1,3.3-2.8h3.7c-0.3,3.5-2.9,5.9-7,5.9C476,54.2,473,50.7,473,45.8z"/>
			<path style="fill:#4B476D;" d="M491,32.1h3.9v12h0.3l5.9-6.6h4.5l-6.3,7.1l6.7,9.3h-4.6l-5-7l-1.4,1.5v5.5H491V32.1z"/>
			<path style="fill:#4B476D;" d="M506.7,45.8c0-5,3.1-8.5,7.7-8.5c4,0,7.5,2.5,7.5,8.3v1.2h-11.4c0,2.8,1.7,4.4,4.2,4.4
				c1.7,0,2.9-0.7,3.5-2.1l3.6,0.4c-0.7,2.8-3.3,4.7-7.1,4.7C509.7,54.2,506.7,50.9,506.7,45.8z M518.2,44.2c0-2.2-1.5-3.8-3.7-3.8
				c-2.3,0-3.8,1.8-4,3.8H518.2z"/>
			<path style="fill:#4B476D;" d="M525.2,37.5h3.7v2.7h0.2c0.6-1.9,2.2-3,4-3c0.4,0,1,0,1.4,0.1v3.5c-0.3-0.1-1.1-0.2-1.8-0.2
				c-2.1,0-3.7,1.5-3.7,3.5v9.6h-3.9V37.5z"/>
			<path style="fill:#4B476D;" d="M552.7,40.5h-3.2V49c0,1.6,0.8,1.9,1.7,1.9c0.5,0,0.9-0.1,1.1-0.1l0.6,3c-0.4,0.1-1.2,0.4-2.3,0.4
				c-2.9,0.1-5.1-1.4-5.1-4.5v-9.1h-2.3v-3h2.3v-3.9h3.9v3.9h3.2V40.5z"/>
			<path style="fill:#4B476D;" d="M560.1,53.9h-3.9V32.1h3.8v8.2h0.2c0.8-1.9,2.4-3,4.9-3c3.4,0,5.6,2.2,5.6,6.2v10.4h-3.9v-9.8
				c0-2.2-1.2-3.5-3.2-3.5c-2.1,0-3.5,1.4-3.5,3.7V53.9z"/>
			<path style="fill:#4B476D;" d="M573.9,49.3c0-3.7,3-4.6,6.2-5c2.9-0.3,4-0.4,4-1.5v-0.1c0-1.6-1-2.5-2.8-2.5c-1.9,0-3,1-3.4,2.1
				l-3.6-0.5c0.9-3,3.5-4.5,6.9-4.5c3.1,0,6.6,1.3,6.6,5.6v10.9h-3.7v-2.2h-0.1c-0.7,1.4-2.2,2.6-4.8,2.6
				C576.3,54.2,573.9,52.5,573.9,49.3z M584.2,48v-1.9c-0.5,0.4-2.5,0.7-3.5,0.8c-1.7,0.2-3,0.9-3,2.3c0,1.4,1.1,2.2,2.8,2.2
				C582.7,51.4,584.2,49.8,584.2,48z"/>
			<path style="fill:#4B476D;" d="M600.1,40.5h-3.2V49c0,1.6,0.8,1.9,1.7,1.9c0.5,0,0.9-0.1,1.1-0.1l0.6,3c-0.4,0.1-1.2,0.4-2.3,0.4
				c-2.9,0.1-5.1-1.4-5.1-4.5v-9.1h-2.3v-3h2.3v-3.9h3.9v3.9h3.2V40.5z"/>
			<path style="fill:#4B476D;" d="M620.2,42.2c-0.3-1.1-1.2-2-3-2c-1.6,0-2.8,0.8-2.8,1.9c0,0.9,0.6,1.5,2.3,1.9l2.8,0.6
				c3.1,0.7,4.6,2.1,4.6,4.4c0,3.1-2.9,5.2-7,5.2c-4,0-6.5-1.8-7-4.8l3.8-0.4c0.3,1.5,1.5,2.2,3.2,2.2c1.8,0,3-0.8,3-2
				c0-0.9-0.7-1.5-2.2-1.9l-2.8-0.6c-3.1-0.7-4.6-2.2-4.6-4.6c0-3,2.7-5,6.6-5c3.8,0,6,1.8,6.6,4.5L620.2,42.2z"/>
			<path style="fill:#4B476D;" d="M637.6,37.5h3.9v16.4h-3.7V51h-0.2c-0.7,1.8-2.5,3.1-4.9,3.1c-3.2,0-5.5-2.2-5.5-6.2V37.5h3.9v9.8
				c0,2.1,1.2,3.4,3.1,3.4c1.7,0,3.5-1.2,3.5-3.7V37.5z"/>
			<path style="fill:#4B476D;" d="M645.4,56.2l3.5-0.8c0.5,0.9,1.5,2,3.8,2c2.2,0,3.8-1,3.8-3.3v-3.1h-0.2c-0.6,1.2-1.9,2.7-4.7,2.7
				c-3.8,0-6.7-2.7-6.7-8c0-5.4,3-8.3,6.8-8.3c2.9,0,4.1,1.7,4.7,2.9h0.2v-2.7h3.8v16.6c0,4.1-3.3,6.1-7.7,6.1
				C648.4,60.3,646.1,58.5,645.4,56.2z M656.5,45.6c0-3.1-1.4-5.2-3.8-5.2c-2.6,0-3.9,2.2-3.9,5.2c0,3,1.3,5,3.9,5
				C655.1,50.6,656.5,48.8,656.5,45.6z"/>
			<path style="fill:#4B476D;" d="M664.1,56.2l3.5-0.8c0.5,0.9,1.5,2,3.8,2c2.2,0,3.8-1,3.8-3.3v-3.1H675c-0.6,1.2-1.9,2.7-4.7,2.7
				c-3.8,0-6.7-2.7-6.7-8c0-5.4,3-8.3,6.8-8.3c2.9,0,4.1,1.7,4.7,2.9h0.2v-2.7h3.8v16.6c0,4.1-3.3,6.1-7.7,6.1
				C667.2,60.3,664.8,58.5,664.1,56.2z M675.2,45.6c0-3.1-1.4-5.2-3.8-5.2c-2.6,0-3.9,2.2-3.9,5.2c0,3,1.3,5,3.9,5
				C673.8,50.6,675.2,48.8,675.2,45.6z"/>
			<path style="fill:#4B476D;" d="M682.3,45.8c0-5,3.1-8.5,7.7-8.5c4,0,7.5,2.5,7.5,8.3v1.2h-11.4c0,2.8,1.7,4.4,4.2,4.4
				c1.7,0,2.9-0.7,3.5-2.1l3.6,0.4c-0.7,2.8-3.3,4.7-7.1,4.7C685.3,54.2,682.3,50.9,682.3,45.8z M693.8,44.2c0-2.2-1.5-3.8-3.7-3.8
				c-2.3,0-3.8,1.8-4,3.8H693.8z"/>
			<path style="fill:#4B476D;" d="M710.2,42.2c-0.3-1.1-1.2-2-3-2c-1.6,0-2.8,0.8-2.8,1.9c0,0.9,0.6,1.5,2.3,1.9l2.8,0.6
				c3.1,0.7,4.6,2.1,4.6,4.4c0,3.1-2.9,5.2-7,5.2c-4,0-6.5-1.8-7-4.8l3.8-0.4c0.3,1.5,1.5,2.2,3.2,2.2c1.8,0,3-0.8,3-2
				c0-0.9-0.7-1.5-2.2-1.9l-2.8-0.6c-3.1-0.7-4.6-2.2-4.6-4.6c0-3,2.7-5,6.6-5c3.8,0,6,1.8,6.6,4.5L710.2,42.2z"/>
			<path style="fill:#4B476D;" d="M725.4,40.5h-3.2V49c0,1.6,0.8,1.9,1.7,1.9c0.5,0,0.9-0.1,1.1-0.1l0.6,3c-0.4,0.1-1.2,0.4-2.3,0.4
				c-2.9,0.1-5.1-1.4-5.1-4.5v-9.1H716v-3h2.3v-3.9h3.9v3.9h3.2V40.5z"/>
			<path style="fill:#4B476D;" d="M737.8,42.2c-0.3-1.1-1.2-2-3-2c-1.6,0-2.8,0.8-2.8,1.9c0,0.9,0.6,1.5,2.3,1.9l2.8,0.6
				c3.1,0.7,4.6,2.1,4.6,4.4c0,3.1-2.9,5.2-7,5.2c-4,0-6.5-1.8-7-4.8l3.8-0.4c0.3,1.5,1.5,2.2,3.2,2.2c1.8,0,3-0.8,3-2
				c0-0.9-0.7-1.5-2.2-1.9l-2.8-0.6c-3.1-0.7-4.6-2.2-4.6-4.6c0-3,2.7-5,6.6-5c3.8,0,6,1.8,6.6,4.5L737.8,42.2z"/>
			<path style="fill:#4B476D;" d="M751.5,49.3c0-3.7,3-4.6,6.2-5c2.9-0.3,4-0.4,4-1.5v-0.1c0-1.6-1-2.5-2.8-2.5c-1.9,0-3,1-3.4,2.1
				l-3.6-0.5c0.9-3,3.5-4.5,6.9-4.5c3.1,0,6.6,1.3,6.6,5.6v10.9H762v-2.2h-0.1c-0.7,1.4-2.2,2.6-4.8,2.6
				C753.9,54.2,751.5,52.5,751.5,49.3z M761.8,48v-1.9c-0.5,0.4-2.5,0.7-3.5,0.8c-1.7,0.2-3,0.9-3,2.3c0,1.4,1.1,2.2,2.8,2.2
				C760.3,51.4,761.8,49.8,761.8,48z"/>
			<path style="fill:#4B476D;" d="M785.4,40.5H782v13.4h-3.9V40.5h-2.4v-3h2.4V36c0-3.3,2.3-4.9,5.1-4.9c1.3,0,2.4,0.3,2.9,0.4
				l-0.8,3c-0.3-0.1-0.8-0.2-1.4-0.2c-1.4,0-2,0.7-2,2v1.3h3.4V40.5z"/>
			<path style="fill:#4B476D;" d="M788.1,33.1c0-1.2,1-2.1,2.2-2.1c1.2,0,2.2,0.9,2.2,2.1c0,1.2-1,2.1-2.2,2.1
				C789.1,35.2,788.1,34.3,788.1,33.1z M788.4,37.5h3.9v16.4h-3.9V37.5z"/>
			<path style="fill:#4B476D;" d="M802.7,43.6l3.4-6h4.1l-4.9,8.2l5,8.2h-4.1l-3.5-5.9l-3.4,5.9h-4.1l5-8.2l-4.9-8.2h4.1L802.7,43.6
				z"/>
		</g>
	</g>
</g>
<g>
	<polygon style="fill:#51DB9E;" points="1087.2,45 1076.7,38.9 1076.7,26.7 1087.3,32.8 	"/>
	<polygon style="fill:#7900F5;" points="1087.2,69.3 1076.7,63.3 1076.7,51.1 1087.2,57.2 	"/>
	<polygon style="fill:#94F2C8;" points="1097.7,38.9 1076.7,26.7 1087.2,20.7 1108.3,32.8 	"/>
	<polygon style="fill:#A475F4;" points="1087.2,57.2 1076.7,51.1 1087.2,45 1097.8,51.1 	"/>
	<g>
		<g>
			<path style="fill:#4B476D;" d="M1113.4,35.7h9.9V38h-7.1v4.2h6.4v2.3h-6.4v6.6h-2.8V35.7z"/>
			<path style="fill:#4B476D;" d="M1128.5,51.1h-2.7V35.7h2.7V51.1z"/>
			<path style="fill:#4B476D;" d="M1130.7,47.9c0-2.6,2.2-3.3,4.4-3.5c2-0.2,2.9-0.3,2.9-1v0c0-1.1-0.7-1.8-2-1.8
				c-1.3,0-2.1,0.7-2.4,1.5l-2.6-0.4c0.6-2.1,2.5-3.2,4.9-3.2c2.2,0,4.7,0.9,4.7,4v7.8h-2.6v-1.6h-0.1c-0.5,1-1.6,1.8-3.4,1.8
				C1132.4,51.3,1130.7,50.1,1130.7,47.9z M1138,47v-1.4c-0.4,0.3-1.8,0.5-2.5,0.6c-1.2,0.2-2.1,0.6-2.1,1.7c0,1,0.8,1.5,2,1.5
				C1136.9,49.3,1138,48.2,1138,47z"/>
			<path style="fill:#4B476D;" d="M1143.5,39.5h2.6v1.9h0.1c0.4-1.3,1.5-2.1,2.9-2.1c0.3,0,0.7,0,1,0.1v2.5
				c-0.2-0.1-0.8-0.2-1.3-0.2c-1.5,0-2.6,1-2.6,2.5v6.8h-2.7V39.5z"/>
			<path style="fill:#4B476D;" d="M1150.9,45.4c0-3.6,2.2-6,5.5-6c2.9,0,5.3,1.8,5.3,5.9v0.8h-8.1c0,2,1.2,3.1,3,3.1
				c1.2,0,2.1-0.5,2.5-1.5l2.5,0.3c-0.5,2-2.3,3.3-5,3.3C1153,51.3,1150.9,49,1150.9,45.4z M1159.1,44.2c0-1.6-1.1-2.7-2.6-2.7
				c-1.6,0-2.7,1.2-2.8,2.7H1159.1z"/>
		</g>
	</g>
</g>
<g>
	<path style="fill:#7900F5;" d="M862.3,51.2h-1.8V35.9h1.8v5.6h0.1c0.5-1.2,1.6-1.9,3.4-1.9c2.3,0,3.9,1.4,3.9,4.3v7.3H868v-7.2
		c0-1.8-1-2.9-2.7-2.9c-1.7,0-3,1.1-3,3.1V51.2z"/>
	<path style="fill:#7900F5;" d="M878,41.3h-2.4v6.7c0,1.5,0.7,1.7,1.5,1.7c0.4,0,0.6-0.1,0.8-0.1l0.4,1.6c-0.2,0.1-0.7,0.2-1.3,0.2
		c-1.5,0-3.1-1-3.1-3v-7.2H872v-1.5h1.7V37h1.8v2.7h2.4V41.3z"/>
	<path style="fill:#7900F5;" d="M885.6,41.3h-2.4v6.7c0,1.5,0.7,1.7,1.5,1.7c0.4,0,0.6-0.1,0.8-0.1l0.4,1.6
		c-0.2,0.1-0.7,0.2-1.3,0.2c-1.5,0-3.1-1-3.1-3v-7.2h-1.7v-1.5h1.7V37h1.8v2.7h2.4V41.3z"/>
	<path style="fill:#7900F5;" d="M888.3,39.8h1.7v1.8h0.2c0.4-0.6,1.1-2,3.3-2c2.9,0,4.9,2.3,4.9,5.9c0,3.6-2,5.9-4.9,5.9
		c-2.2,0-3-1.4-3.3-2H890v6.1h-1.8V39.8z M893.3,49.9c2.2,0,3.3-1.9,3.3-4.4c0-2.4-1.1-4.3-3.3-4.3c-2.1,0-3.3,1.7-3.3,4.3
		C890,48.1,891.2,49.9,893.3,49.9z"/>
	<path style="fill:#7900F5;" d="M907.6,42.8c-0.3-0.8-0.9-1.6-2.5-1.6c-1.4,0-2.4,0.7-2.4,1.7c0,0.9,0.6,1.3,2,1.7l1.7,0.4
		c2,0.5,3,1.5,3,3.1c0,2-1.8,3.4-4.5,3.4c-2.3,0-3.9-1-4.4-3l1.7-0.4c0.3,1.2,1.2,1.8,2.7,1.8c1.6,0,2.7-0.8,2.7-1.8
		c0-0.8-0.5-1.3-1.7-1.6l-1.9-0.4c-2.1-0.5-3-1.6-3-3.1c0-1.9,1.8-3.3,4.2-3.3c2.3,0,3.5,1.1,4.1,2.7L907.6,42.8z"/>
	<path style="fill:#7900F5;" d="M912,41.5c0-0.7,0.6-1.3,1.3-1.3c0.7,0,1.3,0.6,1.3,1.3c0,0.7-0.6,1.3-1.3,1.3
		C912.6,42.8,912,42.2,912,41.5z M912,50c0-0.7,0.6-1.3,1.3-1.3c0.7,0,1.3,0.6,1.3,1.3s-0.6,1.3-1.3,1.3C912.6,51.3,912,50.7,912,50
		z"/>
	<path style="fill:#7900F5;" d="M918.3,53.5h-1.6l4.9-18.3h1.6L918.3,53.5z"/>
	<path style="fill:#7900F5;" d="M925.8,53.5h-1.6l4.9-18.3h1.6L925.8,53.5z"/>
	<path style="fill:#7900F5;" d="M937.9,41.3h-2.6v10h-1.8v-10h-1.9v-1.5h1.9v-1.6c0-2,1.6-3,3.2-3c0.9,0,1.4,0.2,1.7,0.3L938,37
		c-0.2-0.1-0.5-0.2-1-0.2c-1.2,0-1.6,0.6-1.6,1.7v1.2h2.6V41.3z"/>
	<path style="fill:#7900F5;" d="M942.1,51.2h-1.8V35.9h1.8V51.2z"/>
	<path style="fill:#7900F5;" d="M944.8,48c0-2.6,2.3-3.1,4.4-3.4c2.1-0.3,3-0.2,3-1v-0.1c0-1.5-0.8-2.3-2.4-2.3
		c-1.7,0-2.6,0.9-3,1.7l-1.7-0.6c0.9-2.1,2.9-2.7,4.6-2.7c1.5,0,4.2,0.4,4.2,4.1v7.6h-1.8v-1.6h-0.1c-0.4,0.7-1.4,1.8-3.4,1.8
		C946.5,51.5,944.8,50.2,944.8,48z M952.2,47.1v-1.6c-0.3,0.4-2.3,0.6-3,0.7c-1.4,0.2-2.6,0.6-2.6,1.9c0,1.2,1,1.8,2.4,1.8
		C951.1,49.9,952.2,48.5,952.2,47.1z"/>
	<path style="fill:#7900F5;" d="M957.2,39.8h1.7v1.7h0.1c0.4-1.1,1.6-1.9,3-1.9c0.3,0,0.7,0,0.9,0v1.8c-0.1,0-0.6-0.1-1.1-0.1
		c-1.7,0-2.9,1.1-2.9,2.7v7.3h-1.8V39.8z"/>
	<path style="fill:#7900F5;" d="M964.1,45.6c0-3.5,2.1-6,5.2-6c2.4,0,4.9,1.5,4.9,5.7v0.7h-8.3c0.1,2.5,1.5,3.8,3.6,3.8
		c1.4,0,2.4-0.6,2.9-1.8l1.7,0.5c-0.5,1.7-2.2,2.9-4.6,2.9C966.1,51.5,964.1,49.1,964.1,45.6z M972.4,44.6c0-1.9-1.2-3.4-3.1-3.4
		c-2,0-3.3,1.6-3.4,3.4H972.4z"/>
	<path style="fill:#7900F5;" d="M976.3,48c0-2.6,2.3-3.1,4.4-3.4c2.1-0.3,3-0.2,3-1v-0.1c0-1.5-0.8-2.3-2.4-2.3
		c-1.7,0-2.6,0.9-3,1.7l-1.7-0.6c0.9-2.1,2.9-2.7,4.6-2.7c1.5,0,4.2,0.4,4.2,4.1v7.6h-1.8v-1.6h-0.1c-0.4,0.7-1.4,1.8-3.4,1.8
		C978.1,51.5,976.3,50.2,976.3,48z M983.7,47.1v-1.6c-0.3,0.4-2.3,0.6-3,0.7c-1.4,0.2-2.6,0.6-2.6,1.9c0,1.2,1,1.8,2.4,1.8
		C982.6,49.9,983.7,48.5,983.7,47.1z"/>
	<path style="fill:#7900F5;" d="M988.7,39.8h1.7v1.8h0.2c0.4-0.6,1.1-2,3.3-2c2.9,0,4.9,2.3,4.9,5.9c0,3.6-2,5.9-4.9,5.9
		c-2.2,0-3-1.4-3.3-2h-0.1v6.1h-1.8V39.8z M993.7,49.9c2.2,0,3.3-1.9,3.3-4.4c0-2.4-1.1-4.3-3.3-4.3c-2.1,0-3.3,1.7-3.3,4.3
		C990.5,48.1,991.6,49.9,993.7,49.9z"/>
	<path style="fill:#7900F5;" d="M1001.5,39.8h1.7v1.8h0.2c0.4-0.6,1.1-2,3.3-2c2.9,0,4.9,2.3,4.9,5.9c0,3.6-2,5.9-4.9,5.9
		c-2.2,0-3-1.4-3.3-2h-0.1v6.1h-1.8V39.8z M1006.5,49.9c2.2,0,3.3-1.9,3.3-4.4c0-2.4-1.1-4.3-3.3-4.3c-2.1,0-3.3,1.7-3.3,4.3
		C1003.2,48.1,1004.4,49.9,1006.5,49.9z"/>
	<path style="fill:#7900F5;" d="M1014.3,50c0-0.7,0.6-1.3,1.3-1.3c0.7,0,1.3,0.6,1.3,1.3s-0.6,1.3-1.3,1.3
		C1014.9,51.3,1014.3,50.7,1014.3,50z"/>
	<path style="fill:#7900F5;" d="M1019.7,36.7c0-0.7,0.6-1.2,1.3-1.2s1.3,0.5,1.3,1.2c0,0.7-0.6,1.2-1.3,1.2S1019.7,37.3,1019.7,36.7
		z M1020.1,39.8h1.8v11.5h-1.8V39.8z"/>
	<path style="fill:#7900F5;" d="M1024.5,45.5c0-3.6,2.1-5.9,5.2-5.9c3.1,0,5.2,2.4,5.2,5.9c0,3.6-2.1,5.9-5.2,5.9
		C1026.6,51.5,1024.5,49.1,1024.5,45.5z M1033.2,45.5c0-2.3-1.1-4.4-3.4-4.4c-2.4,0-3.4,2.1-3.4,4.4c0,2.3,1.1,4.3,3.4,4.3
		C1032.1,49.9,1033.2,47.8,1033.2,45.5z"/>
</g>
<g>
	<g>
		<g>
			<path style="fill:#4B476D;" d="M39.5,35.9l5.2,12.7h0.2l5.2-12.7h2.2v15.3h-1.7V39.6h-0.1l-4.8,11.6h-1.7l-4.8-11.6H39v11.6h-1.7
				V35.9H39.5z"/>
			<path style="fill:#4B476D;" d="M55.7,48c0-2.6,2.3-3.1,4.4-3.4c2.1-0.3,3-0.2,3-1v-0.1c0-1.5-0.8-2.3-2.4-2.3
				c-1.7,0-2.6,0.9-3,1.7L56,42.3c0.9-2.1,2.9-2.7,4.6-2.7c1.5,0,4.2,0.4,4.2,4.1v7.6h-1.8v-1.6H63c-0.4,0.7-1.4,1.8-3.4,1.8
				C57.4,51.5,55.7,50.2,55.7,48z M63.1,47.1v-1.6c-0.3,0.4-2.3,0.6-3,0.7c-1.4,0.2-2.6,0.6-2.6,1.9c0,1.2,1,1.9,2.4,1.9
				C61.9,49.9,63.1,48.5,63.1,47.1z"/>
			<path style="fill:#4B476D;" d="M67.5,45.5c0-3.6,2-5.9,4.9-5.9c2.2,0,2.9,1.4,3.3,2h0.1v-5.6h1.8v15.3h-1.7v-1.8h-0.2
				c-0.4,0.6-1.1,2-3.3,2C69.5,51.5,67.5,49.2,67.5,45.5z M75.9,45.5c0-2.6-1.1-4.3-3.3-4.3c-2.2,0-3.3,1.9-3.3,4.3
				c0,2.4,1.1,4.4,3.3,4.4C74.7,49.9,75.9,48.1,75.9,45.5z"/>
			<path style="fill:#4B476D;" d="M80.5,45.6c0-3.5,2.1-6,5.2-6c2.4,0,4.9,1.5,4.9,5.7v0.7h-8.3c0.1,2.5,1.5,3.8,3.6,3.8
				c1.4,0,2.4-0.6,2.9-1.8l1.7,0.5c-0.5,1.7-2.2,2.9-4.6,2.9C82.6,51.5,80.5,49.1,80.5,45.6z M88.8,44.6c0-1.9-1.2-3.4-3.1-3.4
				c-2,0-3.3,1.6-3.4,3.4H88.8z"/>
			<path style="fill:#4B476D;" d="M104.3,41.3h-2.6v10H100v-10h-1.9v-1.5h1.9v-1.6c0-2,1.6-3,3.2-3c0.9,0,1.4,0.2,1.7,0.3l-0.5,1.5
				c-0.2-0.1-0.5-0.2-1-0.2c-1.2,0-1.6,0.6-1.6,1.7v1.2h2.6V41.3z"/>
			<path style="fill:#4B476D;" d="M105.8,45.5c0-3.6,2.1-5.9,5.2-5.9c3.1,0,5.2,2.4,5.2,5.9c0,3.6-2.1,5.9-5.2,5.9
				C107.9,51.5,105.8,49.1,105.8,45.5z M114.4,45.5c0-2.3-1.1-4.4-3.4-4.4c-2.4,0-3.4,2.1-3.4,4.4s1.1,4.3,3.4,4.3
				C113.3,49.9,114.4,47.8,114.4,45.5z"/>
			<path style="fill:#4B476D;" d="M118.8,39.8h1.7v1.7h0.1c0.4-1.1,1.6-1.9,3-1.9c0.3,0,0.7,0,0.9,0v1.8c-0.1,0-0.6-0.1-1.1-0.1
				c-1.7,0-2.9,1.1-2.9,2.7v7.3h-1.8V39.8z"/>
		</g>
	</g>
	<path style="fill-rule:evenodd;clip-rule:evenodd;fill:#4B476D;" d="M179.7,31.7c0,0,0,0.1,0,0.3v10.6c0,0.3-0.1,0.5-0.4,0.7
		l-8.9,5v10c0,0.3-0.1,0.5-0.4,0.7l-18.5,10.6h-0.1l0,0c-0.1,0-0.3,0-0.4,0l0,0h-0.1l-18.5-10.6c-0.3-0.1-0.4-0.4-0.4-0.7V26.7
		c0-0.1,0-0.1,0-0.3l0,0v-0.1c0,0,0,0,0-0.1c0,0,0,0,0.1-0.1c0,0,0,0,0.1,0c0,0,0,0,0.1-0.1l0,0l9.3-5.3c0.3-0.1,0.5-0.1,0.8,0
		l9.3,5.3l0,0c0,0,0,0,0.1,0c0,0,0,0,0.1,0c0,0,0,0,0.1,0.1c0,0,0,0,0,0.1v0.1l0,0c0,0,0,0.1,0,0.3v19.7l7.7-4.4v-10
		c0-0.1,0-0.1,0-0.3l0,0v-0.1c0,0,0,0,0-0.1c0,0,0,0,0.1-0.1c0,0,0,0,0.1,0c0,0,0,0,0.1-0.1l0,0l9.3-5.3c0.3-0.1,0.5-0.1,0.8,0
		l9.3,5.3c0,0,0,0,0.1,0c0,0,0,0,0.1,0c0,0,0,0,0.1,0.1c0,0,0,0,0,0.1C179.7,31.6,179.7,31.6,179.7,31.7L179.7,31.7z M178.2,42v-8.7
		l-3.2,1.9l-4.5,2.5v8.7L178.2,42L178.2,42z M169,57.9v-8.7l-4.4,2.5l-12.6,7.1v8.9C152.1,67.5,169,57.9,169,57.9z M133.7,28v29.9
		l16.9,9.8v-8.9l-8.9-5l0,0l0,0c0,0,0,0-0.1,0c0,0,0,0-0.1,0l0,0c0,0,0,0,0-0.1c0,0,0,0,0-0.1l0,0c0,0,0,0,0-0.1c0,0,0,0,0-0.1l0,0
		v-0.1c0,0,0,0,0-0.1l0,0V32.5L137,30L133.7,28L133.7,28z M142.2,22.3l-7.7,4.4l7.7,4.4l7.7-4.4L142.2,22.3L142.2,22.3z M146.1,49.8
		l4.5-2.5V28l-3.2,1.9l-4.5,2.5v19.3C142.8,51.7,146.1,49.8,146.1,49.8z M169.8,27.5l-7.7,4.4l7.7,4.4l7.7-4.4L169.8,27.5z
		 M169,37.6l-4.5-2.5l-3.2-1.9V42l4.5,2.5l3.2,1.9V37.6z M151.3,57.3l11.2-6.5l5.7-3.2l-7.7-4.4l-8.9,5.2l-8.1,4.6
		C143.6,53,151.3,57.3,151.3,57.3z"/>
</g>
</svg>
