<svg version="1.1" id="Flare" xmlns="http://www.w3.org/2000/svg" x="0" y="0" viewBox="0 0 300 250" xml:space="preserve"><style>.st0{fill:#fff}.st2{fill:#7900f5}.st3{fill:#4b476d}</style><path class="st0" d="M0 .5h300v250H0z"/><path fill="#f6edfe" d="M300 .7L38 152l170.3 98.5H300z"/><path class="st0" d="M15.6 157.7"/><path class="st2" d="M155 195.2h112v34H155z"/><path class="st3" d="M32.4 98.9h12.9v2.2h-5.2v14.5h-2.5V101h-5.2v-2.1zM50.3 115.5h-2.4V98.9h2.4v6.2h.2c.6-1.4 1.8-2.2 3.7-2.2 2.6 0 4.3 1.6 4.3 4.7v7.9H56v-7.7c0-1.8-1-2.9-2.7-2.9-1.7 0-3 1.1-3 3.1v7.5zM61.1 109.4c0-3.8 2.3-6.5 5.8-6.5 2.8 0 5.5 1.8 5.5 6.3v.9h-8.9c.1 2.4 1.5 3.8 3.5 3.8 1.4 0 2.4-.6 2.9-1.8l2.3.4c-.6 2-2.5 3.4-5.2 3.4-3.6-.1-5.9-2.7-5.9-6.5zm8.9-1.2c0-1.9-1.2-3.3-3.1-3.3-2 0-3.3 1.5-3.4 3.3H70zM80.6 109.3c0-3.9 2.3-6.5 5.8-6.5s5.8 2.6 5.8 6.5-2.3 6.4-5.8 6.4-5.8-2.5-5.8-6.4zm9.2 0c0-2.4-1.1-4.4-3.4-4.4s-3.4 2-3.4 4.4c0 2.4 1.1 4.4 3.4 4.4s3.4-2 3.4-4.4zM97.4 115.5H95V103h2.3v2h.2c.6-1.3 1.8-2.2 3.7-2.2 2.6 0 4.3 1.6 4.3 4.7v7.9H103v-7.7c0-1.8-1-2.9-2.7-2.9-1.7 0-2.9 1.1-2.9 3.1v7.6zM111.1 115.5h-2.4V98.9h2.4v16.6zM114.2 119.9l.6-2c1.3.4 2.2.2 2.8-1.4l.3-.8-4.6-12.7h2.6l3.2 9.7h.1l3.2-9.7h2.6l-5.2 14.1c-.7 1.9-2 3-4 3-.7.1-1.3-.1-1.6-.2zM132.8 109.4c0-3.8 2.3-6.5 5.8-6.5 2.8 0 5.5 1.8 5.5 6.3v.9h-8.9c.1 2.4 1.5 3.8 3.5 3.8 1.4 0 2.4-.6 2.9-1.8l2.3.4c-.6 2-2.5 3.4-5.2 3.4-3.6-.1-5.9-2.7-5.9-6.5zm8.9-1.2c0-1.9-1.2-3.3-3.1-3.3-2 0-3.3 1.5-3.4 3.3h6.5zM146.8 103h2.4v2h.1c.5-1.3 1.7-2.2 3.2-2.2.3 0 .8 0 1 .1v2.3c-.2-.1-.8-.1-1.3-.1-1.7 0-3 1.2-3 2.8v7.6h-2.4V103zM155.6 103h2.4v2h.1c.5-1.3 1.7-2.2 3.2-2.2.3 0 .8 0 1 .1v2.3c-.2-.1-.8-.1-1.3-.1-1.7 0-3 1.2-3 2.8v7.6h-2.4V103zM163.4 109.3c0-3.9 2.3-6.5 5.8-6.5s5.8 2.6 5.8 6.5-2.3 6.4-5.8 6.4-5.8-2.5-5.8-6.4zm9.2 0c0-2.4-1.1-4.4-3.4-4.4s-3.4 2-3.4 4.4c0 2.4 1.1 4.4 3.4 4.4s3.4-2 3.4-4.4zM177.7 103h2.4v2h.1c.5-1.3 1.7-2.2 3.2-2.2.3 0 .8 0 1 .1v2.3c-.2-.1-.8-.1-1.3-.1-1.7 0-3 1.2-3 2.8v7.6h-2.4V103zM198.4 105h-2.6v6.9c0 1.4.7 1.7 1.5 1.7.4 0 .7-.1.9-.1l.4 2c-.3.1-.8.3-1.6.3-1.9 0-3.7-1.1-3.6-3.3V105h-1.8v-2h1.8v-3h2.4v3h2.6v2zM201.1 103h2.4v2h.1c.5-1.3 1.7-2.2 3.2-2.2.3 0 .8 0 1 .1v2.3c-.2-.1-.8-.1-1.3-.1-1.7 0-3 1.2-3 2.8v7.6h-2.4V103zM209.2 112c0-2.8 2.4-3.5 4.8-3.7 2.2-.3 3.2-.2 3.2-1.1v-.1c0-1.4-.8-2.2-2.4-2.2-1.6 0-2.5.9-2.9 1.7l-2.3-.5c.8-2.3 2.9-3.2 5.2-3.2 2 0 4.8.7 4.8 4.4v8.3h-2.4v-1.7h-.1c-.5.9-1.6 2-3.7 2-2.4-.1-4.2-1.4-4.2-3.9zm8-1v-1.6c-.3.3-2.2.6-3 .7-1.4.2-2.6.7-2.6 2 0 1.2 1 1.8 2.4 1.8 2 0 3.2-1.4 3.2-2.9zM222.2 109.3c0-3.8 2.3-6.5 5.8-6.5 2.8 0 4.9 1.7 5.2 4.2h-2.4c-.3-1.2-1.2-2.1-2.7-2.1-2 0-3.4 1.7-3.4 4.4s1.3 4.4 3.4 4.4c1.4 0 2.4-.8 2.7-2.1h2.4c-.3 2.4-2.2 4.2-5.1 4.2-3.7 0-5.9-2.7-5.9-6.5zM235.8 98.9h2.4v9.5h.2l5-5.3h2.9l-5.1 5.4 5.4 7.1h-3l-4.2-5.6-1.2 1.2v4.4h-2.4V98.9zM247.5 109.4c0-3.8 2.3-6.5 5.8-6.5 2.8 0 5.5 1.8 5.5 6.3v.9h-8.9c.1 2.4 1.5 3.8 3.5 3.8 1.4 0 2.4-.6 2.9-1.8l2.3.4c-.6 2-2.5 3.4-5.2 3.4-3.7-.1-5.9-2.7-5.9-6.5zm8.9-1.2c0-1.9-1.2-3.3-3.1-3.3-2 0-3.3 1.5-3.4 3.3h6.5zM261.5 103h2.4v2h.1c.5-1.3 1.7-2.2 3.2-2.2.3 0 .8 0 1 .1v2.3c-.2-.1-.8-.1-1.3-.1-1.7 0-3 1.2-3 2.8v7.6h-2.4V103zM55.9 138.5h-2.6v6.9c0 1.4.7 1.7 1.5 1.7.4 0 .7-.1.9-.1l.4 2c-.3.1-.8.3-1.6.3-1.9 0-3.7-1.1-3.6-3.3v-7.4h-1.8v-2h1.8v-3h2.4v3h2.6v1.9zM61.3 149h-2.4v-16.7h2.4v6.2h.2c.6-1.4 1.8-2.2 3.7-2.2 2.6 0 4.3 1.6 4.3 4.7v7.9H67v-7.7c0-1.8-1-2.9-2.7-2.9-1.7 0-3 1.1-3 3.1v7.6zM72 145.5c0-2.8 2.4-3.5 4.8-3.7 2.2-.3 3.2-.2 3.2-1.1v-.1c0-1.4-.8-2.2-2.4-2.2-1.6 0-2.5.9-2.9 1.7l-2.3-.5c.8-2.3 2.9-3.2 5.2-3.2 2 0 4.8.7 4.8 4.4v8.3H80v-1.7c-.5.9-1.6 2-3.7 2-2.4-.1-4.3-1.4-4.3-3.9zm8-1v-1.6c-.3.3-2.2.6-3 .7-1.4.2-2.6.7-2.6 2 0 1.2 1 1.8 2.4 1.8 2 0 3.2-1.4 3.2-2.9zM91.5 138.5h-2.6v6.9c0 1.4.7 1.7 1.5 1.7.4 0 .7-.1.9-.1l.4 2c-.3.1-.8.3-1.6.3-1.9 0-3.7-1.1-3.6-3.3v-7.4h-1.8v-2h1.8v-3h2.4v3h2.6v1.9zM107.4 140c-.3-.8-1-1.7-2.5-1.7-1.4 0-2.4.7-2.4 1.6 0 .8.6 1.3 2 1.6l2 .5c2.3.5 3.4 1.6 3.4 3.4 0 2.3-2.1 3.9-5.1 3.9-2.8 0-4.6-1.2-5-3.5l2.3-.4c.3 1.2 1.2 1.9 2.7 1.9 1.6 0 2.6-.8 2.6-1.7 0-.8-.6-1.3-1.8-1.6l-2.1-.5c-2.3-.5-3.4-1.7-3.4-3.5 0-2.2 2-3.7 4.8-3.7 2.7 0 4.2 1.3 4.7 3.2l-2.2.5zM120.4 136.5h2.4V149h-2.4v-2.2h-.1c-.6 1.3-1.9 2.3-3.7 2.3-2.4 0-4.1-1.6-4.1-4.7v-7.9h2.4v7.7c0 1.7 1 2.8 2.5 2.8 1.4 0 2.9-1 2.9-3.1v-7.4zM126 151.1l2.1-.9c.4.7 1.2 1.7 3.2 1.7 1.8 0 3.2-.9 3.2-2.8v-2.5h-.2c-.4.8-1.3 2.1-3.6 2.1-3 0-5.2-2.1-5.2-6.1 0-4 2.2-6.4 5.2-6.4 2.3 0 3.2 1.4 3.6 2.2h.2v-2h2.4v12.8c0 3.2-2.5 4.6-5.6 4.6-2.9.1-4.6-1.2-5.3-2.7zm8.6-8.4c0-2.5-1.1-4.3-3.3-4.3-2.2 0-3.3 1.9-3.3 4.3 0 2.5 1.1 4.1 3.3 4.1 2.1 0 3.3-1.5 3.3-4.1zM140.2 151.1l2.1-.9c.4.7 1.2 1.7 3.2 1.7 1.8 0 3.2-.9 3.2-2.8v-2.5h-.2c-.4.8-1.3 2.1-3.6 2.1-3 0-5.2-2.1-5.2-6.1 0-4 2.2-6.4 5.2-6.4 2.3 0 3.2 1.4 3.6 2.2h.2v-2h2.4v12.8c0 3.2-2.5 4.6-5.6 4.6-3 .1-4.7-1.2-5.3-2.7zm8.5-8.4c0-2.5-1.1-4.3-3.3-4.3-2.2 0-3.3 1.9-3.3 4.3 0 2.5 1.1 4.1 3.3 4.1 2.1 0 3.3-1.5 3.3-4.1zM153.8 142.9c0-3.8 2.3-6.5 5.8-6.5 2.8 0 5.5 1.8 5.5 6.3v.9h-8.9c.1 2.4 1.5 3.8 3.5 3.8 1.4 0 2.4-.6 2.9-1.8l2.3.4c-.6 2-2.5 3.4-5.2 3.4-3.7-.1-5.9-2.7-5.9-6.5zm8.9-1.2c0-1.9-1.2-3.3-3.1-3.3-2 0-3.3 1.5-3.4 3.3h6.5zM174.9 140c-.3-.8-1-1.7-2.5-1.7-1.4 0-2.4.7-2.4 1.6 0 .8.6 1.3 2 1.6l2 .5c2.3.5 3.4 1.6 3.4 3.4 0 2.3-2.1 3.9-5.1 3.9-2.8 0-4.6-1.2-5-3.5l2.3-.4c.3 1.2 1.2 1.9 2.7 1.9 1.6 0 2.6-.8 2.6-1.7 0-.8-.6-1.3-1.8-1.6l-2.1-.5c-2.3-.5-3.4-1.7-3.4-3.5 0-2.2 2-3.7 4.8-3.7 2.7 0 4.2 1.3 4.7 3.2l-2.2.5zM185.9 138.5h-2.6v6.9c0 1.4.7 1.7 1.5 1.7.4 0 .7-.1.9-.1l.4 2c-.3.1-.8.3-1.6.3-1.9 0-3.7-1.1-3.6-3.3v-7.4h-1.8v-2h1.8v-3h2.4v3h2.6v1.9zM195.5 140c-.3-.8-1-1.7-2.5-1.7-1.4 0-2.4.7-2.4 1.6 0 .8.6 1.3 2 1.6l2 .5c2.3.5 3.4 1.6 3.4 3.4 0 2.3-2.1 3.9-5.1 3.9-2.8 0-4.6-1.2-5-3.5l2.3-.4c.3 1.2 1.2 1.9 2.7 1.9 1.6 0 2.6-.8 2.6-1.7 0-.8-.6-1.3-1.8-1.6l-2.1-.5c-2.3-.5-3.4-1.7-3.4-3.5 0-2.2 2-3.7 4.8-3.7 2.7 0 4.2 1.3 4.7 3.2l-2.2.5zM205.5 145.5c0-2.8 2.2-3.6 4.7-3.8 2.2-.2 3-.3 3-1.1 0-1-.7-1.6-1.9-1.6s-2 .6-2.2 1.4l-3.2-.3c.5-2.3 2.4-3.7 5.4-3.7 2.8 0 5.3 1.3 5.3 4.2v8.4h-3.3v-1.7h-.1c-.6 1.2-1.8 2-3.7 2-2.3 0-4-1.3-4-3.8zm7.7-.9v-1.3c-.4.3-1.7.5-2.4.6-1.2.2-2 .7-2 1.6 0 1 .8 1.4 1.8 1.4 1.5 0 2.6-1 2.6-2.3zM231.5 139.1H229v9.9h-3.5v-9.9h-1.8v-2.6h1.8v-.9c0-2.7 1.7-4 4.1-4 1.1 0 2 .2 2.4.3l-.6 2.6c-.3-.1-.7-.2-1.1-.2-1 0-1.4.5-1.4 1.3v.8h2.5v2.7zM233.4 133.2c0-1 .8-1.7 1.9-1.7 1 0 1.9.8 1.9 1.7 0 1-.8 1.8-1.9 1.8-1-.1-1.9-.9-1.9-1.8zm.2 3.3h3.5V149h-3.5v-12.5zM245 140.9l2.4-4.4h3.6l-3.6 6.2 3.7 6.2h-3.5l-2.5-4.3-2.4 4.3H239l3.7-6.2-3.6-6.2h3.6l2.3 4.4z"/><path fill="#51db9e" d="M128.7 42.5l-8.9-5.1V27.1l8.9 5.1z"/><path class="st2" d="M128.7 63.1l-8.9-5.2V47.6l8.9 5.2z"/><path fill="#94f2c8" d="M137.6 37.3l-17.8-10.2 8.9-5.2 17.8 10.3z"/><path fill="#a475f4" d="M128.7 52.8l-8.9-5.2 8.9-5.1 8.9 5.1z"/><path class="st3" d="M150.8 34.6h8.4v2h-6v3.5h5.4v2h-5.4v5.5h-2.4v-13zM163.5 47.7h-2.3V34.6h2.3v13.1zM165.4 44.9c0-2.2 1.8-2.8 3.7-3 1.7-.2 2.4-.2 2.4-.9 0-1-.6-1.5-1.7-1.5s-1.8.6-2 1.2l-2.2-.3c.5-1.8 2.1-2.7 4.1-2.7 1.9 0 4 .8 4 3.4v6.6h-2.2v-1.3h-.1c-.4.8-1.3 1.5-2.9 1.5-1.7 0-3.1-1.1-3.1-3zm6.2-.8V43c-.3.2-1.5.4-2.1.5-1 .1-1.8.5-1.8 1.4 0 .8.7 1.3 1.7 1.3 1.3 0 2.2-1 2.2-2.1zM176.2 37.9h2.2v1.6h.1c.4-1.1 1.3-1.8 2.4-1.8.3 0 .6 0 .8.1v2.1c-.2-.1-.7-.1-1.1-.1-1.3 0-2.2.9-2.2 2.1v5.8h-2.3v-9.8zM182.5 42.8c0-3 1.8-5.1 4.6-5.1 2.4 0 4.5 1.5 4.5 4.9v.7h-6.8c0 1.7 1 2.7 2.5 2.7 1 0 1.8-.4 2.1-1.3l2.2.2c-.4 1.7-2 2.8-4.3 2.8-3 .2-4.8-1.8-4.8-4.9zm6.9-1c0-1.3-.9-2.3-2.2-2.3-1.4 0-2.3 1.1-2.4 2.3h4.6z"/><g><path class="st3" d="M32.8 206.4l3.5 8.5h.1l3.5-8.5h1.5v10.2h-1.2v-7.7H40l-3.2 7.7h-1.1l-3.2-7.7h-.1v7.7h-1.2v-10.2h1.6zM43.5 214.4c0-1.8 1.5-2.1 3-2.2 1.4-.2 2-.1 2-.7 0-1-.5-1.6-1.6-1.6s-1.7.6-2 1.2l-1.1-.4c.6-1.4 1.9-1.8 3.1-1.8 1 0 2.8.3 2.8 2.7v5h-1.2v-1h-.1c-.2.5-.9 1.2-2.3 1.2s-2.6-.9-2.6-2.4zm5-.6v-1.1c-.2.2-1.5.4-2 .4-.9.1-1.7.4-1.7 1.3 0 .8.7 1.2 1.6 1.2 1.3.1 2.1-.8 2.1-1.8zM51.4 212.8c0-2.4 1.3-3.9 3.3-3.9 1.5 0 2 .9 2.2 1.3h.1v-3.8h1.2v10.2H57v-1.2h-.1c-.3.4-.8 1.3-2.2 1.3-1.9 0-3.3-1.5-3.3-3.9zm5.6 0c0-1.7-.8-2.9-2.2-2.9-1.5 0-2.2 1.3-2.2 2.9 0 1.6.8 2.9 2.2 2.9 1.4 0 2.2-1.2 2.2-2.9zM60.1 212.8c0-2.3 1.4-4 3.4-4 1.6 0 3.3 1 3.3 3.8v.5h-5.5c.1 1.6 1 2.5 2.4 2.5.9 0 1.6-.4 1.9-1.2l1.1.3c-.4 1.2-1.5 1.9-3 1.9-2.2.1-3.6-1.4-3.6-3.8zm5.6-.7c0-1.3-.8-2.2-2.1-2.2s-2.2 1.1-2.3 2.2h4.4zM76 209.9h-1.7v6.6h-1.2v-6.6h-1.2v-1h1.2v-1.1c0-1.3 1.1-2 2.1-2 .6 0 .9.1 1.1.2l-.3 1c-.1 0-.3-.1-.7-.1-.8 0-1.1.4-1.1 1.2v.8H76v1zM76.9 212.8c0-2.4 1.4-4 3.5-4s3.5 1.6 3.5 4-1.4 3.9-3.5 3.9-3.5-1.5-3.5-3.9zm5.8 0c0-1.5-.7-2.9-2.3-2.9-1.6 0-2.3 1.4-2.3 2.9s.7 2.9 2.3 2.9c1.6 0 2.3-1.4 2.3-2.9zM85.7 208.9h1.1v1.2h.1c.3-.8 1.1-1.3 2-1.3h.6v1.2c-.1 0-.4-.1-.7-.1-1.1 0-1.9.8-1.9 1.8v4.8h-1.2v-7.6z"/></g><path d="M117.2 205.3v5.3c0 .1-.1.3-.2.3l-4.3 2.5v4.9c0 .1-.1.3-.2.3l-9 5.2h-.4l-9-5.2c-.1-.1-.2-.2-.2-.3v-15.4-.2-.1l.1-.1h.1l.1-.1 4.5-2.6c.1-.1.3-.1.4 0l4.5 2.6h.2l.1.1v9.9l3.7-2.1v-4.9-.2-.1l.1-.1h.1l.1-.1 4.5-2.6c.1-.1.3-.1.4 0l4.5 2.6h.2l.1.1v.1c-.4.1-.4.1-.4.2zm-.8 5V206l-1.5.9-2.2 1.2v4.3l3.7-2.1zm-4.5 7.8v-4.3l-2.1 1.2-6.1 3.5v4.3l8.2-4.7zm-17.2-14.6v14.6l8.3 4.8v-4.3l-4.3-2.5h-.1-.1v-.1-.1-.1-.2-10.1l-2.2-1.2-1.6-.8zm4.1-2.8l-3.7 2.1 3.7 2.1 3.7-2.1-3.7-2.1zm2 13.4l2.2-1.2v-9.4l-1.5.9-2.2 1.2v9.4c-.1.1 1.5-.9 1.5-.9zm11.5-10.9l-3.7 2.1 3.7 2.1 3.7-2.1-3.7-2.1zm-.4 5l-2.2-1.2-1.5-.9v4.3l2.2 1.2 1.5.9v-4.3zm-8.6 9.6l5.5-3.2 2.8-1.5-3.7-2.1-4.3 2.5-3.9 2.3c-.2-.1 3.6 2 3.6 2z" fill-rule="evenodd" clip-rule="evenodd" fill="#4b476d"/><g><path class="st0" d="M173.7 206.5h1.8v8.6h4.5v1.5h-6.3v-10.1zM181.2 212.9c0-2.4 1.4-4 3.6-4 1.9 0 3.5 1.2 3.5 3.9v.6H183c0 1.3.8 2.1 2 2.1.8 0 1.4-.3 1.6-1l1.7.2c-.3 1.3-1.5 2.2-3.3 2.2-2.3 0-3.8-1.6-3.8-4zm5.4-.7c0-1-.7-1.8-1.7-1.8-1.1 0-1.8.8-1.9 1.8h3.6zM189.5 214.6c0-1.7 1.4-2.2 2.9-2.3 1.3-.1 1.9-.2 1.9-.7 0-.8-.5-1.2-1.3-1.2-.9 0-1.4.4-1.6 1l-1.7-.2c.4-1.4 1.6-2.1 3.2-2.1 1.5 0 3.1.6 3.1 2.6v5.1h-1.7v-1h-.1c-.3.6-1 1.2-2.2 1.2-1.4-.1-2.5-.9-2.5-2.4zm4.8-.6v-.9c-.2.2-1.2.3-1.7.4-.8.1-1.4.4-1.4 1.1 0 .7.5 1 1.3 1 1.1-.1 1.8-.8 1.8-1.6zM197.9 209.1h1.7v1.3h.1c.3-.9 1-1.4 1.9-1.4h.6v1.7c-.2 0-.5-.1-.8-.1-1 0-1.7.7-1.7 1.7v4.5h-1.8v-7.7zM205.3 216.7h-1.8v-7.6h1.7v1.3h.1c.3-.9 1.1-1.4 2.3-1.4 1.6 0 2.6 1 2.6 2.9v4.9h-1.8v-4.6c0-1-.6-1.6-1.5-1.6-1 0-1.6.6-1.6 1.7v4.4zM215.5 209.1h1.7v1.3h.1c.3-.9 1.1-1.4 2.1-1.4s1.8.5 2.1 1.4h.1c.3-.9 1.2-1.4 2.3-1.4 1.4 0 2.4.9 2.4 2.6v5.1h-1.8v-4.8c0-.9-.6-1.4-1.3-1.4-.9 0-1.4.6-1.4 1.5v4.8H220v-4.9c0-.8-.5-1.3-1.3-1.3s-1.4.6-1.4 1.6v4.6h-1.8v-7.7zM227.7 212.9c0-2.4 1.4-4 3.7-4s3.7 1.6 3.7 4-1.4 3.9-3.7 3.9-3.7-1.5-3.7-3.9zm5.5 0c0-1.4-.6-2.5-1.8-2.5-1.2 0-1.8 1.1-1.8 2.5s.6 2.5 1.8 2.5c1.2 0 1.8-1.1 1.8-2.5zM236.6 209.1h1.7v1.3h.1c.3-.9 1-1.4 1.9-1.4h.6v1.7c-.2 0-.5-.1-.8-.1-1 0-1.7.7-1.7 1.7v4.5h-1.8v-7.7zM241.5 212.9c0-2.4 1.4-4 3.6-4 1.9 0 3.5 1.2 3.5 3.9v.6h-5.3c0 1.3.8 2.1 2 2.1.8 0 1.4-.3 1.6-1l1.7.2c-.3 1.3-1.5 2.2-3.3 2.2-2.4 0-3.8-1.6-3.8-4zm5.4-.7c0-1-.7-1.8-1.7-1.8-1.1 0-1.8.8-1.9 1.8h3.6z"/></g></svg>