<svg version="1.1" id="Flare" xmlns="http://www.w3.org/2000/svg" x="0" y="0" viewBox="0 0 1200 90" xml:space="preserve"><style>.st1{fill:#271040}.st2{fill:#fff}.st3{fill:#51db9e}</style><path fill="#321352" d="M1200 .5v90H0V.5"/><path class="st1" d="M582.4.5l-75.7 44.1 78.5 45.9h472.6l78.9-45.9L1061 .5"/><path class="st2" d="M154.2 31.7h18v3H165V55h-3.5V34.7h-7.3v-3zM179.3 55h-3.4V31.7h3.4v8.7h.2c.8-1.9 2.5-3.1 5.2-3.1 3.6 0 6 2.2 6 6.6V55h-3.4V44.3c0-2.6-1.4-4-3.7-4-2.4 0-4.2 1.6-4.2 4.4V55zM194.4 46.3c0-5.4 3.2-9.1 8.1-9.1 4 0 7.7 2.5 7.7 8.8v1.2h-12.4c.1 3.4 2 5.3 5 5.3 1.9 0 3.4-.8 4-2.5l3.2.6c-.8 2.8-3.5 4.7-7.3 4.7-5.1 0-8.3-3.5-8.3-9zm12.5-1.6c0-2.7-1.7-4.6-4.4-4.6-2.8 0-4.6 2.1-4.7 4.6h9.1zM221.7 46.3c0-5.4 3.2-9 8.1-9 4.9 0 8.1 3.6 8.1 9s-3.2 9-8.1 9c-4.9 0-8.1-3.6-8.1-9zm12.8 0c0-3.3-1.5-6.2-4.7-6.2s-4.7 2.8-4.7 6.2c0 3.4 1.5 6.2 4.7 6.2s4.7-2.8 4.7-6.2zM245.1 55h-3.4V37.5h3.3v2.8h.2c.8-1.9 2.5-3.1 5.1-3.1 3.6 0 5.9 2.3 5.9 6.6V55h-3.4V44.3c0-2.5-1.4-4-3.7-4-2.4 0-4.1 1.6-4.1 4.4V55zM264.2 55h-3.4V31.7h3.4V55zM268.6 61.1l.8-2.8c1.9.5 3.1.3 3.9-2l.4-1.2-6.4-17.7h3.6l4.4 13.6h.2l4.4-13.6h3.7l-7.2 19.8c-1 2.7-2.8 4.2-5.6 4.2-.9.1-1.8-.1-2.2-.3zM294.6 46.3c0-5.4 3.2-9.1 8.1-9.1 4 0 7.7 2.5 7.7 8.8v1.2H298c.1 3.4 2 5.3 5 5.3 1.9 0 3.4-.8 4-2.5l3.2.6c-.8 2.8-3.5 4.7-7.3 4.7-5.1 0-8.3-3.5-8.3-9zm12.5-1.6c0-2.7-1.7-4.6-4.4-4.6-2.8 0-4.6 2.1-4.7 4.6h9.1zM314.2 37.5h3.3v2.8h.2c.6-1.9 2.4-3 4.4-3 .4 0 1.1 0 1.4.1v3.3c-.3-.1-1.1-.2-1.8-.2-2.4 0-4.2 1.6-4.2 3.9V55h-3.4V37.5zM326.5 37.5h3.3v2.8h.2c.6-1.9 2.4-3 4.4-3 .4 0 1.1 0 1.4.1v3.3c-.3-.1-1.1-.2-1.8-.2-2.4 0-4.2 1.6-4.2 3.9V55h-3.4V37.5zM337.4 46.3c0-5.4 3.2-9 8.1-9 4.9 0 8.1 3.6 8.1 9s-3.2 9-8.1 9c-4.9 0-8.1-3.6-8.1-9zm12.8 0c0-3.3-1.5-6.2-4.7-6.2s-4.7 2.8-4.7 6.2c0 3.4 1.5 6.2 4.7 6.2s4.7-2.8 4.7-6.2zM357.4 37.5h3.3v2.8h.2c.6-1.9 2.4-3 4.4-3 .4 0 1.1 0 1.4.1v3.3c-.3-.1-1.1-.2-1.8-.2-2.4 0-4.2 1.6-4.2 3.9V55h-3.4V37.5zM386.4 40.2h-3.6v9.6c0 2 1 2.3 2.1 2.3.5 0 1-.1 1.2-.1l.6 2.8c-.4.1-1.1.4-2.2.4-2.7.1-5.1-1.5-5.1-4.6V40.2h-2.6v-2.7h2.6v-4.2h3.4v4.2h3.6v2.7zM390.1 37.5h3.3v2.8h.2c.6-1.9 2.4-3 4.4-3 .4 0 1.1 0 1.4.1v3.3c-.3-.1-1.1-.2-1.8-.2-2.4 0-4.2 1.6-4.2 3.9V55H390V37.5zM401.4 50c0-4 3.4-4.8 6.7-5.2 3.1-.4 4.4-.3 4.4-1.6v-.1c0-2-1.1-3.1-3.3-3.1-2.3 0-3.6 1.2-4.1 2.4l-3.2-.7c1.1-3.2 4-4.5 7.2-4.5 2.8 0 6.8 1 6.8 6.1V55h-3.3v-2.4h-.1c-.6 1.3-2.3 2.8-5.2 2.8-3.3 0-5.9-1.9-5.9-5.4zm11.2-1.3v-2.3c-.5.5-3.1.8-4.2.9-2 .3-3.6.9-3.6 2.7 0 1.7 1.4 2.5 3.3 2.5 2.8.1 4.5-1.8 4.5-3.8zM419.7 46.3c0-5.3 3.2-9 8.1-9 4 0 6.8 2.3 7.2 5.9h-3.3c-.4-1.6-1.7-3-3.8-3-2.8 0-4.7 2.4-4.7 6.1 0 3.8 1.9 6.2 4.7 6.2 1.9 0 3.4-1.1 3.8-3h3.3c-.4 3.4-3 5.9-7.2 5.9-5-.1-8.1-3.8-8.1-9.1zM438.6 31.7h3.4v13.2h.3l7-7.4h4.1l-7.1 7.5 7.5 10h-4.2l-5.9-7.9-1.7 1.7V55h-3.4V31.7zM454.9 46.3c0-5.4 3.2-9.1 8.1-9.1 4 0 7.7 2.5 7.7 8.8v1.2h-12.4c.1 3.4 2 5.3 5 5.3 1.9 0 3.4-.8 4-2.5l3.2.6c-.8 2.8-3.5 4.7-7.3 4.7-5.1 0-8.3-3.5-8.3-9zm12.5-1.6c0-2.7-1.7-4.6-4.4-4.6-2.8 0-4.6 2.1-4.7 4.6h9.1zM474.5 37.5h3.3v2.8h.2c.6-1.9 2.4-3 4.4-3 .4 0 1.1 0 1.4.1v3.3c-.3-.1-1.1-.2-1.8-.2-2.4 0-4.2 1.6-4.2 3.9V55h-3.4V37.5zM503.4 40.2h-3.6v9.6c0 2 1 2.3 2.1 2.3.5 0 1-.1 1.2-.1l.6 2.8c-.4.1-1.1.4-2.2.4-2.7.1-5.1-1.5-5.1-4.6V40.2h-2.6v-2.7h2.6v-4.2h3.4v4.2h3.6v2.7zM510.9 55h-3.4V31.7h3.4v8.7h.2c.8-1.9 2.5-3.1 5.2-3.1 3.6 0 6 2.2 6 6.6V55h-3.4V44.3c0-2.6-1.4-4-3.7-4-2.4 0-4.2 1.6-4.2 4.4V55zM526 50c0-4 3.4-4.8 6.7-5.2 3.1-.4 4.4-.3 4.4-1.6v-.1c0-2-1.1-3.1-3.3-3.1-2.3 0-3.6 1.2-4.1 2.4l-3.2-.7c1.1-3.2 4-4.5 7.2-4.5 2.8 0 6.8 1 6.8 6.1V55h-3.3v-2.4h-.1c-.6 1.3-2.3 2.8-5.2 2.8-3.3 0-5.9-1.9-5.9-5.4zm11.1-1.3v-2.3c-.5.5-3.1.8-4.2.9-2 .3-3.6.9-3.6 2.7 0 1.7 1.4 2.5 3.3 2.5 2.9.1 4.5-1.8 4.5-3.8zM553.2 40.2h-3.6v9.6c0 2 1 2.3 2.1 2.3.5 0 1-.1 1.2-.1l.6 2.8c-.4.1-1.1.4-2.2.4-2.7.1-5.1-1.5-5.1-4.6V40.2h-2.6v-2.7h2.6v-4.2h3.4v4.2h3.6v2.7zM575.4 42.3c-.4-1.2-1.4-2.3-3.5-2.3-1.9 0-3.4 1-3.4 2.3 0 1.2.8 1.8 2.7 2.3l2.8.6c3.2.7 4.8 2.3 4.8 4.7 0 3.2-2.9 5.4-7.1 5.4-3.9 0-6.5-1.7-7.1-4.8l3.3-.5c.4 1.7 1.7 2.6 3.8 2.6 2.2 0 3.7-1.1 3.7-2.4 0-1.1-.8-1.8-2.5-2.2l-3-.6c-3.3-.7-4.8-2.4-4.8-4.9 0-3.1 2.8-5.2 6.7-5.2 3.8 0 5.9 1.8 6.6 4.5l-3 .5zM593.6 37.5h3.4V55h-3.3v-3h-.2c-.8 1.9-2.6 3.3-5.2 3.3-3.4 0-5.7-2.3-5.7-6.6V37.5h3.4v10.7c0 2.4 1.5 3.9 3.6 3.9 1.9 0 4.1-1.4 4.1-4.4V37.5zM601.5 57.9l2.9-1.2c.6 1 1.7 2.4 4.5 2.4 2.6 0 4.5-1.2 4.5-3.9v-3.4h-.2c-.6 1.1-1.9 2.9-5.1 2.9-4.1 0-7.3-3-7.3-8.5 0-5.6 3.1-8.9 7.3-8.9 3.3 0 4.5 2 5.1 3.1h.3v-2.8h3.3v17.8c0 4.5-3.4 6.5-7.9 6.5-4.2-.1-6.5-1.9-7.4-4zm11.9-11.8c0-3.5-1.6-6-4.6-6-3.1 0-4.6 2.6-4.6 6s1.6 5.8 4.6 5.8c3 0 4.6-2.2 4.6-5.8zM621.2 57.9l2.9-1.2c.6 1 1.7 2.4 4.5 2.4 2.6 0 4.5-1.2 4.5-3.9v-3.4h-.2c-.6 1.1-1.9 2.9-5.1 2.9-4.1 0-7.3-3-7.3-8.5 0-5.6 3.1-8.9 7.3-8.9 3.3 0 4.5 2 5.1 3.1h.3v-2.8h3.3v17.8c0 4.5-3.4 6.5-7.9 6.5-4.1-.1-6.5-1.9-7.4-4zm12-11.8c0-3.5-1.6-6-4.6-6-3.1 0-4.6 2.6-4.6 6s1.6 5.8 4.6 5.8c2.9 0 4.6-2.2 4.6-5.8zM640.3 46.3c0-5.4 3.2-9.1 8.1-9.1 4 0 7.7 2.5 7.7 8.8v1.2h-12.4c.1 3.4 2 5.3 5 5.3 1.9 0 3.4-.8 4-2.5l3.2.6c-.8 2.8-3.5 4.7-7.3 4.7-5.2 0-8.3-3.5-8.3-9zm12.5-1.6c0-2.7-1.7-4.6-4.4-4.6-2.8 0-4.6 2.1-4.7 4.6h9.1zM669.9 42.3c-.4-1.2-1.4-2.3-3.5-2.3-1.9 0-3.4 1-3.4 2.3 0 1.2.8 1.8 2.7 2.3l2.8.6c3.2.7 4.8 2.3 4.8 4.7 0 3.2-2.9 5.4-7.1 5.4-3.9 0-6.5-1.7-7.1-4.8l3.3-.5c.4 1.7 1.7 2.6 3.8 2.6 2.2 0 3.7-1.1 3.7-2.4 0-1.1-.8-1.8-2.5-2.2l-3-.6c-3.3-.7-4.8-2.4-4.8-4.9 0-3.1 2.8-5.2 6.7-5.2 3.8 0 5.9 1.8 6.6 4.5l-3 .5zM685.2 40.2h-3.6v9.6c0 2 1 2.3 2.1 2.3.5 0 1-.1 1.2-.1l.6 2.8c-.4.1-1.1.4-2.2.4-2.7.1-5.1-1.5-5.1-4.6V40.2h-2.6v-2.7h2.6v-4.2h3.4v4.2h3.6v2.7zM698.6 42.3c-.4-1.2-1.4-2.3-3.5-2.3-1.9 0-3.4 1-3.4 2.3 0 1.2.8 1.8 2.7 2.3l2.8.6c3.2.7 4.8 2.3 4.8 4.7 0 3.2-2.9 5.4-7.1 5.4-3.9 0-6.5-1.7-7.1-4.8l3.3-.5c.4 1.7 1.7 2.6 3.8 2.6 2.2 0 3.7-1.1 3.7-2.4 0-1.1-.8-1.8-2.5-2.2l-3-.6c-3.3-.7-4.8-2.4-4.8-4.9 0-3.1 2.8-5.2 6.7-5.2 3.8 0 5.9 1.8 6.6 4.5l-3 .5zM713.1 50.1c0-3.9 3.1-5.1 6.6-5.4 3-.3 4.2-.4 4.2-1.6V43c0-1.4-.9-2.3-2.6-2.3-1.7 0-2.8.9-3.1 2l-4.5-.4c.7-3.2 3.4-5.2 7.6-5.2 3.9 0 7.4 1.8 7.4 5.9v12h-4.6v-2.4h-.1c-.9 1.6-2.5 2.8-5.1 2.8-3.4-.1-5.8-1.9-5.8-5.3zm10.8-1.4v-1.9c-.6.4-2.3.6-3.4.8-1.7.2-2.8.9-2.8 2.3 0 1.3 1.1 2 2.6 2 2.1.1 3.6-1.3 3.6-3.2zM749.4 41.1H746V55h-4.8V41.1h-2.5v-3.6h2.5v-1.3c0-3.8 2.4-5.6 5.7-5.6 1.5 0 2.8.3 3.4.5l-.9 3.6c-.4-.1-1-.2-1.6-.2-1.4 0-1.9.7-1.9 1.9v1.2h3.5v3.5zM752.2 32.8c0-1.3 1.2-2.4 2.6-2.4 1.4 0 2.6 1.1 2.6 2.4 0 1.4-1.2 2.5-2.6 2.5-1.4 0-2.6-1.2-2.6-2.5zm.2 4.7h4.8V55h-4.8V37.5zM768.3 43.6l3.3-6.1h5l-5.1 8.7 5.2 8.7h-4.9l-3.4-6-3.4 6h-5l5.2-8.7-5-8.7h5l3.1 6.1z"/><path class="st3" d="M35.2 45.5l-10.5-6.1V27.2l10.6 6.1z"/><path fill="#7900f5" d="M35.2 69.8l-10.5-6V51.6l10.5 6.1z"/><path fill="#94f2c8" d="M45.7 39.4l-21-12.2 10.5-6 21.1 12.1z"/><path fill="#a475f4" d="M35.2 57.7l-10.5-6.1 10.5-6.1 10.6 6.1z"/><path class="st2" d="M61.4 36.2h9.9v2.3h-7.1v4.2h6.4V45h-6.4v6.6h-2.8V36.2zM76.5 51.6h-2.7V36.2h2.7v15.4zM78.7 48.4c0-2.6 2.2-3.3 4.4-3.5 2-.2 2.9-.3 2.9-1 0-1.1-.7-1.8-2-1.8s-2.1.7-2.4 1.5l-2.6-.4c.6-2.1 2.5-3.2 4.9-3.2 2.2 0 4.7.9 4.7 4v7.8H86V50c-.5 1-1.6 1.8-3.4 1.8-2.2 0-3.9-1.2-3.9-3.4zm7.3-.9v-1.4c-.4.3-1.8.5-2.5.6-1.2.2-2.1.6-2.1 1.7 0 1 .8 1.5 2 1.5 1.5-.1 2.6-1.2 2.6-2.4zM91.5 40h2.6v2h.1c.4-1.3 1.5-2.1 2.9-2.1.3 0 .7 0 1 .1v2.5c-.2-.1-.8-.2-1.3-.2-1.5 0-2.6 1-2.6 2.5v6.8h-2.7V40zM98.9 45.9c0-3.6 2.2-6 5.5-6 2.9 0 5.3 1.8 5.3 5.9v.8h-8.1c0 2 1.2 3.1 3 3.1 1.2 0 2.1-.5 2.5-1.5l2.5.3c-.5 2-2.3 3.3-5 3.3-3.6 0-5.7-2.3-5.7-5.9zm8.2-1.2c0-1.6-1.1-2.7-2.6-2.7-1.6 0-2.7 1.2-2.8 2.7h5.4z"/><g><path class="st2" d="M824.7 36.4l5.2 12.7h.2l5.2-12.7h2.2v15.3h-1.7V40.1h-.1l-4.8 11.6h-1.7l-4.8-11.6h-.1v11.6h-1.7V36.4h2.1zM840.8 48.5c0-2.6 2.3-3.1 4.4-3.4 2.1-.3 3-.2 3-1V44c0-1.5-.8-2.3-2.4-2.3-1.7 0-2.6.9-3 1.7l-1.7-.6c.9-2.1 2.9-2.7 4.6-2.7 1.5 0 4.2.4 4.2 4.1v7.6h-1.8v-1.6h-.1c-.4.7-1.4 1.8-3.4 1.8s-3.8-1.3-3.8-3.5zm7.4-.9V46c-.3.4-2.3.6-3 .7-1.4.2-2.6.6-2.6 1.9 0 1.2 1 1.8 2.4 1.8 2.1 0 3.2-1.4 3.2-2.8zM852.7 46c0-3.6 2-5.9 4.9-5.9 2.2 0 2.9 1.4 3.3 2h.1v-5.6h1.8v15.3h-1.7V50h-.2c-.4.6-1.1 2-3.3 2-2.9 0-4.9-2.3-4.9-6zm8.4 0c0-2.6-1.1-4.3-3.3-4.3-2.2 0-3.3 1.9-3.3 4.3s1.1 4.4 3.3 4.4c2.1 0 3.3-1.8 3.3-4.4zM865.7 46.1c0-3.5 2.1-6 5.2-6 2.4 0 4.9 1.5 4.9 5.7v.7h-8.3c.1 2.5 1.5 3.8 3.6 3.8 1.4 0 2.4-.6 2.9-1.8l1.7.5c-.5 1.7-2.2 2.9-4.6 2.9-3.3.1-5.4-2.3-5.4-5.8zm8.3-1c0-1.9-1.2-3.4-3.1-3.4-2 0-3.3 1.6-3.4 3.4h6.5zM889.5 41.8h-2.6v10h-1.8v-10h-1.9v-1.5h1.9v-1.6c0-2 1.6-3 3.2-3 .9 0 1.4.2 1.7.3l-.5 1.5c-.2-.1-.5-.2-1-.2-1.2 0-1.6.6-1.6 1.7v1.2h2.6v1.6zM891 46c0-3.6 2.1-5.9 5.2-5.9s5.2 2.4 5.2 5.9c0 3.6-2.1 5.9-5.2 5.9-3.1.1-5.2-2.3-5.2-5.9zm8.6 0c0-2.3-1.1-4.4-3.4-4.4-2.4 0-3.4 2.1-3.4 4.4 0 2.3 1.1 4.3 3.4 4.3 2.3.1 3.4-2 3.4-4.3zM904 40.3h1.7V42h.1c.4-1.1 1.6-1.9 3-1.9h.9v1.8c-.1 0-.6-.1-1.1-.1-1.7 0-2.9 1.1-2.9 2.7v7.3H904V40.3z"/></g><path d="M964.9 32.2V43c0 .3-.1.5-.4.7l-8.9 5v10c0 .3-.1.5-.4.7L936.7 70h-.6l-18.5-10.6c-.3-.1-.4-.4-.4-.7V27.2v-.4-.1l.1-.1h.1l.1-.1 9.3-5.3c.3-.1.5-.1.8 0l9.3 5.3h.2l.1.1v20.2l7.7-4.4v-10-.4-.1l.1-.1h.1l.1-.1 9.3-5.3c.3-.1.5-.1.8 0l9.3 5.3h.2l.1.1v.4zm-1.5 10.3v-8.7l-3.2 1.9-4.5 2.5v8.7l7.7-4.4zm-9.2 15.9v-8.7l-4.4 2.5-12.6 7.1v8.9c.1-.2 17-9.8 17-9.8zm-35.3-29.9v29.9l16.9 9.8v-8.9l-8.9-5h-.1-.1v-.1-.1-.1-.2V33l-4.5-2.5-3.3-2zm8.4-5.7l-7.7 4.4 7.7 4.4 7.7-4.4-7.7-4.4zm4 27.5l4.5-2.5V28.5l-3.2 1.9-4.5 2.5v19.3c-.1 0 3.2-1.9 3.2-1.9zM955 28l-7.7 4.4 7.7 4.4 7.7-4.4L955 28zm-.8 10.1l-4.5-2.5-3.2-1.9v8.7L951 45l3.2 1.9v-8.8zm-17.7 19.7l11.2-6.5 5.7-3.2-7.7-4.4-8.9 5.2-8.1 4.6c.1 0 7.8 4.3 7.8 4.3z" fill-rule="evenodd" clip-rule="evenodd" fill="#fff"/><path class="st3" d="M1008.1 23.5h166.5v44h-166.5z"/><g><path class="st1" d="M1035.5 36.4h2.8v13h6.7v2.3h-9.5V36.4zM1046.8 46.1c0-3.5 2.1-5.9 5.4-5.9 2.8 0 5.2 1.8 5.2 5.8v.8h-8c0 2 1.2 3.1 2.9 3.1 1.2 0 2.1-.5 2.4-1.5l2.5.3c-.5 2-2.3 3.3-5 3.3-3.3-.1-5.4-2.3-5.4-5.9zm8.1-1.2c0-1.6-1.1-2.7-2.6-2.7-1.6 0-2.7 1.2-2.8 2.7h5.4zM1059.2 48.5c0-2.6 2.1-3.2 4.4-3.5 2-.2 2.8-.3 2.8-1 0-1.1-.7-1.8-1.9-1.8-1.3 0-2.1.7-2.3 1.5l-2.5-.4c.6-2.1 2.4-3.2 4.9-3.2 2.2 0 4.7.9 4.7 3.9v7.7h-2.6v-1.6h-.1c-.5 1-1.6 1.8-3.4 1.8-2.3.1-4-1.1-4-3.4zm7.2-.9v-1.4c-.4.3-1.8.5-2.5.6-1.2.2-2.1.6-2.1 1.6s.8 1.5 1.9 1.5c1.7.1 2.7-1 2.7-2.3zM1071.8 40.3h2.6v1.9h.1c.4-1.3 1.5-2.1 2.8-2.1.3 0 .7 0 1 .1v2.5c-.2-.1-.8-.2-1.3-.2-1.5 0-2.6 1-2.6 2.5v6.7h-2.7V40.3zM1082.8 51.7h-2.7V40.3h2.6v1.9h.1c.5-1.3 1.7-2.1 3.4-2.1 2.4 0 3.9 1.6 3.9 4.3v7.3h-2.7v-6.9c0-1.5-.8-2.4-2.2-2.4-1.4 0-2.4 1-2.4 2.6v6.7zM1098.2 40.3h2.6v1.9h.1c.5-1.3 1.6-2.1 3.2-2.1 1.5 0 2.7.8 3.1 2.1h.1c.5-1.3 1.8-2.1 3.4-2.1 2.1 0 3.6 1.4 3.6 3.9v7.7h-2.7v-7.3c0-1.4-.9-2.1-2-2.1-1.3 0-2.1.9-2.1 2.2v7.1h-2.6v-7.4c0-1.2-.8-1.9-1.9-1.9-1.2 0-2.1 1-2.1 2.4v7h-2.7V40.3zM1116.5 46c0-3.6 2.1-5.9 5.5-5.9s5.5 2.4 5.5 5.9c0 3.5-2.1 5.9-5.5 5.9-3.3 0-5.5-2.3-5.5-5.9zm8.3 0c0-2.1-.9-3.8-2.7-3.8-1.9 0-2.8 1.7-2.8 3.8s.9 3.8 2.8 3.8c1.8 0 2.7-1.7 2.7-3.8zM1129.8 40.3h2.6v1.9h.1c.4-1.3 1.5-2.1 2.8-2.1.3 0 .7 0 1 .1v2.5c-.2-.1-.8-.2-1.3-.2-1.5 0-2.6 1-2.6 2.5v6.7h-2.7V40.3zM1137.1 46.1c0-3.5 2.1-5.9 5.4-5.9 2.8 0 5.2 1.8 5.2 5.8v.8h-8c0 2 1.2 3.1 2.9 3.1 1.2 0 2.1-.5 2.4-1.5l2.5.3c-.5 2-2.3 3.3-5 3.3-3.3-.1-5.4-2.3-5.4-5.9zm8.1-1.2c0-1.6-1.1-2.7-2.6-2.7-1.6 0-2.7 1.2-2.8 2.7h5.4z"/></g></svg>