<svg version="1.1" id="Flare" xmlns="http://www.w3.org/2000/svg" xmlns:xlink="http://www.w3.org/1999/xlink" x="0px" y="0px"
	 viewBox="0 0 300 250" style="enable-background:new 0 0 300 250;" xml:space="preserve">
<g>
	<rect style="fill:#321352;" width="300" height="250"/>
</g>
<path style="fill:#FFFFFF;" d="M29.6,157.2L29.6,157.2L29.6,157.2"/>
<g>
	<polyline style="fill:#271040;" points="300,1 29.6,157.2 29.6,157.2 190,250 300,250 300,1 	"/>
</g>
<g>
	<rect x="117.4" y="140.7" style="fill:#7900F5;" width="65.6" height="34"/>
	<g>
		<g>
			<path style="fill:#FFFFFF;" d="M30.9,82.4h13.3V85h-5.1v14.1h-3V85h-5.1V82.4z"/>
			<path style="fill:#FFFFFF;" d="M49.6,99.1h-2.9V82.4h2.9v6.3h0.1c0.6-1.4,1.8-2.3,3.7-2.3c2.6,0,4.3,1.7,4.3,4.7v8h-2.9v-7.5
				c0-1.7-0.9-2.7-2.5-2.7c-1.6,0-2.7,1-2.7,2.8V99.1z"/>
			<path style="fill:#FFFFFF;" d="M60.1,92.9c0-3.9,2.3-6.5,5.9-6.5c3.1,0,5.7,1.9,5.7,6.3v0.9H63c0,2.1,1.3,3.4,3.2,3.4
				c1.3,0,2.2-0.6,2.6-1.6l2.7,0.3c-0.5,2.2-2.5,3.6-5.4,3.6C62.4,99.3,60.1,96.8,60.1,92.9z M68.9,91.7c0-1.7-1.2-2.9-2.8-2.9
				c-1.8,0-2.9,1.3-3,2.9H68.9z"/>
			<path style="fill:#FFFFFF;" d="M79.3,92.9c0-3.9,2.3-6.5,6-6.5s6,2.6,6,6.5c0,3.9-2.3,6.4-6,6.4S79.3,96.7,79.3,92.9z M88.3,92.9
				c0-2.3-1-4.1-3-4.1c-2,0-3,1.8-3,4.1c0,2.3,1,4.1,3,4.1C87.3,97,88.3,95.2,88.3,92.9z"/>
			<path style="fill:#FFFFFF;" d="M96.7,99.1h-2.9V86.6h2.8v2.1h0.1c0.6-1.4,1.9-2.3,3.7-2.3c2.6,0,4.3,1.7,4.3,4.7v8h-2.9v-7.5
				c0-1.7-0.9-2.7-2.4-2.7c-1.6,0-2.6,1-2.6,2.8V99.1z"/>
			<path style="fill:#FFFFFF;" d="M110.7,99.1h-2.9V82.4h2.9V99.1z"/>
			<path style="fill:#FFFFFF;" d="M113.6,103.4l0.7-2.3c1.3,0.4,2.1,0.3,2.7-1.1l0.3-0.7l-4.5-12.8h3.1l2.9,9.4h0.1l2.9-9.4l3.1,0
				l-5,14c-0.7,2-2,3.1-4.3,3.1C114.7,103.7,114,103.6,113.6,103.4z"/>
			<path style="fill:#FFFFFF;" d="M132.1,92.9c0-3.9,2.3-6.5,5.9-6.5c3.1,0,5.7,1.9,5.7,6.3v0.9H135c0,2.1,1.3,3.4,3.2,3.4
				c1.3,0,2.2-0.6,2.6-1.6l2.7,0.3c-0.5,2.2-2.5,3.6-5.4,3.6C134.4,99.3,132.1,96.8,132.1,92.9z M140.9,91.7c0-1.7-1.2-2.9-2.8-2.9
				c-1.8,0-2.9,1.3-3,2.9H140.9z"/>
			<path style="fill:#FFFFFF;" d="M146.2,86.6h2.9v2.1h0.1c0.5-1.4,1.7-2.3,3.1-2.3c0.3,0,0.8,0,1.1,0.1v2.7
				c-0.3-0.1-0.9-0.2-1.4-0.2c-1.6,0-2.8,1.1-2.8,2.7v7.3h-2.9V86.6z"/>
			<path style="fill:#FFFFFF;" d="M155.2,86.6h2.9v2.1h0.1c0.5-1.4,1.7-2.3,3.1-2.3c0.3,0,0.8,0,1.1,0.1v2.7
				c-0.3-0.1-0.9-0.2-1.4-0.2c-1.6,0-2.8,1.1-2.8,2.7v7.3h-2.9V86.6z"/>
			<path style="fill:#FFFFFF;" d="M163.3,92.9c0-3.9,2.3-6.5,6-6.5s6,2.6,6,6.5c0,3.9-2.3,6.4-6,6.4S163.3,96.7,163.3,92.9z
				 M172.2,92.9c0-2.3-1-4.1-3-4.1c-2,0-3,1.8-3,4.1c0,2.3,1,4.1,3,4.1C171.3,97,172.2,95.2,172.2,92.9z"/>
			<path style="fill:#FFFFFF;" d="M177.7,86.6h2.9v2.1h0.1c0.5-1.4,1.7-2.3,3.1-2.3c0.3,0,0.8,0,1.1,0.1v2.7
				c-0.3-0.1-0.9-0.2-1.4-0.2c-1.6,0-2.8,1.1-2.8,2.7v7.3h-2.9V86.6z"/>
			<path style="fill:#FFFFFF;" d="M198.7,88.9h-2.5v6.5c0,1.2,0.6,1.4,1.3,1.4c0.4,0,0.7-0.1,0.9-0.1l0.5,2.3
				c-0.3,0.1-0.9,0.3-1.7,0.3c-2.2,0.1-3.9-1.1-3.9-3.4v-6.9h-1.8v-2.3h1.8v-3h2.9v3h2.5V88.9z"/>
			<path style="fill:#FFFFFF;" d="M201.2,86.6h2.9v2.1h0.1c0.5-1.4,1.7-2.3,3.1-2.3c0.3,0,0.8,0,1.1,0.1v2.7
				c-0.3-0.1-0.9-0.2-1.4-0.2c-1.6,0-2.8,1.1-2.8,2.7v7.3h-2.9V86.6z"/>
			<path style="fill:#FFFFFF;" d="M209.4,95.6c0-2.8,2.3-3.5,4.7-3.8c2.2-0.2,3.1-0.3,3.1-1.1v0c0-1.2-0.7-1.9-2.1-1.9
				c-1.4,0-2.3,0.7-2.6,1.6l-2.7-0.4c0.7-2.3,2.7-3.4,5.3-3.4c2.4,0,5.1,1,5.1,4.3v8.4h-2.8v-1.7h-0.1c-0.5,1-1.7,2-3.7,2
				C211.2,99.3,209.4,98,209.4,95.6z M217.3,94.6v-1.5c-0.4,0.3-1.9,0.5-2.7,0.6c-1.3,0.2-2.3,0.7-2.3,1.8c0,1.1,0.9,1.6,2.1,1.6
				C216.1,97.2,217.3,96,217.3,94.6z"/>
			<path style="fill:#FFFFFF;" d="M222.6,92.9c0-3.8,2.3-6.5,6-6.5c3,0,5.2,1.8,5.4,4.5h-2.8c-0.2-1.2-1.1-2.1-2.5-2.1
				c-1.8,0-3,1.5-3,4c0,2.6,1.2,4.1,3,4.1c1.3,0,2.3-0.8,2.5-2.1h2.8c-0.2,2.7-2.2,4.5-5.4,4.5C224.9,99.3,222.6,96.7,222.6,92.9z"
				/>
			<path style="fill:#FFFFFF;" d="M236.4,82.4h2.9v9.2h0.2l4.5-5h3.4l-4.8,5.4l5.1,7.1h-3.5l-3.8-5.3l-1.1,1.1v4.2h-2.9V82.4z"/>
			<path style="fill:#FFFFFF;" d="M248.3,92.9c0-3.9,2.3-6.5,5.9-6.5c3.1,0,5.7,1.9,5.7,6.3v0.9h-8.7c0,2.1,1.3,3.4,3.2,3.4
				c1.3,0,2.2-0.6,2.6-1.6l2.7,0.3c-0.5,2.2-2.5,3.6-5.4,3.6C250.6,99.3,248.3,96.8,248.3,92.9z M257.1,91.7c0-1.7-1.2-2.9-2.8-2.9
				c-1.8,0-2.9,1.3-3,2.9H257.1z"/>
			<path style="fill:#FFFFFF;" d="M262.4,86.6h2.9v2.1h0.1c0.5-1.4,1.7-2.3,3.1-2.3c0.3,0,0.8,0,1.1,0.1v2.7
				c-0.3-0.1-0.9-0.2-1.4-0.2c-1.6,0-2.8,1.1-2.8,2.7v7.3h-2.9V86.6z"/>
			<path style="fill:#FFFFFF;" d="M81.3,122.4h-2.5v6.5c0,1.2,0.6,1.4,1.3,1.4c0.4,0,0.7-0.1,0.9-0.1l0.5,2.3
				c-0.3,0.1-0.9,0.3-1.7,0.3c-2.2,0.1-3.9-1.1-3.9-3.4v-6.9h-1.8v-2.3h1.8v-3h2.9v3h2.5V122.4z"/>
			<path style="fill:#FFFFFF;" d="M87,132.6h-2.9v-16.7h2.9v6.3h0.1c0.6-1.4,1.8-2.3,3.7-2.3c2.6,0,4.3,1.7,4.3,4.7v8h-2.9v-7.5
				c0-1.7-0.9-2.7-2.5-2.7c-1.6,0-2.7,1-2.7,2.8V132.6z"/>
			<path style="fill:#FFFFFF;" d="M97.5,129.1c0-2.8,2.3-3.5,4.7-3.8c2.2-0.2,3.1-0.3,3.1-1.1v0c0-1.2-0.7-1.9-2.1-1.9
				c-1.4,0-2.3,0.7-2.6,1.6l-2.7-0.4c0.7-2.3,2.7-3.4,5.3-3.4c2.4,0,5.1,1,5.1,4.3v8.4h-2.8v-1.7h-0.1c-0.5,1-1.7,2-3.7,2
				C99.3,132.8,97.5,131.5,97.5,129.1z M105.3,128.1v-1.5c-0.4,0.3-1.9,0.5-2.7,0.6c-1.3,0.2-2.3,0.7-2.3,1.8c0,1.1,0.9,1.6,2.1,1.6
				C104.2,130.7,105.3,129.5,105.3,128.1z"/>
			<path style="fill:#FFFFFF;" d="M117.5,122.4H115v6.5c0,1.2,0.6,1.4,1.3,1.4c0.4,0,0.7-0.1,0.9-0.1l0.5,2.3
				c-0.3,0.1-0.9,0.3-1.7,0.3c-2.2,0.1-3.9-1.1-3.9-3.4v-6.9h-1.8v-2.3h1.8v-3h2.9v3h2.5V122.4z"/>
			<path style="fill:#FFFFFF;" d="M132.8,123.7c-0.2-0.8-0.9-1.6-2.3-1.6c-1.2,0-2.2,0.6-2.2,1.4c0,0.7,0.5,1.2,1.8,1.4l2.1,0.5
				c2.4,0.5,3.5,1.6,3.5,3.4c0,2.4-2.2,4-5.3,4c-3.1,0-5-1.4-5.4-3.7l2.9-0.3c0.3,1.1,1.1,1.7,2.5,1.7c1.4,0,2.3-0.6,2.3-1.5
				c0-0.7-0.5-1.2-1.7-1.4l-2.1-0.4c-2.4-0.5-3.5-1.7-3.5-3.5c0-2.3,2-3.8,5.1-3.8c2.9,0,4.6,1.4,5,3.5L132.8,123.7z"/>
			<path style="fill:#FFFFFF;" d="M146.1,120.1h2.9v12.5h-2.9v-2.2h-0.1c-0.6,1.4-1.9,2.4-3.8,2.4c-2.5,0-4.2-1.7-4.2-4.7v-8h2.9
				v7.5c0,1.6,0.9,2.6,2.4,2.6c1.3,0,2.7-0.9,2.7-2.8V120.1z"/>
			<path style="fill:#FFFFFF;" d="M152,134.4l2.7-0.6c0.4,0.7,1.1,1.5,2.9,1.5c1.7,0,2.9-0.8,2.9-2.5v-2.4h-0.1
				c-0.5,0.9-1.5,2.1-3.6,2.1c-2.9,0-5.1-2-5.1-6.1c0-4.1,2.3-6.4,5.2-6.4c2.2,0,3.1,1.3,3.6,2.2h0.2v-2.1h2.9v12.7
				c0,3.1-2.5,4.7-5.9,4.7C154.4,137.5,152.6,136.1,152,134.4z M160.5,126.3c0-2.4-1-3.9-2.9-3.9c-2,0-3,1.7-3,3.9
				c0,2.3,1,3.8,3,3.8C159.4,130.1,160.5,128.7,160.5,126.3z"/>
			<path style="fill:#FFFFFF;" d="M166.3,134.4l2.7-0.6c0.4,0.7,1.1,1.5,2.9,1.5c1.7,0,2.9-0.8,2.9-2.5v-2.4h-0.1
				c-0.5,0.9-1.5,2.1-3.6,2.1c-2.9,0-5.1-2-5.1-6.1c0-4.1,2.3-6.4,5.2-6.4c2.2,0,3.1,1.3,3.6,2.2h0.2v-2.1h2.9v12.7
				c0,3.1-2.5,4.7-5.9,4.7C168.7,137.5,166.9,136.1,166.3,134.4z M174.8,126.3c0-2.4-1-3.9-2.9-3.9c-2,0-3,1.7-3,3.9
				c0,2.3,1,3.8,3,3.8C173.7,130.1,174.8,128.7,174.8,126.3z"/>
			<path style="fill:#FFFFFF;" d="M180.2,126.4c0-3.9,2.3-6.5,5.9-6.5c3.1,0,5.7,1.9,5.7,6.3v0.9h-8.7c0,2.1,1.3,3.4,3.2,3.4
				c1.3,0,2.2-0.6,2.6-1.6l2.7,0.3c-0.5,2.2-2.5,3.6-5.4,3.6C182.5,132.8,180.2,130.3,180.2,126.4z M189,125.2
				c0-1.7-1.2-2.9-2.8-2.9c-1.8,0-2.9,1.3-3,2.9H189z"/>
			<path style="fill:#FFFFFF;" d="M201.5,123.7c-0.2-0.8-0.9-1.6-2.3-1.6c-1.2,0-2.2,0.6-2.2,1.4c0,0.7,0.5,1.2,1.8,1.4l2.1,0.5
				c2.4,0.5,3.5,1.6,3.5,3.4c0,2.4-2.2,4-5.3,4c-3.1,0-5-1.4-5.4-3.7l2.9-0.3c0.3,1.1,1.1,1.7,2.5,1.7c1.4,0,2.3-0.6,2.3-1.5
				c0-0.7-0.5-1.2-1.7-1.4l-2.1-0.4c-2.4-0.5-3.5-1.7-3.5-3.5c0-2.3,2-3.8,5.1-3.8c2.9,0,4.6,1.4,5,3.5L201.5,123.7z"/>
			<path style="fill:#FFFFFF;" d="M213.1,122.4h-2.5v6.5c0,1.2,0.6,1.4,1.3,1.4c0.4,0,0.7-0.1,0.9-0.1l0.5,2.3
				c-0.3,0.1-0.9,0.3-1.7,0.3c-2.2,0.1-3.9-1.1-3.9-3.4v-6.9h-1.8v-2.3h1.8v-3h2.9v3h2.5V122.4z"/>
			<path style="fill:#FFFFFF;" d="M222.5,123.7c-0.2-0.8-0.9-1.6-2.3-1.6c-1.2,0-2.2,0.6-2.2,1.4c0,0.7,0.5,1.2,1.8,1.4l2.1,0.5
				c2.4,0.5,3.5,1.6,3.5,3.4c0,2.4-2.2,4-5.3,4c-3.1,0-5-1.4-5.4-3.7l2.9-0.3c0.3,1.1,1.1,1.7,2.5,1.7c1.4,0,2.3-0.6,2.3-1.5
				c0-0.7-0.5-1.2-1.7-1.4l-2.1-0.4c-2.4-0.5-3.5-1.7-3.5-3.5c0-2.3,2-3.8,5.1-3.8c2.9,0,4.6,1.4,5,3.5L222.5,123.7z"/>
			<path style="fill:#FFFFFF;" d="M127.7,162.6c0-2.8,2.3-3.5,4.7-3.8c2.2-0.2,3.1-0.3,3.1-1.1v0c0-1.2-0.7-1.9-2.1-1.9
				c-1.4,0-2.3,0.7-2.6,1.6l-2.7-0.4c0.7-2.3,2.7-3.4,5.3-3.4c2.4,0,5.1,1,5.1,4.3v8.4h-2.8v-1.7h-0.1c-0.5,1-1.7,2-3.7,2
				C129.5,166.3,127.7,165,127.7,162.6z M135.6,161.6v-1.5c-0.4,0.3-1.9,0.5-2.7,0.6c-1.3,0.2-2.3,0.7-2.3,1.8
				c0,1.1,0.9,1.6,2.1,1.6C134.5,164.2,135.6,163,135.6,161.6z"/>
			<path style="fill:#FFFFFF;" d="M153.6,155.9H151v10.2H148v-10.2h-1.8v-2.3h1.8v-1.2c0-2.5,1.7-3.8,3.9-3.8c1,0,1.9,0.2,2.2,0.3
				l-0.6,2.3c-0.2-0.1-0.6-0.2-1.1-0.2c-1.1,0-1.5,0.5-1.5,1.5v1h2.6V155.9z"/>
			<path style="fill:#FFFFFF;" d="M155.6,150.2c0-0.9,0.8-1.6,1.7-1.6c0.9,0,1.7,0.7,1.7,1.6c0,0.9-0.8,1.6-1.7,1.6
				C156.4,151.8,155.6,151.1,155.6,150.2z M155.9,153.6h2.9v12.5h-2.9V153.6z"/>
			<path style="fill:#FFFFFF;" d="M166.8,158.2l2.6-4.6h3.1l-3.8,6.2l3.8,6.2h-3.1l-2.6-4.5l-2.6,4.5H161l3.8-6.2l-3.7-6.2h3.1
				L166.8,158.2z"/>
		</g>
	</g>
</g>
<g>
	<polygon style="fill:#51DB9E;" points="38.7,211 29.8,205.9 29.8,195.6 38.7,200.7 	"/>
	<polygon style="fill:#7900F5;" points="38.7,231.6 29.8,226.4 29.8,216.1 38.7,221.3 	"/>
	<polygon style="fill:#94F2C8;" points="47.6,205.8 29.8,195.6 38.7,190.4 56.5,200.7 	"/>
	<polygon style="fill:#A475F4;" points="38.7,221.3 29.8,216.1 38.7,211 47.6,216.1 	"/>
	<g>
		<g>
			<path style="fill:#FFFFFF;" d="M60.8,203.1h8.4v2h-6v3.5h5.4v2h-5.4v5.5h-2.4V203.1z"/>
			<path style="fill:#FFFFFF;" d="M73.5,216.2h-2.3v-13.1h2.3V216.2z"/>
			<path style="fill:#FFFFFF;" d="M75.4,213.4c0-2.2,1.8-2.8,3.7-3c1.7-0.2,2.4-0.2,2.4-0.9v0c0-1-0.6-1.5-1.7-1.5
				c-1.1,0-1.8,0.6-2,1.2l-2.2-0.3c0.5-1.8,2.1-2.7,4.1-2.7c1.9,0,4,0.8,4,3.4v6.6h-2.2v-1.3h-0.1c-0.4,0.8-1.3,1.5-2.9,1.5
				C76.8,216.4,75.4,215.3,75.4,213.4z M81.6,212.6v-1.2c-0.3,0.2-1.5,0.4-2.1,0.5c-1,0.1-1.8,0.5-1.8,1.4c0,0.8,0.7,1.3,1.7,1.3
				C80.7,214.7,81.6,213.7,81.6,212.6z"/>
			<path style="fill:#FFFFFF;" d="M86.2,206.4h2.2v1.6h0.1c0.4-1.1,1.3-1.8,2.4-1.8c0.3,0,0.6,0,0.8,0.1v2.1
				c-0.2-0.1-0.7-0.1-1.1-0.1c-1.3,0-2.2,0.9-2.2,2.1v5.8h-2.3V206.4z"/>
			<path style="fill:#FFFFFF;" d="M92.5,211.3c0-3,1.8-5.1,4.6-5.1c2.4,0,4.5,1.5,4.5,4.9v0.7h-6.8c0,1.7,1,2.7,2.5,2.7
				c1,0,1.8-0.4,2.1-1.3l2.2,0.2c-0.4,1.7-2,2.8-4.3,2.8C94.3,216.4,92.5,214.4,92.5,211.3z M99.4,210.3c0-1.3-0.9-2.3-2.2-2.3
				c-1.4,0-2.3,1.1-2.4,2.3H99.4z"/>
		</g>
	</g>
</g>
<g>
	<path style="fill:#A475F4;" d="M153.9,217.9h-1.2v-10.2h1.2v3.7h0.1c0.4-0.8,1-1.3,2.2-1.3c1.6,0,2.6,0.9,2.6,2.9v4.9h-1.2v-4.8
		c0-1.2-0.7-1.9-1.8-1.9c-1.2,0-2,0.8-2,2.1V217.9z"/>
	<path style="fill:#A475F4;" d="M164.3,211.2h-1.6v4.5c0,1,0.5,1.2,1,1.2c0.3,0,0.4,0,0.5-0.1l0.2,1.1c-0.2,0.1-0.4,0.1-0.9,0.1
		c-1,0-2.1-0.6-2.1-2v-4.8h-1.2v-1h1.2v-1.8h1.2v1.8h1.6V211.2z"/>
	<path style="fill:#A475F4;" d="M169.4,211.2h-1.6v4.5c0,1,0.5,1.2,1,1.2c0.3,0,0.4,0,0.5-0.1l0.2,1.1c-0.2,0.1-0.4,0.1-0.9,0.1
		c-1,0-2.1-0.6-2.1-2v-4.8h-1.2v-1h1.2v-1.8h1.2v1.8h1.6V211.2z"/>
	<path style="fill:#A475F4;" d="M171.2,210.2h1.1v1.2h0.1c0.3-0.4,0.7-1.3,2.2-1.3c1.9,0,3.3,1.5,3.3,3.9c0,2.4-1.3,4-3.2,4
		c-1.5,0-2-0.9-2.2-1.3h-0.1v4h-1.2V210.2z M174.5,217c1.5,0,2.2-1.3,2.2-2.9c0-1.6-0.7-2.9-2.2-2.9c-1.4,0-2.2,1.2-2.2,2.9
		C172.4,215.8,173.1,217,174.5,217z"/>
	<path style="fill:#A475F4;" d="M184.1,212.2c-0.2-0.5-0.6-1.1-1.7-1.1c-0.9,0-1.6,0.5-1.6,1.1c0,0.6,0.4,0.9,1.3,1.1l1.1,0.3
		c1.4,0.3,2,1,2,2.1c0,1.3-1.2,2.3-3,2.3c-1.6,0-2.6-0.7-2.9-2l1.1-0.3c0.2,0.8,0.8,1.2,1.8,1.2c1.1,0,1.8-0.5,1.8-1.2
		c0-0.5-0.4-0.9-1.1-1.1l-1.3-0.3c-1.4-0.3-2-1-2-2.1c0-1.3,1.2-2.2,2.8-2.2c1.5,0,2.3,0.7,2.7,1.8L184.1,212.2z"/>
	<path style="fill:#A475F4;" d="M187,211.4c0-0.5,0.4-0.9,0.9-0.9c0.5,0,0.9,0.4,0.9,0.9c0,0.5-0.4,0.9-0.9,0.9
		C187.4,212.3,187,211.9,187,211.4z M187,217.1c0-0.5,0.4-0.9,0.9-0.9c0.5,0,0.9,0.4,0.9,0.9c0,0.5-0.4,0.9-0.9,0.9
		C187.4,218,187,217.5,187,217.1z"/>
	<path style="fill:#A475F4;" d="M191.2,219.4h-1.1l3.3-12.2h1.1L191.2,219.4z"/>
	<path style="fill:#A475F4;" d="M196.2,219.4h-1.1l3.3-12.2h1.1L196.2,219.4z"/>
	<path style="fill:#A475F4;" d="M204.3,211.2h-1.7v6.6h-1.2v-6.6h-1.2v-1h1.2v-1.1c0-1.3,1.1-2,2.1-2c0.6,0,0.9,0.1,1.1,0.2l-0.3,1
		c-0.1,0-0.3-0.1-0.7-0.1c-0.8,0-1.1,0.4-1.1,1.2v0.8h1.7V211.2z"/>
	<path style="fill:#A475F4;" d="M207.1,217.9h-1.2v-10.2h1.2V217.9z"/>
	<path style="fill:#A475F4;" d="M208.9,215.7c0-1.8,1.5-2.1,3-2.2c1.4-0.2,2-0.1,2-0.7v0c0-1-0.5-1.6-1.6-1.6c-1.1,0-1.7,0.6-2,1.2
		l-1.1-0.4c0.6-1.4,1.9-1.8,3.1-1.8c1,0,2.8,0.3,2.8,2.7v5h-1.2v-1h-0.1c-0.2,0.5-0.9,1.2-2.3,1.2
		C210.1,218,208.9,217.2,208.9,215.7z M213.8,215.1V214c-0.2,0.2-1.5,0.4-2,0.4c-0.9,0.1-1.7,0.4-1.7,1.3c0,0.8,0.7,1.2,1.6,1.2
		C213.1,217,213.8,216.1,213.8,215.1z"/>
	<path style="fill:#A475F4;" d="M217.2,210.2h1.1v1.2h0.1c0.3-0.8,1.1-1.3,2-1.3c0.2,0,0.5,0,0.6,0v1.2c-0.1,0-0.4-0.1-0.7-0.1
		c-1.1,0-1.9,0.8-1.9,1.8v4.8h-1.2V210.2z"/>
	<path style="fill:#A475F4;" d="M221.8,214.1c0-2.3,1.4-4,3.4-4c1.6,0,3.3,1,3.3,3.8v0.5h-5.5c0.1,1.6,1,2.5,2.4,2.5
		c0.9,0,1.6-0.4,1.9-1.2l1.1,0.3c-0.4,1.2-1.5,1.9-3,1.9C223.1,218,221.8,216.5,221.8,214.1z M227.3,213.4c0-1.3-0.8-2.2-2.1-2.2
		c-1.3,0-2.2,1.1-2.3,2.2H227.3z"/>
	<path style="fill:#A475F4;" d="M229.9,215.7c0-1.8,1.5-2.1,3-2.2c1.4-0.2,2-0.1,2-0.7v0c0-1-0.5-1.6-1.6-1.6c-1.1,0-1.7,0.6-2,1.2
		l-1.1-0.4c0.6-1.4,1.9-1.8,3.1-1.8c1,0,2.8,0.3,2.8,2.7v5h-1.2v-1h-0.1c-0.2,0.5-0.9,1.2-2.3,1.2
		C231.1,218,229.9,217.2,229.9,215.7z M234.9,215.1V214c-0.2,0.2-1.5,0.4-2,0.4c-0.9,0.1-1.7,0.4-1.7,1.3c0,0.8,0.7,1.2,1.6,1.2
		C234.1,217,234.9,216.1,234.9,215.1z"/>
	<path style="fill:#A475F4;" d="M238.2,210.2h1.1v1.2h0.1c0.3-0.4,0.7-1.3,2.2-1.3c1.9,0,3.3,1.5,3.3,3.9c0,2.4-1.3,4-3.2,4
		c-1.5,0-2-0.9-2.2-1.3h-0.1v4h-1.2V210.2z M241.5,217c1.5,0,2.2-1.3,2.2-2.9c0-1.6-0.7-2.9-2.2-2.9c-1.4,0-2.2,1.2-2.2,2.9
		C239.3,215.8,240.1,217,241.5,217z"/>
	<path style="fill:#A475F4;" d="M246.7,210.2h1.1v1.2h0.1c0.3-0.4,0.7-1.3,2.2-1.3c1.9,0,3.3,1.5,3.3,3.9c0,2.4-1.3,4-3.2,4
		c-1.5,0-2-0.9-2.2-1.3h-0.1v4h-1.2V210.2z M250.1,217c1.5,0,2.2-1.3,2.2-2.9c0-1.6-0.7-2.9-2.2-2.9c-1.4,0-2.2,1.2-2.2,2.9
		C247.9,215.8,248.6,217,250.1,217z"/>
	<path style="fill:#A475F4;" d="M255.2,217.1c0-0.5,0.4-0.9,0.9-0.9c0.5,0,0.9,0.4,0.9,0.9c0,0.5-0.4,0.9-0.9,0.9
		C255.6,218,255.2,217.5,255.2,217.1z"/>
	<path style="fill:#A475F4;" d="M258.9,208.2c0-0.4,0.4-0.8,0.8-0.8c0.5,0,0.8,0.4,0.8,0.8s-0.4,0.8-0.8,0.8
		C259.2,209,258.9,208.6,258.9,208.2z M259.1,210.2h1.2v7.6h-1.2V210.2z"/>
	<path style="fill:#A475F4;" d="M262.1,214.1c0-2.4,1.4-4,3.5-4s3.5,1.6,3.5,4c0,2.4-1.4,3.9-3.5,3.9S262.1,216.5,262.1,214.1z
		 M267.8,214.1c0-1.5-0.7-2.9-2.3-2.9c-1.6,0-2.3,1.4-2.3,2.9s0.7,2.9,2.3,2.9C267.1,217,267.8,215.6,267.8,214.1z"/>
</g>
<g>
	<g>
		<g>
			<path style="fill:#FFFFFF;" d="M107.8,38.9l3.5,8.5h0.1l3.5-8.5h1.5v10.2h-1.2v-7.7H115l-3.2,7.7h-1.1l-3.2-7.7h-0.1v7.7h-1.2
				V38.9H107.8z"/>
			<path style="fill:#FFFFFF;" d="M118.5,46.9c0-1.8,1.5-2.1,3-2.2c1.4-0.2,2-0.1,2-0.7v0c0-1-0.5-1.6-1.6-1.6c-1.1,0-1.7,0.6-2,1.2
				l-1.1-0.4c0.6-1.4,1.9-1.8,3.1-1.8c1,0,2.8,0.3,2.8,2.7v5h-1.2v-1h-0.1c-0.2,0.5-0.9,1.2-2.3,1.2
				C119.7,49.3,118.5,48.4,118.5,46.9z M123.5,46.3v-1.1c-0.2,0.2-1.5,0.4-2,0.4c-0.9,0.1-1.7,0.4-1.7,1.3c0,0.8,0.7,1.2,1.6,1.2
				C122.7,48.2,123.5,47.3,123.5,46.3z"/>
			<path style="fill:#FFFFFF;" d="M126.4,45.3c0-2.4,1.3-3.9,3.3-3.9c1.5,0,2,0.9,2.2,1.3h0.1v-3.8h1.2v10.2H132v-1.2h-0.1
				c-0.3,0.4-0.8,1.3-2.2,1.3C127.8,49.2,126.4,47.7,126.4,45.3z M132,45.3c0-1.7-0.8-2.9-2.2-2.9c-1.5,0-2.2,1.3-2.2,2.9
				c0,1.6,0.8,2.9,2.2,2.9C131.2,48.2,132,47,132,45.3z"/>
			<path style="fill:#FFFFFF;" d="M135.1,45.3c0-2.3,1.4-4,3.4-4c1.6,0,3.3,1,3.3,3.8v0.5h-5.5c0.1,1.6,1,2.5,2.4,2.5
				c0.9,0,1.6-0.4,1.9-1.2l1.1,0.3c-0.4,1.2-1.5,1.9-3,1.9C136.5,49.2,135.1,47.7,135.1,45.3z M140.7,44.6c0-1.3-0.8-2.2-2.1-2.2
				c-1.3,0-2.2,1.1-2.3,2.2H140.7z"/>
			<path style="fill:#FFFFFF;" d="M151,42.4h-1.7v6.6h-1.2v-6.6h-1.2v-1h1.2v-1.1c0-1.3,1.1-2,2.1-2c0.6,0,0.9,0.1,1.1,0.2l-0.3,1
				c-0.1,0-0.3-0.1-0.7-0.1c-0.8,0-1.1,0.4-1.1,1.2v0.8h1.7V42.4z"/>
			<path style="fill:#FFFFFF;" d="M151.9,45.3c0-2.4,1.4-4,3.5-4s3.5,1.6,3.5,4c0,2.4-1.4,3.9-3.5,3.9S151.9,47.7,151.9,45.3z
				 M157.7,45.3c0-1.5-0.7-2.9-2.3-2.9c-1.6,0-2.3,1.4-2.3,2.9s0.7,2.9,2.3,2.9C157,48.2,157.7,46.8,157.7,45.3z"/>
			<path style="fill:#FFFFFF;" d="M160.7,41.4h1.1v1.2h0.1c0.3-0.8,1.1-1.3,2-1.3c0.2,0,0.5,0,0.6,0v1.2c-0.1,0-0.4-0.1-0.7-0.1
				c-1.1,0-1.9,0.8-1.9,1.8v4.8h-1.2V41.4z"/>
		</g>
	</g>
	<path style="fill-rule:evenodd;clip-rule:evenodd;fill:#FFFFFF;" d="M192.2,37.8c0,0,0,0.1,0,0.1v5.2c0,0.1-0.1,0.3-0.2,0.3
		l-4.3,2.5v4.9c0,0.1-0.1,0.3-0.2,0.3l-9,5.2h-0.1l0,0c-0.1,0-0.1,0-0.2,0l0,0h-0.1l-9-5.2c-0.1-0.1-0.2-0.2-0.2-0.3V35.4
		c0-0.1,0-0.1,0-0.1l0,0v-0.1c0,0,0,0,0-0.1c0,0,0,0,0.1-0.1c0,0,0,0,0.1,0c0,0,0,0,0.1-0.1l0,0l4.5-2.6c0.1-0.1,0.3-0.1,0.4,0
		l4.5,2.6l0,0c0,0,0,0,0.1,0c0,0,0,0,0.1,0c0,0,0,0,0.1,0.1c0,0,0,0,0,0.1v0.1l0,0c0,0,0,0.1,0,0.1v9.6l3.7-2.1v-4.9
		c0-0.1,0-0.1,0-0.1l0,0v-0.1c0,0,0,0,0-0.1c0,0,0,0,0.1-0.1c0,0,0,0,0.1,0c0,0,0,0,0.1-0.1l0,0l4.5-2.6c0.1-0.1,0.3-0.1,0.4,0
		l4.5,2.6c0,0,0,0,0.1,0c0,0,0,0,0.1,0c0,0,0,0,0.1,0.1c0,0,0,0,0,0.1C192.2,37.7,192.2,37.7,192.2,37.8L192.2,37.8z M191.4,42.8
		v-4.3l-1.5,0.9l-2.2,1.2V45L191.4,42.8L191.4,42.8z M186.9,50.6v-4.3l-2.1,1.2l-6.1,3.5v4.3C178.7,55.3,186.9,50.6,186.9,50.6z
		 M169.7,36v14.6l8.3,4.8V51l-4.3-2.5l0,0l0,0c0,0,0,0-0.1,0c0,0,0,0-0.1,0l0,0c0,0,0,0,0-0.1c0,0,0,0,0-0.1l0,0c0,0,0,0,0-0.1
		c0,0,0,0,0-0.1l0,0v-0.1c0,0,0,0,0-0.1l0,0v-10l-2.2-1.2L169.7,36L169.7,36z M173.8,33.2l-3.7,2.1l3.7,2.1l3.7-2.1L173.8,33.2
		L173.8,33.2z M175.8,46.6l2.2-1.2V36l-1.5,0.9l-2.2,1.2v9.4C174.2,47.6,175.8,46.6,175.8,46.6z M187.3,35.7l-3.7,2.1l3.7,2.1
		l3.7-2.1L187.3,35.7z M186.9,40.7l-2.2-1.2l-1.5-0.9v4.3l2.2,1.2l1.5,0.9V40.7z M178.3,50.3l5.5-3.2l2.8-1.5l-3.7-2.1l-4.3,2.5
		l-3.9,2.3C174.5,48.2,178.3,50.3,178.3,50.3z"/>
</g>
<g>
	<path style="opacity:0;" d="M186,188.9L186,188.9L186,188.9L186,188.9 M169,179.1L169,179.1L169,179.1"/>
</g>
</svg>
