<svg xmlns="http://www.w3.org/2000/svg" viewBox="0 0 98 78" width="98" height="78">
    <defs>
        <linearGradient id="gradient" x1="0%" y1="0%" y2="0%">
            <stop stop-color="#78D695" offset="0%"></stop>
            <stop stop-color="#43AC97" offset="100%"></stop>
        </linearGradient>
    </defs>
    <g fill="none" fill-rule="evenodd">
        <path fill="url(#gradient)" d="M87.13 10H97.8l-8.27 31H78.87L69 78H0L20.8 0h69l-2.67 10zM69.8 21h-3.5l-3.22 12h3.5l3.22-12zm.68-2l.82-3h-3.68l-.82 3h3.68zm12.52-9l1.6-6H23.87L5.21 74h60.72l8.8-33h-24.2l8.27-31H83zm-5.14 23.28c.98 0 1.9-.2 2.77-.6a7.54 7.54 0 0 0 3.8-3.87 6.59 6.59 0 0 0 .14-4.95 5.17 5.17 0 0 0-3.05-3 6.77 6.77 0 0 0-2.47-.42c-1 0-1.93.2-2.8.6a7.54 7.54 0 0 0-3.78 3.86 6.7 6.7 0 0 0-.13 4.96 5.17 5.17 0 0 0 3.04 2.99c.73.28 1.56.43 2.48.43zm.16-3c-.8 0-1.44-.24-1.94-.72-.49-.48-.73-1.18-.73-2.08a4.52 4.52 0 0 1 .97-2.68c.3-.4.67-.72 1.11-.98.44-.26.92-.39 1.46-.39.8 0 1.44.24 1.93.73.5.48.74 1.17.74 2.08a4.56 4.56 0 0 1-.97 2.68c-.3.39-.68.71-1.11.97-.44.27-.93.4-1.46.4z"></path>
        <polygon fill="#313836" points="34.032 16 49.008 16 40.432 48 60.848 48 57.392 60.8 22 60.8"></polygon>
    </g>
</svg>
