<svg width="145" height="35" viewBox="0 0 145 35" fill="none" xmlns="http://www.w3.org/2000/svg">
<g clip-path="url(#clip0)">
<path d="M14.913 7.11805H21.4951L17.7251 21.1787H26.6975L25.1772 26.8029H9.62708L14.913 7.11805ZM31.7022 27.1412C30.6159 27.177 29.5593 26.7822 28.7627 26.0427C27.985 25.3134 27.5983 24.2852 27.5983 22.9494C27.5983 21.3193 28.1959 20.0231 29.3998 19.0564C30.595 18.0897 32.2822 17.6064 34.4572 17.6064C35.6216 17.6064 36.786 17.7777 37.946 18.1117L38.0031 17.9447C38.0383 17.8524 38.069 17.7338 38.0866 17.5932C38.1042 17.4526 38.113 17.3164 38.113 17.1846C38.113 16.1915 37.3265 15.695 35.7534 15.695C35.0416 15.695 34.2947 15.7565 33.5169 15.8796C32.7392 15.9982 32.0889 16.1652 31.5616 16.3717L30.718 12.0393C31.5616 11.7756 32.5459 11.5735 33.6707 11.4329C34.7956 11.2923 35.9204 11.222 37.0453 11.222C39.5937 11.222 41.4743 11.6746 42.6827 12.5753C43.2631 12.9879 43.7325 13.5375 44.0491 14.1753C44.3657 14.8132 44.5197 15.5194 44.4974 16.2311C44.4974 16.9209 44.4051 17.6371 44.2162 18.3665L41.9665 26.8029H35.5821L36.0039 25.2562C35.386 25.7869 34.7128 26.2494 33.9959 26.6359C33.2837 26.9882 32.4965 27.1616 31.7022 27.1412ZM34.7956 23.5118C35.3009 23.5118 35.793 23.279 36.2719 22.8088C36.7604 22.3211 37.1055 21.7086 37.2693 21.0381L37.4407 20.3921C37.0574 20.2774 36.6589 20.2211 36.2587 20.2252C35.4546 20.2252 34.8351 20.4053 34.4045 20.77C33.9695 21.1347 33.7542 21.6488 33.7542 22.3035C33.7542 22.699 33.8553 22.9977 34.053 23.2043C34.2463 23.4108 34.4924 23.5118 34.8 23.5118H34.7956ZM47.7884 11.4505H54.1728L53.3556 14.5438C54.0004 13.5611 54.8319 12.7147 55.803 12.0524C56.7623 11.432 57.8974 11.1405 59.0369 11.222L57.2354 18.0018H56.5631C55.0428 18.0018 53.8565 18.4061 53.004 19.2102C52.1516 20.0143 51.5101 21.2753 51.0795 22.9802L50.0689 26.8029H43.6801L47.784 11.4505H47.7884ZM61.1197 27.1368C60.0324 27.175 58.9742 26.7817 58.1757 26.0427C57.4024 25.3134 57.0113 24.2852 57.0113 22.9494C57.0113 21.3193 57.6133 20.0231 58.8128 19.0564C60.0124 18.0897 61.6996 17.6064 63.8746 17.6064C65.0346 17.6064 66.199 17.7777 67.359 18.1117L67.4162 17.9447C67.4557 17.8524 67.4821 17.7338 67.504 17.5932C67.5216 17.4526 67.5304 17.3164 67.5304 17.1846C67.5304 16.1915 66.7395 15.695 65.1665 15.695C64.4546 15.695 63.7077 15.7565 62.93 15.8796C62.1522 15.9982 61.5019 16.1652 60.979 16.3717L60.1354 12.0393C60.979 11.7756 61.9633 11.5735 63.0881 11.4329C64.213 11.2923 65.3378 11.222 66.4627 11.222C69.0112 11.222 70.8918 11.6746 72.1001 12.5753C72.6805 12.9879 73.1499 13.5375 73.4665 14.1753C73.7831 14.8132 73.9371 15.5194 73.9148 16.2311C73.9148 16.9209 73.8181 17.6371 73.6336 18.3665L71.3839 26.8029H64.9995L65.4213 25.2562C64.8021 25.7871 64.1273 26.2497 63.4089 26.6359C62.6981 26.9875 61.9124 27.1609 61.1197 27.1412V27.1368ZM64.213 23.5118C64.7183 23.5118 65.2104 23.279 65.6893 22.8088C66.1778 22.3211 66.5229 21.7086 66.6868 21.0381L66.8537 20.3921C66.4704 20.2774 66.0719 20.2211 65.6718 20.2252C64.8677 20.2252 64.2481 20.4053 63.8175 20.77C63.3869 21.1347 63.1716 21.6488 63.1716 22.3035C63.1716 22.699 63.2683 22.9977 63.466 23.2043C63.6637 23.4108 63.9098 23.5118 64.213 23.5118ZM76.3578 11.4505H82.9136L83.3354 19.1531L87.8875 11.4505H94.6366L84.2889 26.9171H78.4406L76.3578 11.4505ZM98.6615 20.6162C98.673 21.1795 98.9049 21.7159 99.3074 22.1102C99.7028 22.4837 100.252 22.6682 100.964 22.6682C101.491 22.6682 102.001 22.5671 102.502 22.3606C103.057 22.1186 103.58 21.807 104.057 21.4335L107.01 24.6674C106.131 25.454 105.151 26.0691 104.075 26.5085C102.994 26.9479 101.781 27.1676 100.428 27.1676C99.3589 27.1819 98.2953 27.0155 97.2818 26.6755C96.4058 26.3827 95.5985 25.9148 94.909 25.3002C94.261 24.7096 93.7509 23.9835 93.4151 23.1735C93.0594 22.2992 92.8831 21.3623 92.8966 20.4185C92.8966 19.2585 93.1075 18.1117 93.5293 16.9912C93.9475 15.8655 94.5855 14.8343 95.4063 13.9577C96.2271 13.0811 97.2141 12.3767 98.31 11.8855C99.5419 11.334 100.88 11.0595 102.229 11.0814C103.486 11.0814 104.545 11.2791 105.411 11.6746C106.191 12.0026 106.888 12.5031 107.448 13.1385C108.008 13.7738 108.417 14.5277 108.644 15.3435C108.864 16.1388 108.978 16.9429 108.978 17.747C108.978 18.2523 108.943 18.7488 108.869 19.2409C108.794 19.7243 108.68 20.1856 108.53 20.6162H98.6615ZM103.385 17.8041C103.46 17.5976 103.495 17.3735 103.495 17.1274C103.498 16.7069 103.343 16.3004 103.06 15.9894C102.905 15.8225 102.715 15.6919 102.504 15.6069C102.293 15.5218 102.066 15.4844 101.838 15.4973C101.351 15.4973 100.841 15.6687 100.305 16.0026C99.7687 16.3409 99.3513 16.9429 99.0525 17.8041H103.385ZM113.706 6.27441H120.086L114.576 26.8029H108.192L113.706 6.27441ZM117.503 23.8502H120.064L119.273 26.8029H116.69L117.503 23.8502ZM126.787 12.2634H128.953L125.043 26.8029H122.881L126.791 12.2634H126.787ZM128.136 6.69623H130.614L129.964 9.08654H127.49L128.136 6.69623ZM136.296 27.1412C135.369 27.1531 134.448 26.986 133.584 26.6491C132.803 26.3526 132.094 25.8938 131.503 25.303C130.913 24.7122 130.454 24.0029 130.157 23.2218C129.839 22.3903 129.68 21.5065 129.687 20.6162C129.687 19.4914 129.916 18.4061 130.377 17.3559C131.268 15.2829 132.896 13.614 134.947 12.672C135.978 12.1942 137.101 11.9497 138.238 11.9558C139.231 11.9558 140.136 12.1184 140.949 12.4479C141.73 12.7407 142.44 13.1949 143.034 13.781C143.627 14.367 144.091 15.0716 144.394 15.8488C144.72 16.6769 144.884 17.56 144.877 18.45C144.877 19.6144 144.64 20.7173 144.174 21.7674C143.717 22.7971 143.077 23.735 142.285 24.5356C141.501 25.3319 140.578 25.9768 139.56 26.4382C138.536 26.9056 137.422 27.1455 136.296 27.1412ZM136.436 25.1991C137.245 25.1991 138.018 25.019 138.769 24.6499C139.521 24.2852 140.189 23.7931 140.769 23.1735C141.352 22.5503 141.818 21.8268 142.144 21.0381C142.48 20.2458 142.653 19.3941 142.654 18.5335C142.654 17.0527 142.232 15.9059 141.388 15.0887C140.544 14.2758 139.446 13.8671 138.093 13.8671C137.253 13.8671 136.454 14.0605 135.707 14.4427C134.96 14.8294 134.301 15.3303 133.738 15.9499C133.169 16.579 132.713 17.3014 132.389 18.0853C132.056 18.8675 131.882 19.7087 131.88 20.5591C131.88 22.0399 132.301 23.1867 133.145 23.9908C133.989 24.7949 135.087 25.1991 136.441 25.1991H136.436Z" fill="white"/>
<path d="M29.9886 28.6792C30.5633 28.8318 31.156 28.9057 31.7506 28.8989L30.3182 34.2727H0L9.13939 0H39.4576L36.9311 9.46455C36.3203 9.46894 35.7095 9.49091 35.0988 9.53045L37.1683 1.75758H10.4883L2.28924 32.5152H28.9692L29.9886 28.6792Z" fill="url(#paint0_linear)"/>
</g>
<defs>
<linearGradient id="paint0_linear" x1="0" y1="0" x2="39.4576" y2="0" gradientUnits="userSpaceOnUse">
<stop stop-color="#78D695"/>
<stop offset="1" stop-color="#43AC97"/>
</linearGradient>
<clipPath id="clip0">
<rect width="145" height="34.2727" fill="white"/>
</clipPath>
</defs>
</svg>
