<svg width="98" height="78" viewBox="0 0 98 78" fill="none" xmlns="http://www.w3.org/2000/svg">
<path fill-rule="evenodd" clip-rule="evenodd" d="M68.1541 24.5H73.5L69.3565 40H64.0156L59.0705 58.5H24.5L34.9213 19.5H69.4918L68.1541 24.5ZM59.4714 30H57.7178L56.1045 36H57.8581L59.4714 30ZM59.8121 29L60.2229 27.5H58.3791L57.9683 29H59.8121ZM66.0849 24.5L66.8865 21.5H36.4594L27.1103 56.5H57.5324L61.9414 40H49.8167L53.9601 24.5H66.0849ZM63.5096 36.14C64.0006 36.14 64.4615 36.04 64.8974 35.84C65.7506 35.453 66.4292 34.7633 66.8013 33.905C67.1462 33.1205 67.1714 32.2327 66.8715 31.43C66.7388 31.0856 66.5338 30.7736 66.2702 30.5149C66.0066 30.2561 65.6906 30.0567 65.3433 29.93C64.9475 29.7838 64.5278 29.7126 64.1058 29.72C63.6048 29.72 63.1389 29.82 62.703 30.02C61.8545 30.4078 61.1798 31.0953 60.8091 31.95C60.4702 32.7379 60.4469 33.6255 60.744 34.43C60.8767 34.773 61.0812 35.0837 61.3439 35.3415C61.6065 35.5993 61.9213 35.7982 62.2671 35.925C62.6328 36.065 63.0487 36.14 63.5096 36.14V36.14ZM63.5898 34.64C63.189 34.64 62.8683 34.52 62.6178 34.28C62.3723 34.04 62.252 33.69 62.252 33.24C62.265 32.7527 62.4355 32.2827 62.738 31.9C62.8883 31.7 63.0737 31.54 63.2942 31.41C63.5146 31.28 63.7551 31.215 64.0257 31.215C64.4265 31.215 64.7471 31.335 64.9926 31.58C65.2431 31.82 65.3634 32.165 65.3634 32.62C65.349 33.107 65.1787 33.5766 64.8774 33.96C64.7271 34.155 64.5367 34.315 64.3213 34.445C64.1008 34.58 63.8553 34.645 63.5898 34.645V34.64Z" fill="url(#paint0_linear_1_2)"/>
<path fill-rule="evenodd" clip-rule="evenodd" d="M41.5508 27.5H49.0541L44.7573 43.5H54.9862L53.2547 49.9H35.5225L41.5508 27.5Z" fill="#888888"/>
<defs>
<linearGradient id="paint0_linear_1_2" x1="24.5" y1="19.5" x2="73.5" y2="19.5" gradientUnits="userSpaceOnUse">
<stop stop-color="#AAAAAA"/>
<stop offset="1" stop-color="#AAAAAA"/>
</linearGradient>
</defs>
</svg>
