<?xml version="1.0" encoding="UTF-8"?>
<svg width="514px" height="514px" viewBox="0 0 514 514" version="1.1" xmlns="http://www.w3.org/2000/svg" xmlns:xlink="http://www.w3.org/1999/xlink">
    <!-- Generator: Sketch 48.2 (47327) - http://www.bohemiancoding.com/sketch -->
    <title>logo</title>
    <desc>Created with Sketch.</desc>
    <defs></defs>
    <g id="Page-1" stroke="none" stroke-width="1" fill="none" fill-rule="evenodd">
        <g id="logo" transform="translate(1.000000, 1.000000)">
            <circle id="Oval" stroke="#D72047" fill="#D72047" fill-rule="nonzero" cx="256" cy="256" r="256"></circle>
            <path d="M146,160 L365,160 C366.104569,160 367,160.895431 367,162 L367,350 C367,351.104569 366.104569,352 365,352 L146,352 C144.895431,352 144,351.104569 144,350 L144,162 C144,160.895431 144.895431,160 146,160 Z" id="Rectangle" stroke="#FFFFFF" stroke-width="12" fill="#139F00" fill-rule="nonzero"></path>
            <path d="M148,193.5 L365.5,193.5" id="Line" stroke="#FFFFFF" stroke-width="12" stroke-linecap="square"></path>
            <path d="M225.503867,286.743056 C226.087296,287.743061 226.379006,288.776384 226.379006,289.843056 C226.379006,290.909728 226.087296,291.793053 225.503867,292.493056 C224.920439,293.19306 224.177905,293.543056 223.276243,293.543056 C222.692815,293.543056 222.029838,293.343058 221.287293,292.943056 C219.961319,291.74305 218.476251,290.376397 216.832044,288.843056 C215.187837,287.309715 213.517136,285.743064 211.81989,284.143056 C210.122643,282.543048 208.451942,280.959731 206.807735,279.393056 C205.163528,277.826382 203.651941,276.443062 202.272928,275.243056 C201.424305,274.176384 201,273.076395 201,271.943056 C201,270.609716 201.503862,269.443061 202.511602,268.443056 L204.301657,266.643056 C205.229839,265.709718 206.356899,264.609729 207.682873,263.343056 C209.008846,262.076383 210.401098,260.70973 211.859669,259.243056 C213.318239,257.776382 214.710491,256.409729 216.036464,255.143056 C217.362438,253.876383 218.502758,252.759728 219.457459,251.793056 C220.412159,250.826385 220.995579,250.243057 221.207735,250.043056 C221.897241,249.709721 222.480661,249.543056 222.958011,249.543056 C223.859673,249.543056 224.602207,249.909719 225.185635,250.643056 C225.769064,251.376393 226.060773,252.276384 226.060773,253.343056 C226.060773,254.476395 225.716026,255.576384 225.026519,256.643056 C224.124857,257.576394 222.984537,258.709716 221.605525,260.043056 C220.226512,261.376396 218.794483,262.776382 217.309392,264.243056 C215.824302,265.70973 214.392272,267.109716 213.01326,268.443056 C211.634247,269.776396 210.493927,270.909718 209.592265,271.843056 C210.653044,272.843061 211.886181,273.99305 213.291713,275.293056 C214.697245,276.593063 216.116015,277.926383 217.548066,279.293056 C218.980118,280.65973 220.398888,281.99305 221.80442,283.293056 C223.209952,284.593063 224.443089,285.743051 225.503867,286.743056 Z M282.944104,286.743056 C282.314698,287.743061 282,288.776384 282,289.843056 C282,290.909728 282.314698,291.793053 282.944104,292.493056 C283.573509,293.19306 284.374559,293.543056 285.347277,293.543056 C285.976682,293.543056 286.691905,293.343058 287.492967,292.943056 C288.923434,291.74305 290.525533,290.376397 292.299312,288.843056 C294.073092,287.309715 295.875453,285.743064 297.706451,284.143056 C299.537449,282.543048 301.339811,280.959731 303.11359,279.393056 C304.88737,277.826382 306.518078,276.443062 308.005764,275.243056 C308.921263,274.176384 309.379006,273.076395 309.379006,271.943056 C309.379006,270.609716 308.835436,269.443061 307.748281,268.443056 L305.81716,266.643056 C304.815833,265.709718 303.599954,264.609729 302.169487,263.343056 C300.73902,262.076383 299.237052,260.70973 297.663538,259.243056 C296.090024,257.776382 294.588056,256.409729 293.157588,255.143056 C291.727121,253.876383 290.496938,252.759728 289.467002,251.793056 C288.437065,250.826385 287.807669,250.243057 287.578794,250.043056 C286.834951,249.709721 286.205555,249.543056 285.690587,249.543056 C284.717869,249.543056 283.91682,249.909719 283.287414,250.643056 C282.658008,251.376393 282.34331,252.276384 282.34331,253.343056 C282.34331,254.476395 282.715226,255.576384 283.459069,256.643056 C284.431787,257.576394 285.66197,258.709716 287.149656,260.043056 C288.637342,261.376396 290.182224,262.776382 291.784347,264.243056 C293.38647,265.70973 294.931351,267.109716 296.419037,268.443056 C297.906723,269.776396 299.136907,270.909718 300.109624,271.843056 C298.965251,272.843061 297.634936,273.99305 296.118641,275.293056 C294.602346,276.593063 293.071769,277.926383 291.526864,279.293056 C289.981959,280.65973 288.451382,281.99305 286.935087,283.293056 C285.418792,284.593063 284.088477,285.743051 282.944104,286.743056 Z M257.511606,243.567036 C258.134072,242.072254 259.047731,241.229466 260.25261,241.038645 C261.038401,240.914197 261.791232,241.090315 262.511126,241.567002 C263.23102,242.04369 263.66563,242.753498 263.814968,243.696447 C263.889637,244.167921 263.849934,244.7649 263.695859,245.487401 C262.616223,249.754322 261.532531,254.011659 260.444775,258.259434 C259.036843,263.757526 257.622103,269.2396 256.200543,274.705708 C253.680699,284.394881 251.156093,294.138367 248.626648,303.93646 C248.298822,304.579079 247.891652,305.059732 247.405126,305.378435 C246.9186,305.697137 246.439607,305.89382 245.968133,305.968489 C245.182343,306.092937 244.455704,305.912671 243.788196,305.427687 C243.120687,304.942703 242.703974,304.176362 242.538043,303.128641 L242.457153,302.61788 C242.428115,302.434528 242.423196,302.233936 242.442396,302.016095 C244.919454,292.226299 247.417867,282.48696 249.937711,272.797788 C252.457556,263.108615 254.982162,253.365129 257.511606,243.567036 Z" id="&lt;/&gt;" fill="#FFFFFF" fill-rule="nonzero"></path>
            <circle id="Oval-2" fill="#FFFFFF" fill-rule="nonzero" cx="162" cy="177" r="6"></circle>
            <circle id="Oval-2-Copy" fill="#FFFFFF" fill-rule="nonzero" cx="178" cy="177" r="6"></circle>
            <circle id="Oval-2-Copy-2" fill="#FFFFFF" fill-rule="nonzero" cx="194" cy="177" r="6"></circle>
        </g>
    </g>
</svg>