<svg xmlns="http://www.w3.org/2000/svg" viewBox="0 0 20 20" fill="currentColor">
    <path fill="currentColor" fill-rule="evenodd" d="M18.8961111,0 L1.10388889,0 C0.494166667,0 0,0.494166667 0,1.10388889 L0,18.8963889 C0,19.5058333 0.494166667,20 1.10388889,20 L10.6825,20 L10.6825,12.255 L8.07611111,12.255 L8.07611111,9.23666667 L10.6825,9.23666667 L10.6825,7.01055556 C10.6825,4.42722222 12.2602778,3.02083333 14.5647222,3.02083333 C15.6686111,3.02083333 16.6172222,3.10277778 16.8938889,3.13972222 L16.8938889,5.83944444 L15.2955556,5.84027778 C14.0422222,5.84027778 13.7997222,6.43583333 13.7997222,7.30972222 L13.7997222,9.23694444 L16.7886111,9.23694444 L16.3994444,12.2552778 L13.7997222,12.2552778 L13.7997222,20 L18.8963889,20 C19.5058333,20 20,19.5058333 20,18.8961111 L20,1.10388889 C20,0.494166667 19.5058333,0 18.8961111,0 L18.8961111,0 Z"></path>
</svg>