<svg version="1.1" xmlns="http://www.w3.org/2000/svg" xmlns:xlink="http://www.w3.org/1999/xlink" x="0px" y="0px" viewBox="0 0 613 613" enable-background="new 0 0 613 613" xml:space="preserve" fill="currentColor">
    <path d="M560.545,381.875l-27.471,15.861l-38.396-66.503l48.025-27.728l-34.841-60.346l-48.025,27.728l-39.155-67.818l27.471-15.861l-37.701-65.299l-9.711,5.606C356.172,51.868,305.893,23.161,278.723,14.663h-51.12c62.986,22.604,109.008,66.007,142.257,130.68l-9.109,5.259C303.133,83.736,227.673,33.914,145.365,14.663H23.214C127.024,31.23,215.576,94.158,278.32,198.194l-1.803,1.041c-51.429-50.818-104.233-94.916-163.59-125.529c39.332,27.599,74.687,65.615,108.76,113.242C160.451,125.718,97.952,75,21.725,49.332v42.224C90.799,110.67,157.834,162.097,211.3,236.889l-8.976,5.182l37.701,65.299l27.468-15.859l39.155,67.818L84.509,487.584l-5.438-9.42l-62.331,35.987l45.718,79.185l62.331-35.987l-5.438-9.42l222.14-128.254l38.396,66.503l-27.468,15.859l37.701,65.299l208.127-120.163L560.545,381.875z M207.351,63.052c49.941,20.621,94.916,59.213,118.793,107.531l-13.617,7.862L207.351,63.052z"></path>
</svg>