<?xml version="1.0" standalone="no"?>
<!DOCTYPE svg PUBLIC "-//W3C//DTD SVG 20010904//EN"
 "http://www.w3.org/TR/2001/REC-SVG-20010904/DTD/svg10.dtd">
<svg version="1.0" xmlns="http://www.w3.org/2000/svg"
 width="196.000000pt" height="196.000000pt" viewBox="0 0 196.000000 196.000000"
 preserveAspectRatio="xMidYMid meet">
<metadata>
Created by potrace 1.11, written by Peter Selinger 2001-2013
</metadata>
<g transform="translate(0.000000,196.000000) scale(0.100000,-0.100000)"
fill="#000000" stroke="none">
<path d="M210 998 c-111 -420 -205 -771 -208 -781 -4 -16 32 -17 689 -15 l693
3 98 365 c53 201 98 366 98 367 0 1 48 4 107 5 l108 3 82 305 c45 168 82 306
83 308 0 1 -47 2 -105 2 -58 0 -105 4 -105 9 0 5 11 50 24 100 l25 91 -693 0
-692 0 -204 -762z m1463 622 l-15 -60 -243 0 -242 0 -78 -292 c-43 -161 -80
-301 -83 -310 -4 -17 12 -18 238 -18 226 0 242 -1 238 -17 -3 -10 -43 -159
-88 -331 l-84 -312 -604 0 -604 0 6 27 c15 60 348 1310 357 1341 l11 32 603 0
603 0 -15 -60z m-253 -187 c-1 -38 -14 -53 -47 -53 -28 0 -34 3 -29 16 3 9 6
22 6 30 0 9 11 14 35 14 19 0 35 -3 35 -7z m216 -98 c84 -35 79 -162 -9 -215
-49 -30 -109 -26 -149 9 -29 26 -33 36 -33 79 0 59 22 95 75 123 42 23 69 24
116 4z m-246 -2 c0 -4 -9 -39 -19 -77 -11 -39 -25 -90 -31 -113 -10 -38 -14
-43 -40 -43 -17 0 -30 5 -30 11 0 10 44 182 55 217 4 12 65 18 65 5z"/>
<path d="M675 1428 c-9 -24 -235 -869 -235 -879 0 -5 137 -9 354 -9 l354 0 11
33 c5 17 19 68 31 112 12 44 24 88 26 97 5 16 -11 18 -199 20 l-203 3 77 288
c43 159 81 301 84 318 l7 29 -152 0 c-111 0 -152 -3 -155 -12z"/>
<path d="M1538 1276 c-40 -30 -42 -105 -3 -120 29 -11 45 -7 70 19 27 26 34
82 13 103 -16 16 -58 15 -80 -2z"/>
</g>
</svg>
