<?xml version="1.0" encoding="UTF-8"?>
<svg width="582px" height="139px" viewBox="0 0 582 139" version="1.1" xmlns="http://www.w3.org/2000/svg" xmlns:xlink="http://www.w3.org/1999/xlink">
    <!-- Generator: Sketch 61.2 (89653) - https://sketch.com -->
    <title>Group 2@2x</title>
    <desc>Created with Sketch.</desc>
    <defs>
        <linearGradient x1="16.4745781%" y1="100%" x2="83.9602002%" y2="1.81617181%" id="linearGradient-1">
            <stop stop-color="#FD1EA6" offset="0%"></stop>
            <stop stop-color="#FD6C6B" offset="99.6949883%"></stop>
            <stop stop-color="#FD6C6B" offset="100%"></stop>
        </linearGradient>
    </defs>
    <g id="Logo" stroke="none" stroke-width="1" fill="none" fill-rule="evenodd">
        <g id="Logo-2" transform="translate(-221.000000, -443.000000)">
            <g id="Group-2" transform="translate(221.000000, 443.000000)">
                <g id="Group">
                    <path d="M113.35136,86 C114.483189,104.310295 106.452838,116.55748 89.2603064,122.741554 L0.731171038,138.351629 C-0.39180079,120.184624 7.5045692,107.986205 24.420281,101.756372 L113.35136,86 Z M113.810094,43 C114.941923,61.310295 106.911572,73.5574798 89.719041,79.7415543 L1.18990566,95.3516294 C0.0669338339,77.1846238 7.96330383,64.9862045 24.8790156,58.7563717 L113.810094,43 Z M113.35136,-3.97903932e-13 C114.483189,18.310295 106.452838,30.5574798 89.2603064,36.7415543 L0.731171038,52.3516294 C-0.39180079,34.1846238 7.5045692,21.9862045 24.420281,15.7563717 L113.35136,-3.97903932e-13 Z" id="Combined-Shape" fill="url(#linearGradient-1)"></path>
                    <path d="M-46,92.4848078 C-43.8658791,74.3987977 -33.5589628,63.7568901 -15.0792511,60.559085 L79,60.4848078 C76.8490466,78.7134683 66.395866,89.380135 47.6404583,92.4848078 L-46,92.4848078 Z" id="Path-Copy-6" fill-opacity="0.15" fill="#2A1D5D" transform="translate(16.500000, 76.484808) scale(-1, 1) rotate(-90.000000) translate(-16.500000, -76.484808) "></path>
                </g>
                <g id="Group-47" transform="translate(154.000000, 10.000000)" fill="#2A1D5D" fill-rule="nonzero">
                    <polygon id="Path" points="147 19 125.233328 19 109.886315 71.9466415 109.114041 71.9466415 93.7182123 19 72 19 97.9171395 93 121.083336 93"></polygon>
                    <path d="M182.359839,93 C200.492199,93 212.421909,82.8889789 215.284852,69.23206 L196.770844,69.23206 C194.719342,74.8385362 189.470223,77.7616494 182.694514,77.7616494 C172.530951,77.7616494 166.088743,71.0050089 166.088743,60.0315709 L166.088743,59.9835737 L216,59.9835737 L216,54.3770975 C216,29.3632346 200.921993,17 181.549572,17 C159.981211,17 146,32.3821064 146,55.0958765 C146,78.4325491 159.790975,93 182.359839,93 Z M166.088743,47.3329454 C166.518537,38.9471118 172.864452,32.2383506 181.883073,32.2383506 C190.710284,32.2383506 196.81899,38.5637237 196.865962,47.3329454 L166.088743,47.3329454 Z" id="Shape"></path>
                    <path d="M36.3598999,93 C54.4921733,93 66.4213159,82.8889789 69.2842632,69.23206 L50.7703418,69.23206 C48.7184847,74.8385362 43.4697089,77.7616494 36.6939888,77.7616494 C26.5304085,77.7616494 20.0886598,71.0050089 20.0886598,60.0315709 L20.0886598,59.9835737 L70,59.9835737 L70,54.3770975 C70,29.3632346 54.9216154,17 35.5488098,17 C13.9808824,17 0,32.3821064 0,55.0958765 C0,78.4325491 13.7900584,93 36.3598999,93 Z M20.0886598,47.3329454 C20.5181019,38.9471118 26.8643799,32.2383506 35.8827812,32.2383506 C44.7103585,32.2383506 50.8180185,38.5637237 50.8656951,47.3329454 L20.0886598,47.3329454 Z" id="Shape"></path>
                    <path d="M246.457437,49.1979822 C246.505892,39.6543026 252.172755,34.0629674 260.432549,34.0629674 C268.643888,34.0629674 273.589836,39.4614243 273.542563,48.5231454 L273.542563,92 L294,92 L294,44.8598813 C294,27.6041543 283.915465,17 268.548159,17 C257.671166,17 251.033203,18.8952637 246.428269,26.1191406 C246.406689,26.1529946 246.384502,23.4346263 246.361709,17.9640356 L226,17.9640356 L226,92 L246.457437,92 L246.457437,49.1979822 Z" id="Path"></path>
                    <path d="M346.649365,17.5804217 L332.69874,17.5804217 L332.69874,0 L312.136298,0 L312.136298,17.5804217 L302,17.5804217 L302,32.8676631 L312.136298,32.8676631 L312.136298,71.0858842 C312.040079,85.4654941 321.935234,92.5836997 336.850429,91.9625835 C342.160314,91.7715341 345.92475,90.7205862 348,90.0517371 L348,73.5701138 C346.986727,73.7611632 341.580622,75.5765437 339.650294,75.5765437 C335.547309,75.5765437 332.69874,74.047796 332.69874,68.4106052 L332.69874,32.8676631 L346.649365,32.8676631 L346.649365,17.5804217 Z" id="Path"></path>
                    <path d="M371.581044,118 C386.880355,118 395.036582,110.289779 399.186555,98.5087699 L428,17.0958179 L406.233431,17 L390.740518,71.0199832 L389.968485,71.0199832 L374.621664,17 L353,17 L379.592367,92.666233 L378.38562,95.7790784 C375.489904,102.435773 365.885818,100.759607 358.646528,98.5087699 L358.646528,115.940798 C361.589754,117.137992 366.368042,118 371.581044,118 Z" id="Path"></path>
                </g>
            </g>
        </g>
    </g>
</svg>