
<svg width="510px" height="133px" viewBox="0 0 510 133" version="1.1" xmlns="http://www.w3.org/2000/svg" xmlns:xlink="http://www.w3.org/1999/xlink">
    <!-- Generator: Sketch 51.3 (57544) - http://www.bohemiancoding.com/sketch -->
    <desc>Created with Sketch.</desc>
    <defs></defs>
    <g id="Page-1" stroke="none" stroke-width="1">
        <path d="M0.928,80.104 L0.928,6.808 C0.928,2.92 2.944,0.76 6.832,0.76 L13.168,0.76 C17.056,0.76 19.072,2.92 19.072,6.808 L19.072,78.664 C19.072,85.864 22.096,87.16 24.832,87.448 C27.424,87.736 29.296,89.32 29.296,92.632 L29.296,97.528 C29.296,101.272 27.568,103.72 23.248,103.72 C13.456,103.72 0.928,101.128 0.928,80.104 Z M35.632,82.696 C35.632,61.24 62.128,57.64 78.544,57.64 L81.568,57.64 L81.568,55.912 C81.568,46.264 75.376,42.952 67.888,42.952 C61.696,42.952 56.08,45.256 52.624,47.128 C49.024,48.712 46.288,48.136 44.56,44.68 L43.12,41.944 C41.392,38.632 41.968,35.752 45.424,33.88 C50.176,31.432 58.528,27.832 69.472,27.832 C88.48,27.832 99.856,38.488 99.856,57.064 L99.856,96.952 C99.856,100.984 97.84,103 93.808,103 L88.912,103 C85.024,103 83.008,100.984 83.008,96.952 L83.008,94.072 C83.008,92.056 83.296,90.904 83.296,90.904 L83.008,90.904 C83.008,90.904 76.096,104.728 59.968,104.728 C46.576,104.728 35.632,96.088 35.632,82.696 Z M53.776,81.112 C53.776,86.008 57.52,90.76 64.864,90.76 C75.088,90.76 81.712,80.392 81.712,71.464 L81.712,68.728 L78.688,68.728 C69.472,68.728 53.776,70.168 53.776,81.112 Z M116.848,96.952 L116.848,35.608 C116.848,31.72 118.864,29.56 122.752,29.56 L128.368,29.56 C132.256,29.56 134.416,31.72 134.416,35.608 L134.416,42.52 C134.416,45.256 133.984,47.56 133.984,47.56 L134.272,47.56 C137.152,38.776 145.216,28.984 155.584,28.984 C159.616,28.984 161.056,31 161.056,35.032 L161.056,40.648 C161.056,44.536 158.752,46.696 154.864,46.696 C141.472,46.696 134.992,59.944 134.992,73.336 L134.992,96.952 C134.992,100.984 132.976,103 129.088,103 L122.752,103 C118.864,103 116.848,100.984 116.848,96.952 Z M164.512,82.696 C164.512,61.24 191.008,57.64 207.424,57.64 L210.448,57.64 L210.448,55.912 C210.448,46.264 204.256,42.952 196.768,42.952 C190.576,42.952 184.96,45.256 181.504,47.128 C177.904,48.712 175.168,48.136 173.44,44.68 L172,41.944 C170.272,38.632 170.848,35.752 174.304,33.88 C179.056,31.432 187.408,27.832 198.352,27.832 C217.36,27.832 228.736,38.488 228.736,57.064 L228.736,96.952 C228.736,100.984 226.72,103 222.688,103 L217.792,103 C213.904,103 211.888,100.984 211.888,96.952 L211.888,94.072 C211.888,92.056 212.176,90.904 212.176,90.904 L211.888,90.904 C211.888,90.904 204.976,104.728 188.848,104.728 C175.456,104.728 164.512,96.088 164.512,82.696 Z M182.656,81.112 C182.656,86.008 186.4,90.76 193.744,90.76 C203.968,90.76 210.592,80.392 210.592,71.464 L210.592,68.728 L207.568,68.728 C198.352,68.728 182.656,70.168 182.656,81.112 Z M251.776,17.032 C247.888,17.032 245.728,15.016 245.728,11.128 L245.728,6.808 C245.728,2.92 247.888,0.76 251.776,0.76 L258.112,0.76 C262,0.76 264.016,2.92 264.016,6.808 L264.016,11.128 C264.016,15.016 262,17.032 258.112,17.032 L251.776,17.032 Z M245.728,103.72 L245.728,35.608 C245.728,31.72 247.888,29.56 251.776,29.56 L257.968,29.56 C262,29.56 264.016,31.72 264.016,35.608 L264.016,104.872 C264.016,128.776 243.136,132.808 235.936,132.808 L233.776,132.808 C229.888,132.808 227.872,130.792 227.872,126.76 L227.872,123.016 C227.872,118.408 230.752,117.544 233.776,117.112 C238.816,116.536 245.728,114.952 245.728,103.72 Z M277.552,66.28 C277.552,43.816 295.552,27.832 317.872,27.832 C340.192,27.832 358.336,43.816 358.336,66.28 C358.336,88.888 340.192,104.728 317.872,104.728 C295.552,104.728 277.552,88.888 277.552,66.28 Z M296.128,66.28 C296.128,79.96 305.92,89.176 317.872,89.176 C329.824,89.176 339.76,79.96 339.76,66.28 C339.76,52.744 329.824,43.384 317.872,43.384 C305.92,43.384 296.128,52.744 296.128,66.28 Z M371.728,96.952 L371.728,6.808 C371.728,2.92 373.888,0.76 377.776,0.76 L383.968,0.76 C388,0.76 390.016,2.92 390.016,6.808 L390.016,33.448 C390.016,37.048 389.584,39.64 389.584,39.64 L389.872,39.64 C389.872,39.64 396.352,27.832 412.336,27.832 C431.776,27.832 444.736,43.528 444.736,66.136 C444.736,89.608 430.192,104.728 411.184,104.728 C394.624,104.728 388.72,92.344 388.72,92.344 L388.432,92.344 C388.432,92.344 388.72,93.496 388.72,95.512 L388.72,97.816 C388.72,100.984 386.704,103 382.672,103 L377.776,103 C373.888,103 371.728,100.984 371.728,96.952 Z M389.44,66.28 C389.44,78.232 395.632,89.32 407.584,89.32 C417.808,89.32 426.16,81.112 426.16,66.568 C426.16,52.744 418.672,43.528 408.016,43.528 C398.512,43.528 389.44,50.584 389.44,66.28 Z M456.832,97.24 C453.52,95.368 453.232,92.2 455.392,89.032 L457.12,86.44 C459.28,83.416 461.728,83.128 465.328,85 C468.784,86.872 474.256,90.04 481.744,90.04 C488.08,90.04 491.968,87.16 491.968,82.552 C491.968,70.6 455.536,75.064 455.536,49.864 C455.536,35.464 468.208,27.832 483.616,27.832 C493.408,27.832 500.176,31 504.064,33.16 C507.376,34.888 507.808,37.912 506.224,41.224 L504.784,43.816 C503.056,47.272 500.32,47.704 496.72,46.12 C493.552,44.68 488.8,42.52 482.752,42.52 C476.416,42.52 472.816,45.112 472.816,49.72 C472.816,61.816 509.248,57.064 509.248,82.12 C509.248,95.08 498.304,104.728 481.312,104.728 C469.504,104.728 461.296,100.264 456.832,97.24 Z" id="larajobs" fill="#30BCED"></path>
    </g>
</svg>