<svg width="287" height="56" viewBox="0 0 287 56" fill="none" xmlns="http://www.w3.org/2000/svg">
<path d="M63.048 39.336H71.832V42H59.772V16.908H63.048V39.336ZM86.6871 42.252C84.3591 42.252 82.2351 41.712 80.3151 40.632C78.3951 39.528 76.8711 38.004 75.7431 36.06C74.6391 34.092 74.0871 31.884 74.0871 29.436C74.0871 26.988 74.6391 24.792 75.7431 22.848C76.8711 20.88 78.3951 19.356 80.3151 18.276C82.2351 17.172 84.3591 16.62 86.6871 16.62C89.0391 16.62 91.1751 17.172 93.0951 18.276C95.0151 19.356 96.5271 20.868 97.6311 22.812C98.7351 24.756 99.2871 26.964 99.2871 29.436C99.2871 31.908 98.7351 34.116 97.6311 36.06C96.5271 38.004 95.0151 39.528 93.0951 40.632C91.1751 41.712 89.0391 42.252 86.6871 42.252ZM86.6871 39.408C88.4391 39.408 90.0111 39 91.4031 38.184C92.8191 37.368 93.9231 36.204 94.7151 34.692C95.5311 33.18 95.9391 31.428 95.9391 29.436C95.9391 27.42 95.5311 25.668 94.7151 24.18C93.9231 22.668 92.8311 21.504 91.4391 20.688C90.0471 19.872 88.4631 19.464 86.6871 19.464C84.9111 19.464 83.3271 19.872 81.9351 20.688C80.5431 21.504 79.4391 22.668 78.6231 24.18C77.8311 25.668 77.4351 27.42 77.4351 29.436C77.4351 31.428 77.8311 33.18 78.6231 34.692C79.4391 36.204 80.5431 37.368 81.9351 38.184C83.3511 39 84.9351 39.408 86.6871 39.408ZM118.444 36.42H107.5L105.484 42H102.028L111.1 17.052H114.88L123.916 42H120.46L118.444 36.42ZM117.508 33.756L112.972 21.084L108.436 33.756H117.508ZM135.682 16.908C138.418 16.908 140.782 17.424 142.774 18.456C144.79 19.464 146.326 20.916 147.382 22.812C148.462 24.708 149.002 26.94 149.002 29.508C149.002 32.076 148.462 34.308 147.382 36.204C146.326 38.076 144.79 39.516 142.774 40.524C140.782 41.508 138.418 42 135.682 42H127.87V16.908H135.682ZM135.682 39.3C138.922 39.3 141.394 38.448 143.098 36.744C144.802 35.016 145.654 32.604 145.654 29.508C145.654 26.388 144.79 23.952 143.062 22.2C141.358 20.448 138.898 19.572 135.682 19.572H131.146V39.3H135.682ZM169.235 16.728V21.66H158.939V26.988H166.643V31.776H158.939V42H152.783V16.728H169.235ZM184.422 42.252C182.046 42.252 179.862 41.7 177.87 40.596C175.902 39.492 174.33 37.956 173.154 35.988C172.002 33.996 171.426 31.764 171.426 29.292C171.426 26.82 172.002 24.6 173.154 22.632C174.33 20.664 175.902 19.128 177.87 18.024C179.862 16.92 182.046 16.368 184.422 16.368C186.798 16.368 188.97 16.92 190.938 18.024C192.93 19.128 194.49 20.664 195.618 22.632C196.77 24.6 197.346 26.82 197.346 29.292C197.346 31.764 196.77 33.996 195.618 35.988C194.466 37.956 192.906 39.492 190.938 40.596C188.97 41.7 186.798 42.252 184.422 42.252ZM184.422 36.636C186.438 36.636 188.046 35.964 189.246 34.62C190.47 33.276 191.082 31.5 191.082 29.292C191.082 27.06 190.47 25.284 189.246 23.964C188.046 22.62 186.438 21.948 184.422 21.948C182.382 21.948 180.75 22.608 179.526 23.928C178.326 25.248 177.726 27.036 177.726 29.292C177.726 31.524 178.326 33.312 179.526 34.656C180.75 35.976 182.382 36.636 184.422 36.636ZM213.659 42L208.403 32.46H206.927V42H200.771V16.728H211.103C213.095 16.728 214.787 17.076 216.179 17.772C217.595 18.468 218.651 19.428 219.347 20.652C220.043 21.852 220.391 23.196 220.391 24.684C220.391 26.364 219.911 27.864 218.951 29.184C218.015 30.504 216.623 31.44 214.775 31.992L220.607 42H213.659ZM206.927 28.104H210.743C211.871 28.104 212.711 27.828 213.263 27.276C213.839 26.724 214.127 25.944 214.127 24.936C214.127 23.976 213.839 23.22 213.263 22.668C212.711 22.116 211.871 21.84 210.743 21.84H206.927V28.104ZM241.031 24.72C240.575 23.88 239.915 23.244 239.051 22.812C238.211 22.356 237.215 22.128 236.063 22.128C234.071 22.128 232.475 22.788 231.275 24.108C230.075 25.404 229.475 27.144 229.475 29.328C229.475 31.656 230.099 33.48 231.347 34.8C232.619 36.096 234.359 36.744 236.567 36.744C238.079 36.744 239.351 36.36 240.383 35.592C241.439 34.824 242.207 33.72 242.687 32.28H234.875V27.744H248.267V33.468C247.811 35.004 247.031 36.432 245.927 37.752C244.847 39.072 243.467 40.14 241.787 40.956C240.107 41.772 238.211 42.18 236.099 42.18C233.603 42.18 231.371 41.64 229.403 40.56C227.459 39.456 225.935 37.932 224.831 35.988C223.751 34.044 223.211 31.824 223.211 29.328C223.211 26.832 223.751 24.612 224.831 22.668C225.935 20.7 227.459 19.176 229.403 18.096C231.347 16.992 233.567 16.44 236.063 16.44C239.087 16.44 241.631 17.172 243.695 18.636C245.783 20.1 247.163 22.128 247.835 24.72H241.031ZM257.833 21.66V26.772H266.077V31.524H257.833V37.068H267.157V42H251.677V16.728H267.157V21.66H257.833Z" fill="#111827"/>
<path d="M41 21V37V21ZM33 27V37V27ZM25 33V37V33ZM21 45H45C46.0609 45 47.0783 44.5786 47.8284 43.8284C48.5786 43.0783 49 42.0609 49 41V17C49 15.9391 48.5786 14.9217 47.8284 14.1716C47.0783 13.4214 46.0609 13 45 13H21C19.9391 13 18.9217 13.4214 18.1716 14.1716C17.4214 14.9217 17 15.9391 17 17V41C17 42.0609 17.4214 43.0783 18.1716 43.8284C18.9217 44.5786 19.9391 45 21 45Z" stroke="#4F46E5" stroke-width="2" stroke-linecap="round" stroke-linejoin="round"/>
</svg>
