<svg fill="none" height="100" viewBox="0 0 300 100" width="300" xmlns="http://www.w3.org/2000/svg"><path d="m84.9596 50.5997v-22.9308c0-.5883.4789-1.0544 1.0581-1.0544h3.9872c.5903 0 1.0581.4772 1.0581 1.0544v17.6698c0 .5883.4789 1.0544 1.0581 1.0544h9.9569c.59 0 1.058.4773 1.058 1.0544v3.1633c0 .5883-.479 1.0544-1.058 1.0544h-16.0603c-.5792 0-1.0581-.4772-1.0581-1.0655z" fill="#066fef"/><path d="m190.165 50.5997v-22.9308c0-.5883.479-1.0544 1.059-1.0544h3.987c.59 0 1.058.4772 1.058 1.0544v17.6698c0 .5883.479 1.0544 1.058 1.0544h9.957c.59 0 1.058.4773 1.058 1.0544v3.1633c0 .5883-.479 1.0544-1.058 1.0544h-16.06c-.58 0-1.059-.4772-1.059-1.0655z" fill="#066fef"/><path d="m118.428 25.9374c-7.852 0-13.666 5.0612-13.666 13.097 0 7.9248 5.825 13.3079 13.666 13.3079 7.886 0 13.71-5.3831 13.71-13.3079-.011-8.0358-5.836-13.097-13.71-13.097zm0 20.8775c-4.221 0-7.173-3.252-7.173-7.7805 0-4.3841 2.907-7.6473 7.173-7.6473s7.206 3.2521 7.206 7.6473c0 4.5285-2.985 7.7805-7.206 7.7805z" fill="#066fef"/><path d="m148.5 52.3312c-7.741 0-13.533-5.3831-13.533-13.2302 0-8.0358 5.97-13.1636 13.633-13.1636 3.107 0 6.437.999 8.609 2.8858.457.3996.479 1.1099.045 1.5428l-2.584 2.575c-.401.3996-1.047.4107-1.459.0333-1.17-1.0433-2.818-1.5539-4.4-1.5539-4.221 0-7.239 3.2521-7.239 7.6806 0 4.5618 2.951 7.6806 7.139 7.6806 1.949 0 3.564-.7103 4.678-1.787.401-.3884 1.047-.3884 1.459 0l2.651 2.4863c.434.4106.445 1.1099.011 1.5205-2.183 2.0645-5.246 3.3298-9.01 3.3298z" fill="#066fef"/><path d="m175.92 26.7477h-4.488c-.423 0-.813.2553-.98.6437l-9.656 22.8198c-.29.6993.222 1.4651.98 1.4651h4.277c.445 0 .835-.2664.991-.677l1.325-3.4963c.156-.4106.546-.677.991-.677h8.276c.434 0 .824.2664.98.6659l1.425 3.5296c.156.3995.546.6659.98.6659h4.433c.758 0 1.27-.7658.98-1.4651l-9.556-22.8198c-.145-.3995-.523-.6548-.958-.6548zm-5.012 13.7851 1.66-4.473c.345-.9212 1.66-.9212 1.994.0111l1.626 4.473c.245.6881-.256 1.4207-.992 1.4207h-3.296c-.735-.0111-1.248-.7437-.992-1.4318z" fill="#066fef"/><path d="m227.165 26.7477h-4.489c-.423 0-.813.2553-.98.6437l-9.656 22.8198c-.29.6993.222 1.4651.98 1.4651h4.277c.445 0 .835-.2664.991-.677l1.325-3.4963c.156-.4106.546-.677.992-.677h8.275c.434 0 .824.2664.98.6659l1.425 3.5296c.156.3995.546.6659.981.6659h4.432c.758 0 1.27-.7658.98-1.4651l-9.533-22.8309c-.167-.3884-.557-.6437-.98-.6437zm-5.012 13.7851 1.659-4.473c.345-.9212 1.66-.9212 1.994.0111l1.626 4.473c.245.6881-.256 1.4207-.991 1.4207h-3.286c-.746-.0111-1.259-.7437-1.002-1.4318z" fill="#066fef"/><path d="m241.064 50.5997v-2.686c0-.9656.334-1.909.947-2.6638l10.313-12.6641c.279-.3441.034-.8657-.412-.8657h-9.511c-.59 0-1.058-.4773-1.058-1.0544v-3.019c0-.5883.479-1.0544 1.058-1.0544h17.163c.59 0 1.058.4772 1.058 1.0544v2.2864c0 .9767-.334 1.9202-.958 2.6749l-10.581 12.9527c-.278.3441-.033.8657.413.8657h10.324c.59 0 1.058.4773 1.058 1.0545v3.1188c0 .5883-.479 1.0544-1.058 1.0544h-17.698c-.579.0111-1.058-.4661-1.058-1.0544z" fill="#066fef"/><path d="m278.286 42.3198v8.2799c0 .5883-.479 1.0544-1.058 1.0544h-3.954c-.59 0-1.058-.4772-1.058-1.0544v-8.3021c0-.8214-.234-1.6205-.69-2.3087l-7.685-11.7539c-.457-.6993.044-1.6316.891-1.6316h4.778c.378 0 .724.1998.913.5328l4.6 7.9469c.2.3552.713.3552.913 0l4.6-7.9469c.189-.3219.535-.5328.913-.5328h4.511c.846 0 1.348.9434.88 1.6427l-7.852 11.7317c-.446.6993-.702 1.5095-.702 2.342z" fill="#066fef"/><path d="m51.4706 24.4959-.3364.8124-2.6398 6.2671c.2588-.7221-.2847-1.4829-1.0611-1.4829h-21.6099c-.8023 0-1.3458.8124-1.0352 1.5474l5.176 12.328c.1812.4126.5823.6834 1.0352.6834h10.2745c.8022 0 1.3328.7996 1.0481 1.5346l-.3235.7737-2.6398 6.2801c.2588-.7222-.2717-1.4959-1.0611-1.4959h-3.3773c-.8023 0-1.3458.8124-1.0352 1.5474l8.7475 20.8261c.3752.8898-.2847 1.8698-1.2423 1.8698h-5.383c-.5435 0-1.0353-.3224-1.2423-.8253l-20.5877-49.054c-.6211-1.483.4659-3.1078 2.0704-3.1078h34.1619c.7764 0 1.3199.7737 1.061 1.4959z" fill="#066fef"/><path d="m61.8098 29.9764-9.938 23.5856c-.5306 1.2509-1.7469 2.0633-3.1056 2.0633h-8.7216c-.8023 0-1.3458-.8124-1.0352-1.5603l.3235-.7609c.0129-.0129.0129-.0387.0258-.0515l2.6398-6.2801c-.3106.735.2329 1.5603 1.0352 1.5603h2.3551c.4529 0 .867-.2708 1.0352-.6834l5.189-12.328c.3106-.735-.2329-1.5603-1.0352-1.5603h-1.3975c-.8023 0-1.3458-.8124-1.0353-1.5604l.3235-.7608c.013-.0258.013-.0387.0259-.0645l2.6269-6.2542c-.3106.735.2329 1.5603 1.0352 1.5603h7.5829c1.6045-.0129 2.6915 1.6248 2.0704 3.0949z" fill="#a1cbfd"/><g fill="#6aaefb"><path d="m90.273 71.5198c0-.1999-.031-.3784-.093-.5354-.0572-.1618-.1645-.307-.3219-.4355-.1527-.1332-.3697-.2617-.6511-.3855-.2766-.1285-.6344-.2617-1.0732-.3997-.4865-.1523-.9396-.3237-1.3593-.514-.4198-.1904-.7894-.4117-1.109-.6639-.3148-.2522-.5604-.5425-.7369-.8709-.1765-.3332-.2647-.7186-.2647-1.1565 0-.4283.0906-.8185.2719-1.1707.186-.3522.4483-.6544.787-.9066.3386-.257.7369-.4545 1.1948-.5925.4626-.138.973-.2071 1.531-.2071.7727 0 1.4405.1404 2.0033.4212.5676.2808 1.0064.6615 1.3164 1.1422s.465 1.0208.465 1.6205h-1.9603c0-.3236-.0691-.6092-.2075-.8567-.1335-.2474-.3386-.4426-.6153-.5853-.2718-.1428-.6152-.2142-1.0302-.2142-.4006 0-.7345.0595-1.0016.1785-.2624.119-.4603.2808-.5938.4854-.1288.2046-.1932.4331-.1932.6853 0 .1904.0453.3617.1359.514.0906.1475.2266.2879.4078.4212.1813.1285.4054.2498.6725.364.2719.1095.5867.219.9444.3284.5724.1713 1.0732.3617 1.5025.5711.434.2094.7941.4474 1.0803.7139.291.2665.508.5663.6511.8994.1478.3332.2217.7115.2217 1.1351 0 .4473-.0882.8471-.2647 1.1993-.1764.3521-.4292.652-.7583.8994-.3291.2475-.725.4355-1.1877.564-.4579.1285-.9706.1927-1.5382.1927-.5056 0-1.0064-.0666-1.5024-.1998-.4913-.1381-.9373-.3427-1.3379-.614-.4007-.276-.7202-.6234-.9587-1.0422-.2385-.4236-.3578-.9185-.3578-1.4848h1.9747c0 .3283.0525.6091.1574.8423.1097.2285.2623.4164.4579.564.2003.1427.434.2474.7011.3141.2671.0666.5557.0999.8657.0999.4007 0 .7298-.0547.9873-.1642.2624-.1142.4579-.2712.5867-.4711.1335-.1999.2003-.4283.2003-.6853z"/><path d="m99.2361 70.4276h-2.6829v-1.542h2.6829c.4389 0 .7939-.0714 1.0659-.2141.277-.1476.48-.3475.608-.5997.129-.257.193-.5497.193-.878 0-.3189-.064-.6163-.193-.8924-.128-.276-.331-.4997-.608-.671-.272-.1713-.627-.257-1.0659-.257h-2.039v8.8448h-1.9675v-10.3939h4.0065c.8109 0 1.5029.1452 2.0749.4355.577.2855 1.016.6829 1.316 1.1921.306.5045.458 1.0803.458 1.7276 0 .671-.152 1.2492-.458 1.7347-.3.4854-.739.859-1.316 1.1207-.572.2618-1.264.3927-2.0749.3927z"/><path d="m113 72.6762v1.542h-5.538v-1.542zm-4.937-8.8519v10.3939h-1.967v-10.3939zm4.214 4.2903v1.5063h-4.815v-1.5063zm.701-4.2903v1.5491h-5.516v-1.5491z"/><path d="m119.974 65.402-2.969 8.8162h-2.082l3.892-10.3939h1.331zm2.483 8.8162-2.984-8.8162-.179-1.5777h1.338l3.914 10.3939zm-.136-3.862v1.5491h-5.588v-1.5491z"/><path d="m129.052 63.8243v10.3939h-1.968v-10.3939zm6.253 0-4.178 5.0684-2.39 2.5485-.351-1.906 1.66-2.1487 2.848-3.5622zm-2.19 10.3939-3.241-4.8686 1.41-1.2707 4.171 6.1393z"/><path d="m149.005 63.8243v10.3939h-1.96v-10.3939zm3.234 0v1.5491h-8.392v-1.5491z"/><path d="m161.925 68.1146v1.542h-5.481v-1.542zm-4.944-4.2903v10.3939h-1.968v-10.3939zm6.403 0v10.3939h-1.967v-10.3939z"/><path d="m173.757 72.6762v1.542h-5.538v-1.542zm-4.937-8.8519v10.3939h-1.967v-10.3939zm4.214 4.2903v1.5063h-4.815v-1.5063zm.701-4.2903v1.5491h-5.516v-1.5491z"/><path d="m178.685 63.8243v10.3939h-1.968v-10.3939z"/><path d="m182.275 63.8243h3.784c.792 0 1.472.119 2.04.357.567.2379 1.004.5901 1.309 1.0565s.458 1.0398.458 1.7204c0 .5378-.096 1.0041-.287 1.3991-.19.3951-.46.7258-.808.9923-.343.2665-.749.4759-1.216.6282l-.616.3141h-3.341l-.014-1.5491h2.497c.405 0 .742-.0713 1.009-.2141s.467-.3403.601-.5925c.138-.2523.207-.5402.207-.8638 0-.3474-.067-.6472-.2-.8995-.134-.257-.336-.4545-.608-.5925s-.616-.207-1.031-.207h-1.817v8.8448h-1.967zm5.881 10.3939-2.411-4.6544 2.082-.0072 2.439 4.5616v.1z"/><path d="m206.721 72.6762v1.542h-5.237v-1.542zm-4.643-8.8519v10.3939h-1.968v-10.3939z"/><path d="m213.788 65.402-2.969 8.8162h-2.082l3.892-10.3939h1.331zm2.483 8.8162-2.984-8.8162-.178-1.5777h1.337l3.914 10.3939zm-.136-3.862v1.5491h-5.588v-1.5491z"/><path d="m229.269 63.8243v10.3939h-1.975l-4.428-7.2101v7.2101h-1.968v-10.3939h1.968l4.443 7.2172v-7.2172z"/><path d="m240.865 68.8428v4.0476c-.153.1951-.393.4069-.722.6353-.325.2285-.749.426-1.274.5925-.525.1618-1.169.2427-1.932.2427-.663 0-1.268-.1094-1.817-.3283-.548-.2237-1.021-.5497-1.417-.978-.395-.4283-.701-.9518-.915-1.5705-.215-.6187-.322-1.3254-.322-2.1202v-.6853c0-.7948.1-1.5015.3-2.1202.205-.6187.496-1.1422.873-1.5705.382-.4283.837-.7543 1.367-.978.534-.2237 1.13-.3355 1.788-.3355.883 0 1.608.1452 2.175.4355.573.2903 1.011.69 1.317 1.1993.305.5044.496 1.085.572 1.7418h-1.917c-.053-.3617-.158-.6782-.315-.9495-.158-.276-.382-.4901-.673-.6424-.286-.1571-.658-.2356-1.116-.2356-.386 0-.727.0761-1.023.2284s-.544.3736-.744.6639-.353.6496-.458 1.078c-.1.4283-.15.9185-.15 1.4705v.6996c0 .5568.057 1.0518.172 1.4848.114.4284.279.79.493 1.0851.22.2903.489.5116.809.6639.324.1475.691.2213 1.101.2213.373 0 .68-.0309.923-.0928.248-.0666.446-.1452.594-.2356s.263-.1784.344-.2641v-1.9489h-2.068v-1.4348z"/><path d="m249.986 63.8243h1.967v6.9031c0 .7947-.172 1.4634-.515 2.0059-.343.5378-.811.9447-1.402 1.2207-.592.2713-1.264.4069-2.018.4069-.763 0-1.443-.1356-2.039-.4069-.596-.276-1.064-.6829-1.402-1.2207-.339-.5425-.508-1.2112-.508-2.0059v-6.9031h1.967v6.9031c0 .4854.081.8828.244 1.1921.162.3046.391.5307.686.6782.296.1475.647.2213 1.052.2213.41 0 .761-.0738 1.052-.2213.296-.1475.522-.3736.68-.6782.157-.3093.236-.7067.236-1.1921z"/><path d="m259.271 65.402-2.969 8.8162h-2.082l3.892-10.3939h1.33zm2.482 8.8162-2.983-8.8162-.179-1.5777h1.338l3.913 10.3939zm-.136-3.862v1.5491h-5.587v-1.5491z"/><path d="m274.38 68.8428v4.0476c-.153.1951-.394.4069-.723.6353-.324.2285-.749.426-1.274.5925-.524.1618-1.168.2427-1.931.2427-.663 0-1.269-.1094-1.817-.3283-.549-.2237-1.021-.5497-1.417-.978s-.701-.9518-.916-1.5705c-.214-.6187-.322-1.3254-.322-2.1202v-.6853c0-.7948.1-1.5015.301-2.1202.205-.6187.496-1.1422.873-1.5705.381-.4283.837-.7543 1.366-.978.534-.2237 1.13-.3355 1.789-.3355.882 0 1.607.1452 2.175.4355.572.2903 1.011.69 1.316 1.1993.305.5044.496 1.085.572 1.7418h-1.917c-.052-.3617-.157-.6782-.315-.9495-.157-.276-.381-.4901-.672-.6424-.286-.1571-.659-.2356-1.116-.2356-.387 0-.728.0761-1.024.2284-.295.1523-.543.3736-.744.6639-.2.2903-.353.6496-.457 1.078-.101.4283-.151.9185-.151 1.4705v.6996c0 .5568.058 1.0518.172 1.4848.114.4284.279.79.494 1.0851.219.2903.489.5116.808.6639.324.1475.692.2213 1.102.2213.372 0 .68-.0309.923-.0928.248-.0666.446-.1452.594-.2356s.262-.1784.343-.2641v-1.9489h-2.068v-1.4348z"/><path d="m284.609 72.6762v1.542h-5.538v-1.542zm-4.937-8.8519v10.3939h-1.967v-10.3939zm4.214 4.2903v1.5063h-4.815v-1.5063zm.702-4.2903v1.5491h-5.517v-1.5491z"/></g></svg>