<svg width="1000" height="600" viewBox="0 0 1000 600" fill="none" xmlns="http://www.w3.org/2000/svg">
<path d="M310.242 277.026H263.879L263.879 0L310.242 0V101.088C324.537 84.4968 350.036 70.607 385.194 70.607C441.602 70.607 473.283 109.962 473.283 166.679L473.283 277.026H426.92L426.92 174.395C426.92 138.513 408.375 113.048 370.899 113.048C331.491 113.048 310.242 137.742 310.242 175.167L310.242 277.026Z" fill="#FF3900"/>
<path fill-rule="evenodd" clip-rule="evenodd" d="M0 175.939C0 113.048 51.385 70.607 115.906 70.607C180.041 70.607 231.426 113.048 231.426 175.939C231.426 238.829 180.041 281.27 115.906 281.27C51.385 281.27 0 238.829 0 175.939ZM44.4306 175.939C44.4306 217.223 76.1116 241.53 115.906 241.53C155.314 241.53 186.995 217.223 186.995 175.939C186.995 134.655 155.314 110.348 115.906 110.348C76.1116 110.348 44.4306 134.655 44.4306 175.939Z" fill="#FF3900"/>
<path fill-rule="evenodd" clip-rule="evenodd" d="M263.997 570.291V595.756H310.359V318.73H263.997V419.046C249.315 403.226 222.271 389.337 185.181 389.337C115.251 389.337 73.9111 437.18 73.9111 494.668C73.9111 552.157 115.251 600 185.181 600C222.271 600 249.315 586.11 263.997 570.291ZM266.315 496.212C266.315 533.251 233.861 561.417 191.749 561.417C151.954 561.417 117.955 537.495 117.955 494.668C117.955 451.841 151.954 427.92 191.749 427.92C233.861 427.92 266.315 456.085 266.315 493.125V496.212Z" fill="#FF3900"/>
<path fill-rule="evenodd" clip-rule="evenodd" d="M386.857 508.172C393.039 540.582 422.015 560.645 459.878 560.645C493.491 560.645 518.217 543.669 527.876 518.976L564.966 538.653C552.603 570.291 514.354 600 459.878 600C392.266 600 342.813 557.173 342.813 494.668C342.813 435.25 390.721 389.337 459.878 389.337C526.717 389.337 568.83 433.707 568.83 491.967V508.172H386.857ZM524.013 473.448C520.922 452.227 495.809 427.92 457.56 427.92C425.493 427.92 397.675 443.739 388.789 473.448H524.013Z" fill="#FF3900"/>
<path fill-rule="evenodd" clip-rule="evenodd" d="M672.372 600C710.235 600 741.53 586.882 759.688 568.362C766.256 588.425 785.96 604.63 829.232 595.756V559.874C804.505 565.275 799.096 560.26 799.096 548.685L799.096 463.416C799.096 415.187 763.552 389.337 700.962 389.337C651.896 389.337 607.465 411.715 594.715 445.668L632.964 462.644C640.691 442.967 668.123 428.691 699.417 428.691C737.28 428.691 754.279 443.353 754.279 462.644L754.279 464.188L666.191 474.605C617.51 480.393 588.147 501.613 588.147 537.11C588.147 578.779 625.624 600 672.372 600ZM754.279 517.432C754.279 547.141 711.008 562.574 676.236 562.574C649.578 562.574 633.351 553.7 633.351 536.724C633.351 519.747 646.873 513.188 673.918 510.102L754.279 500.456V517.432Z" fill="#FF3900"/>
<path d="M977.205 392.037C986.478 392.037 994.205 393.581 1000 395.124V441.424L999.042 441.184C990.422 439.029 986.112 437.951 976.046 437.951C929.684 437.951 899.548 457.629 899.548 505.857V595.756H853.186L853.186 393.195H899.548V429.849C916.934 402.455 944.365 392.037 977.205 392.037Z" fill="#FF3900"/>
</svg>
