<svg xmlns="http://www.w3.org/2000/svg" width="275" height="79" fill="none" viewBox="0 0 275 79">
  <defs>
    <linearGradient id="a" x1="56.3788" x2="2.75258" y1="-.717381" y2="24.146" gradientUnits="userSpaceOnUse">
      <stop offset=".16" stop-color="#D249FC"/>
      <stop offset=".55" stop-color="#FF2D90"/>
    </linearGradient>
    <linearGradient id="b" x1="3.98196" x2="62.6868" y1="4.22439" y2="62.9298" gradientUnits="userSpaceOnUse">
      <stop offset=".3" stop-color="#FF2D90"/>
      <stop offset=".7" stop-color="#7256FF"/>
    </linearGradient>
  </defs>
  <path fill="#000" fill-rule="evenodd" d="M96.727 17.0007c2.0628 0 3.865.3705 5.427 1.1315h-.01c1.562.761 2.764 1.8324 3.615 3.2143.851 1.3818 1.272 2.964 1.272 4.7964 0 1.8325-.431 3.4446-1.292 4.8365-.861 1.3918-2.083 2.4733-3.665 3.2443-1.582.7711-3.4144 1.1616-5.5172 1.1616h-7.2197v11.6155H84V17.0007h12.727Zm2.3832 13.3078c.7711-.3905 1.3618-.9313 1.7828-1.6422v.01c.42-.7009.63-1.5521.63-2.4933 0-.9413-.21-1.7624-.63-2.4633-.431-.701-1.0218-1.2417-1.7828-1.6222-.771-.3805-1.6722-.5708-2.7136-.5708h-7.0695v9.3626h7.0695c1.0414 0 1.9526-.1903 2.7136-.5808Zm22.5398-5.7778c1.573 0 2.954.3405 4.136 1.0315l.01.02c1.182.6809 2.113 1.6822 2.764 2.9739.651 1.2918.981 2.8438.981 4.6463v13.7984h-5.037V33.9734c0-1.0614-.18-1.9626-.54-2.7036-.361-.741-.872-1.3118-1.543-1.7023-.67-.3905-1.472-.5908-2.403-.5908-.991 0-1.882.2203-2.653.6709-.771.4506-1.372 1.0714-1.793 1.8725-.42.8011-.631 1.7223-.631 2.7637v12.707h-5.056V16.9906h4.946v6.7891l-.06 4.0455v.5707c.641-1.1215 1.462-2.0227 2.504-2.6836 1.251-.791 2.703-1.1816 4.375-1.1816Zm25.174 0c1.953 0 3.705.4907 5.237 1.472l.01-.03c1.542.9813 2.744 2.3431 3.615 4.0955.871 1.7523 1.302 3.725 1.302 5.9279 0 2.203-.431 4.1756-1.302 5.928-.871 1.7523-2.083 3.1141-3.625 4.0954-1.542.9813-3.284 1.472-5.227 1.472-1.812 0-3.404-.4005-4.766-1.2016-1.112-.6409-2.003-1.5221-2.714-2.6035V53.84h-5.057V25.0414h4.947v3.4747c.721-1.1616 1.652-2.1028 2.824-2.7837 1.372-.8011 2.954-1.2017 4.756-1.2017Zm1.993 17.5836c.941-.5908 1.672-1.4119 2.193-2.4633.52-1.0514.781-2.263.781-3.6349 0-1.3718-.261-2.5834-.781-3.6348-.521-1.0514-1.252-1.8726-2.193-2.4633-.941-.5908-1.993-.8912-3.215-.8912-1.221 0-2.313.3004-3.254.8912-.941.5907-1.672 1.4119-2.203 2.4633-.531 1.0514-.791 2.263-.791 3.6348 0 1.3719.26 2.5835.791 3.6449.521 1.0614 1.262 1.8825 2.203 2.4633.941.5908 2.053.8812 3.254.8812 1.202 0 2.274-.3004 3.215-.8912Zm25.324-12.4567c1.452.3305 2.753.9012 3.895 1.7323l-.04.0301c1.151.8311 2.033 1.8424 2.673 3.0441.631 1.2016.952 2.5133.952 3.9452 0 1.7324-.461 3.2945-1.382 4.6763-.921 1.3819-2.213 2.4733-3.875 3.2644-1.663.791-3.545 1.1916-5.688 1.1916s-4.045-.3905-5.698-1.1716c-1.652-.771-2.954-1.8625-3.885-3.2644-.931-1.4018-1.412-3.014-1.422-4.8465h5.357c0 .9313.241 1.7424.731 2.4533.481.711 1.162 1.2617 2.023 1.6622.871.4006 1.903.6008 2.994.6008 1.092 0 2.043-.1902 2.864-.5507.821-.3605 1.452-.8712 1.903-1.522.45-.6509.67-1.4019.67-2.243 0-1.0414-.31-1.9126-.941-2.5835-.631-.6709-1.492-1.1515-2.593-1.4219l-5.227-1.1816c-1.412-.3304-2.644-.8711-3.705-1.6322-1.052-.751-1.873-1.6822-2.464-2.8037-.59-1.1215-.881-2.3732-.881-3.7551 0-1.6922.441-3.1942 1.312-4.526.871-1.3218 2.093-2.3632 3.645-3.1242 1.562-.751 3.284-1.1315 5.297-1.1315s3.805.3705 5.377 1.1015c1.572.731 2.794 1.7523 3.665 3.0641.871 1.3017 1.322 2.8037 1.332 4.486h-5.357c0-.7911-.211-1.492-.611-2.1229-.401-.6308-.981-1.1215-1.732-1.4619-.751-.3405-1.633-.5107-2.604-.5107-.971 0-1.832.1602-2.573.4907-.741.3304-1.322.791-1.733 1.3918-.41.6008-.62 1.3018-.62 2.1028 0 .8912.3 1.6322.881 2.213.59.5708 1.392 1.0013 2.403 1.2717l5.057 1.1315Zm13.938-9.9633h4.707v5.3572h5.827l-.02 4.3958h-5.827l.02 11.0749c0 .6008.2 1.1014.59 1.492.391.3905.892.5908 1.492.5908h3.725v4.3958h-4.736c-1.171 0-2.233-.2503-3.164-.751-.931-.5006-1.662-1.2016-2.183-2.0828-.521-.8911-.781-1.8925-.781-3.004l-.02-11.7257h-3.855l.02-4.3959h2.403c.551 0 .981-.1602 1.312-.5006.32-.3305.49-.7611.49-1.2918v-3.5547Zm23.412 4.8364c2.153 0 4.115.5007 5.868 1.5021 1.752 1.0013 3.134 2.3732 4.145 4.1255 1.011 1.7423 1.512 3.7049 1.512 5.8578 0 2.1529-.501 4.1055-1.512 5.8579-1.011 1.7523-2.383 3.1241-4.145 4.1255-1.763 1.0013-3.745 1.502-5.898 1.502-2.153 0-4.116-.5007-5.868-1.502-1.753-1.0014-3.134-2.3732-4.146-4.1255-1.011-1.7424-1.512-3.705-1.512-5.8579s.501-4.1055 1.502-5.8578c1.002-1.7523 2.383-3.1242 4.146-4.1255 1.772-1.0014 3.755-1.5021 5.908-1.5021Zm3.254 17.5736c.951-.5808 1.692-1.4019 2.213-2.4633.521-1.0614.781-2.253.781-3.6249 0-1.3718-.26-2.5834-.791-3.6348-.521-1.0514-1.262-1.8726-2.213-2.4633-.951-.5908-2.043-.8912-3.264-.8912-1.222 0-2.313.3004-3.265.8812-.951.5807-1.682 1.4018-2.203 2.4633-.52 1.0614-.781 2.283-.781 3.6448 0 1.3618.261 2.5635.781 3.6249.521 1.0514 1.252 1.8825 2.203 2.4633.942.5908 2.043.8812 3.265.8812 1.221 0 2.323-.3004 3.274-.8812Zm16.933-13.7284c.57-.9312 1.271-1.6923 2.103-2.263l-.01.01c1.171-.8111 2.533-1.2116 4.095-1.2116h.811v5.0968h-1.412c-1.121 0-2.113.2103-2.944.6208-.841.4206-1.482 1.0114-1.932 1.7824-.451.7711-.671 1.6823-.671 2.7437v11.8458h-5.057V25.0515h5.017v3.3244Zm39.222-2.7837c1.182.7109 2.093 1.7123 2.724 3.014v.03c.631 1.3018.951 2.8138.951 4.5461v13.8486h-5.057V33.7831c0-.9913-.16-1.8424-.5-2.5534-.331-.721-.811-1.2617-1.442-1.6522-.631-.3905-1.392-.5808-2.273-.5808-.942 0-1.773.2103-2.494.6409-.721.4306-1.281 1.0414-1.672 1.8424-.39.8011-.591 1.7324-.591 2.8038v12.7271H255.6V33.7631c0-.9913-.17-1.8425-.501-2.5534-.34-.721-.821-1.2617-1.462-1.6522-.641-.3905-1.402-.5808-2.283-.5808-.951 0-1.792.2103-2.503.6409-.721.4305-1.272 1.0414-1.653 1.8424-.39.8011-.58 1.7323-.58 2.8038v12.727h-5.057V25.0414h4.907v3.3646c.6-1.1416 1.381-2.0528 2.363-2.7137 1.161-.781 2.573-1.1716 4.125-1.1716s2.904.3505 4.036 1.0615c1.131.7109 2.012 1.7123 2.623 3.014l.06.1502c.671-1.2717 1.562-2.2831 2.704-3.014 1.262-.8011 2.733-1.2017 4.416-1.2017 1.562 0 2.924.3505 4.105 1.0615ZM87.71 74.19c.17-.31.25-.66.25-1.05h.01v-9.15h3.1v9.37c0 .88-.2 1.67-.61 2.38s-.97 1.26-1.68 1.66c-.71.4-1.52.6-2.41.6H84v-2.85h1.95c.4 0 .75-.08 1.05-.25.31-.17.54-.4.71-.71Zm15.26-1.9h-6.5v3.02h7.38v2.7h-10.4V63.99h10.2v2.71h-7.18v2.97h6.5v2.62Zm6.16-5.52h-4.16v-2.78h11.39v2.78h-4.13V78h-3.1V66.77Zm17.2 3.9c.29.08.56.18.81.31h.01c.57.31 1.02.73 1.34 1.28.32.55.48 1.17.48 1.86 0 .75-.2 1.42-.61 2.01-.41.59-.98 1.05-1.72 1.38-.74.33-1.58.5-2.52.5h-6.35V63.99H124c.89 0 1.69.16 2.39.47.7.31 1.24.75 1.63 1.31.39.56.58 1.2.58 1.91 0 .62-.15 1.17-.44 1.65-.29.48-.7.86-1.21 1.12-.179.0945-.386.1532-.585.21l-.035.01Zm-2.8-4.33h-2.75v3.45h2.75c.38 0 .72-.08 1.01-.22.3-.14.52-.34.69-.61.17-.27.25-.59.25-.93 0-.34-.09-.64-.25-.89-.17-.26-.4-.45-.69-.59-.29-.14-.63-.21-1.01-.21Zm1.24 9.1c.32-.15.57-.35.75-.62v.02c.18-.27.27-.57.27-.93 0-.36-.09-.68-.27-.96-.18-.28-.44-.5-.76-.65-.33-.15-.7-.23-1.11-.23h-2.87v3.59h2.87c.42 0 .8-.07 1.12-.22Zm16.56-4.67c-.43.67-1.03 1.2-1.81 1.57h-.01c-.14.07-.3.13-.46.19l3.2 5.48h-3.54l-2.84-5.11h-2.02v5.11h-3.1V63.99h6.14c1.01 0 1.9.18 2.67.55.77.37 1.36.89 1.78 1.56.42.67.63 1.43.63 2.32 0 .89-.21 1.68-.64 2.35Zm-3.56-.61c.32-.16.57-.39.74-.68v.01c.17-.29.26-.63.26-1.03s-.09-.74-.26-1.03c-.17-.29-.42-.51-.74-.67-.32-.15-.7-.23-1.13-.23h-2.79v3.87h2.79c.43 0 .81-.08 1.13-.24Zm5.51 7.85 5.01-14.02h3.36l5.12 14.02h-3.09l-1.06-3.09h-5.2l-.99 3.09h-3.15Zm6.46-10.39-1.61 4.95h3.71l-1.72-4.95-.19-.9-.19.9Zm11.43 10.39h-3.2V63.99h3.2v14.02Zm5.44-14.02 6.02 9.48h.01v-9.48h2.83v14.02h-3.05l-6-9.48v9.48h-2.83V63.99h3.02Zm17.78 5.66c.71.13 1.33.4 1.88.79v-.02c.55.4.97.88 1.28 1.47.31.59.46 1.23.46 1.92 0 .85-.23 1.61-.68 2.28-.45.67-1.08 1.2-1.88 1.58-.81.38-1.74.57-2.77.57s-1.95-.19-2.75-.56c-.8-.37-1.43-.9-1.89-1.56-.46-.66-.7-1.44-.71-2.31h3.1c0 .36.1.68.29.96.19.28.46.49.81.64.35.15.75.23 1.18.23.43 0 .8-.07 1.12-.2.32-.13.56-.32.74-.57.18-.25.27-.53.27-.84 0-.39-.12-.71-.36-.97s-.57-.44-.98-.54l-2.52-.52c-.66-.14-1.24-.39-1.74-.75s-.89-.82-1.16-1.36c-.27-.55-.41-1.16-.41-1.83 0-.84.22-1.58.64-2.23.43-.65 1.02-1.16 1.78-1.53.76-.37 1.62-.55 2.6-.55s1.86.18 2.62.53c.76.35 1.36.84 1.79 1.47.43.62.66 1.35.68 2.16h-3.1c0-.3-.09-.57-.25-.81-.17-.24-.4-.42-.69-.55-.29-.14-.64-.2-1.02-.2s-.72.07-1.01.19c-.29.12-.52.3-.68.52-.16.23-.24.49-.24.79 0 .34.11.61.33.84.22.23.52.38.89.47l2.38.49Zm14.38 8.36h-3.2V63.99h3.2v14.02Zm7.88-14.02c1.33 0 2.53.31 3.59.91 1.06.61 1.9 1.44 2.5 2.51.61 1.06.91 2.27.91 3.59 0 1.32-.31 2.52-.91 3.59-.6 1.07-1.43 1.9-2.5 2.51-1.07.61-2.26.91-3.59.91h-5.47V63.99h5.47Zm2.01 10.86c.58-.35 1.03-.85 1.34-1.5v-.01c.31-.65.47-1.44.47-2.35 0-.91-.16-1.7-.47-2.35-.31-.65-.76-1.15-1.34-1.5-.58-.35-1.26-.52-2.05-.52h-2.32v8.75h2.32c.79 0 1.47-.17 2.05-.52Zm9.8-2.56v3.02h7.38v2.7h-10.4V63.99h10.2v2.71h-7.18v2.97h6.5v2.62h-6.5Z" clip-rule="evenodd"/>
  <path fill="#D249FC" d="m58.182 15.9476-.0018-11.87545C58.1797 1.82342 56.3562 0 54.1075 0H42.6009c-1.1886 0-2.3185.519564-3.0924 1.42196L6.79872 39.5834c-.63243.7383-.98036 1.6786-.98036 2.6508v11.8755c0 2.2493 1.82342 4.0727 4.07273 4.0727H21.3994c1.1887 0 2.3186-.5196 3.0924-1.422L57.2011 18.599c.633-.7383.9803-1.6786.9803-2.6514h.0006Z"/>
  <path fill="url(#a)" d="M58.1818 14.5193V4.07273C58.1818 1.82342 56.3584 0 54.1091 0H41.0164c-.1925 0-.3851.013964-.576.040727L3.49673 5.3184C1.49062 5.60465 0 7.32334 0 9.34982V25.0228c0 2.2499 1.824 4.0733 4.07389 4.0728l18.53851-.0047c.4375 0 .8721-.0704 1.2869-.2089l31.4979-10.4995c1.6629-.5544 2.7846-2.1108 2.7846-3.8638v.0006Z"/>
  <path fill="url(#b)" d="M64 59.9294V25.9611c0-1.6291-.9711-3.1017-2.4681-3.7434L24.0413 6.14962c-.5068-.21702-1.0531-.32931-1.6046-.32931H4.07273C1.82342 5.82031 0 7.64373 0 9.89304V27.859c0 .8047.238545 1.5913.685382 2.261L22.0887 62.1886c.7552 1.1322 2.0265 1.8118 3.3874 1.8118l34.4512.0017c2.2493 0 4.0727-1.8234 4.0727-4.0727Z"/>
  <path fill="#000" d="M52 12H12v40h40V12Z"/>
  <path fill="#fff" fill-rule="evenodd" d="M23.2922 17.3302h-6.2969v14.6705h2.8607v-5.5436h3.3532c1.0475 0 1.9665-.1887 2.7558-.5659.7966-.384 1.4079-.9223 1.834-1.614.4328-.6916.6495-1.5089.6495-2.41 0-.901-.2133-1.6936-.6394-2.3785-.4194-.6849-1.02-1.2154-1.8026-1.5926-.7826-.3773-1.6875-.5659-2.7143-.5659Zm1.0683 6.4867c-.3564.1746-.7752.2622-1.2574.2622h-3.2487v-4.3698h3.2487c.4822 0 .901.0904 1.2574.2723.3633.174.6423.4255.8382.7545.1959.3205.2936.7124.2936 1.1525 0 .4401-.0983.828-.2936 1.1632-.1954.3289-.4749.5832-.8382.7651Z" clip-rule="evenodd"/>
  <path fill="#fff" d="M32.1424 31.6762c.8594.384 1.8267.5765 2.9029.5765 1.0823 0 2.0529-.192 2.9124-.5759.8595-.384 1.5297-.9184 2.012-1.6033.4822-.6916.723-1.4776.723-2.3578 0-.7124-.1538-1.3687-.4609-1.9699-.307-.608-.7438-1.1149-1.3097-1.5196-.5585-.4048-1.2047-.6743-1.9384-.8067l-2.913-.5451c-.4614-.0904-.8213-.2729-1.0795-.5451-.2588-.279-.3879-.6221-.3879-1.0268 0-.3497.1049-.6563.3143-.9223.2094-.2729.503-.4862.8803-.6395.3772-.1532.7932-.2307 1.2681-.2307.475 0 .901.0797 1.2783.2408.3772.1533.6708.3706.8802.6496.2167.279.3251.6012.3251.9638h2.8607c-.0067-.8381-.2442-1.578-.7123-2.2213-.4609-.6501-1.1003-1.157-1.9177-1.5197-.8106-.3632-1.7324-.5451-2.7457-.5451-1.0133 0-1.925.1847-2.735.5552-.8039.3711-1.436.887-1.8969 1.5511-.4542.6641-.681 1.4214-.681 2.2742 0 .6916.1398 1.3203.4194 1.8862.2795.5591.6775 1.0268 1.1946 1.404.5237.3705 1.1384.622 1.8441.7545l3.0073.5765c.4957.0983.8836.3077 1.1632.6288.2863.3143.4294.7062.4294 1.1738 0 .3773-.1151.7124-.3458 1.006-.2301.2936-.5518.5238-.9639.6916-.4053.1611-.8662.2408-1.3832.2408-.5445 0-1.0341-.0903-1.4669-.2722-.4266-.1819-.7651-.4334-1.0166-.7545-.2442-.3284-.3666-.7017-.3666-1.1211h-2.8715c.0141.8949.2656 1.6909.7545 2.3892.489.6917 1.1632 1.23 2.0227 1.614Z"/>
  <path fill="#fff" d="M16.9941 44.0015h16v3h-16v-3Z"/>
</svg>
