<svg xmlns="http://www.w3.org/2000/svg" width="510" height="151" fill="none" viewBox="0 0 510 151">
  <path fill="#000" d="M105.2 22.56h24.45c14.29 0 22.92 8.46 22.92 20.69v.17c0 13.86-10.77 21-24.2 21h-10v18H105.2V22.56zm23.6 30.18c6.58 0 10.43-3.93 10.43-9.06v-.17c0-5.9-4.1-9.07-10.69-9.07h-10.17v18.3h10.43zM156.59 20.02h13v23.06c3-3.85 6.84-7.35 13.42-7.35 9.84 0 15.57 6.5 15.57 17v29.69h-13V56.85c0-6.16-2.91-9.32-7.87-9.32s-8.12 3.16-8.12 9.32v25.57h-13v-62.4zM204.4 36.58h13v6.59c3.17-4.28 7.53-7.44 14.28-7.44 10.69 0 20.87 8.38 20.87 23.69v.17c0 15.3-10 23.68-20.87 23.68a17.603 17.603 0 01-14.28-6.84V96.1h-13V36.58zm35.15 23v-.16c0-7.62-5.13-12.66-11.2-12.66-6.07 0-11.12 5-11.12 12.66v.17c0 7.61 5.05 12.65 11.12 12.65 6.07 0 11.2-4.96 11.2-12.65v-.01zM253.67 73.7l7.78-9.33c5.39 4.45 11 7.27 17.88 7.27 5.38 0 8.63-2.13 8.63-5.64v-.17c0-3.34-2-5.05-12.06-7.61-12-3.08-19.84-6.42-19.84-18.3v-.17c0-10.86 8.73-18 21-18a34.669 34.669 0 0122.23 7.61l-6.84 9.92c-5.3-3.67-10.52-5.9-15.56-5.9-5.04 0-7.7 2.31-7.7 5.22v.17c0 3.93 2.56 5.22 12.91 7.87 12.14 3.16 19 7.52 19 18v.17c0 11.88-9.07 18.55-22 18.55a38.09 38.09 0 01-25.43-9.66zM307.66 69.42V47.7h-5.47V36.58h5.47V24.87h13v11.71h10.78V47.7h-10.78v19.58c0 3 1.29 4.45 4.19 4.45a13.19 13.19 0 006.42-1.63v10.44A19.21 19.21 0 01321 83.19c-7.95 0-13.34-3.17-13.34-13.77zM333.14 59.76v-.17c0-13.17 10.61-23.86 24.89-23.86 14.28 0 24.71 10.52 24.71 23.69v.17c0 13.17-10.6 23.86-24.88 23.86s-24.72-10.52-24.72-23.69zm36.78 0v-.17c0-6.76-4.88-12.66-12.06-12.66-7.44 0-11.89 5.73-11.89 12.49v.17c0 6.75 4.88 12.65 12.06 12.65 7.44 0 11.89-5.73 11.89-12.48zM386.65 36.58h13v9.24c2.65-6.33 6.92-10.44 14.62-10.09v13.59h-.69c-8.63 0-13.93 5.22-13.93 16.17v16.93h-13V36.58zM418.91 36.58h13v6.5c3-3.85 6.93-7.35 13.52-7.35 6 0 10.51 2.65 12.91 7.27 4-4.71 8.81-7.27 15.05-7.27 9.66 0 15.48 5.81 15.48 16.84v29.85h-13V56.85c0-6.16-2.74-9.32-7.61-9.32s-7.87 3.16-7.87 9.32v25.57h-13V56.85c0-6.16-2.73-9.32-7.61-9.32-4.88 0-7.87 3.16-7.87 9.32v25.57h-13V36.58zM22.5 22.52h60v60h-60v-60z"/>
  <path fill="#fff" d="M29.98 71.18h22.5v3.75h-22.5v-3.75zM49.6 49.29l2.93-3.51a10.34 10.34 0 006.74 2.74c2 0 3.26-.8 3.26-2.13v-.06c0-1.26-.78-1.9-4.55-2.87-4.55-1.16-7.48-2.42-7.48-6.9v-.07c0-4.09 3.29-6.8 7.9-6.8a13 13 0 018.38 2.87L64.2 36.3a10.54 10.54 0 00-5.87-2.22c-1.9 0-2.9.87-2.9 2v.07c0 1.48 1 2 4.87 3 4.58 1.2 7.16 2.84 7.16 6.78v.06c0 4.48-3.42 7-8.29 7a14.32 14.32 0 01-9.57-3.61M30 30.02h9.2c5.36 0 8.6 3.18 8.6 7.77v.06c0 5.2-4 7.9-9.08 7.9H35v6.74h-5V30.02zm8.86 11.33c2.47 0 3.92-1.47 3.92-3.4v-.06c0-2.22-1.54-3.41-4-3.41H35v6.87h3.86z"/>
  <path fill="#000" d="M107.54 124.46v3.07h-2.39V104.9h2.39v9.83a7.192 7.192 0 016.14-3.57c3.84 0 7.65 3 7.65 8.31v.06c0 5.24-3.78 8.34-7.65 8.34a7.223 7.223 0 01-6.14-3.41zm11.35-4.9v-.06c0-3.78-2.61-6.2-5.65-6.2a6 6 0 00-5.8 6.17v.06a5.997 5.997 0 005.8 6.2c3.1 0 5.65-2.29 5.65-6.17zM136.55 111.5h2.54l-6.72 16.52c-1.37 3.32-2.92 4.52-5.34 4.52a7.266 7.266 0 01-3.41-.8l.81-1.89a5 5 0 002.51.59c1.43 0 2.33-.75 3.29-3l-7.29-16h2.64l5.82 13.36 5.15-13.3zM150.47 124.02l1.76-1.52c1.34 2 2.7 3.1 5 3.1 2.45 0 4.24-1.77 4.24-5.21v-14.56h2.48v14.51a7.821 7.821 0 01-2 5.7 6.635 6.635 0 01-4.77 1.8 7.428 7.428 0 01-6.71-3.82zM168.35 119.56v-.06c0-4.62 3.25-8.34 7.69-8.34 4.74 0 7.47 3.78 7.47 8.46.016.26.016.52 0 .78h-12.74a5.6 5.6 0 005.64 5.43 6.612 6.612 0 005.05-2.27l1.49 1.34a8.282 8.282 0 01-6.6 3 8 8 0 01-8-8.34zm12.74-.93c-.25-2.91-1.92-5.45-5.11-5.45-2.79 0-4.9 2.32-5.21 5.45h10.32zM187.94 123.28v-9.67h-2.23v-2.11h2.23v-4.84h2.39v4.84h5.08v2.11h-5.08v9.41a2.37 2.37 0 002.7 2.67 5.06 5.06 0 002.32-.56v2a6.06 6.06 0 01-2.88.68c-2.58 0-4.53-1.27-4.53-4.53zM199.33 105.83h9.24a7.998 7.998 0 015.68 1.92 4.801 4.801 0 011.39 3.47v.06a5.247 5.247 0 01-3.44 5c2.57.77 4.65 2.26 4.65 5.24v.06c0 3.72-3.13 5.92-7.87 5.92h-9.65v-21.67zm13.83 5.73c0-2.14-1.7-3.53-4.8-3.53h-6.61v7.47h6.42c2.94 0 5-1.33 5-3.88l-.01-.06zm-4.56 6.11h-6.85v7.66H209c3.28 0 5.33-1.46 5.33-3.88v-.06c.04-2.37-1.94-3.72-5.73-3.72zM221.38 111.5h2.39v4.19a6.852 6.852 0 012.56-3.274 6.851 6.851 0 013.98-1.196v2.58h-.19c-3.5 0-6.35 2.51-6.35 7.34v6.39h-2.39V111.5zM232.22 122.88v-.06c0-3.38 2.79-5.18 6.85-5.18a17.09 17.09 0 014.93.68v-.56c0-2.88-1.77-4.37-4.78-4.37-1.689.019-3.35.423-4.86 1.18l-.72-2a13.218 13.218 0 015.83-1.34 7.002 7.002 0 015.18 1.77 6.317 6.317 0 011.64 4.68v9.8H244v-2.42a7.002 7.002 0 01-5.8 2.76c-2.98.05-5.98-1.65-5.98-4.94zm11.78-1.24v-1.55a16.802 16.802 0 00-4.71-.68c-3 0-4.69 1.3-4.69 3.32v.06c0 2 1.87 3.19 4 3.19 3.01.04 5.4-1.8 5.4-4.34zM251.11 105.36h2.73v2.66h-2.73v-2.66zm.16 6.14h2.38v16h-2.38v-16zM258.81 111.5h2.39v2.79a6.09 6.09 0 015.49-3.13c3.88 0 6.14 2.6 6.14 6.42v10h-2.39v-9.36c0-3-1.61-4.84-4.43-4.84a4.709 4.709 0 00-3.5 1.447 4.722 4.722 0 00-1.31 3.553v9.18h-2.39V111.5zM276.29 125.48l1.2-1.7a9.399 9.399 0 005.55 2c1.93 0 3.32-1 3.32-2.55v-.06c0-1.61-1.89-2.23-4-2.82-2.51-.71-5.3-1.58-5.3-4.53v-.06c0-2.76 2.3-4.59 5.46-4.59 2.048.037 4.044.65 5.76 1.77l-1.08 1.8a9.076 9.076 0 00-4.74-1.55c-1.9 0-3.1 1-3.1 2.32v.06c0 1.52 2 2.11 4.12 2.76 2.48.75 5.15 1.71 5.15 4.59v.1c0 3-2.52 4.81-5.71 4.81a11 11 0 01-6.63-2.35z"/>
</svg>
