<svg height="55pt" viewBox="0 0 128 55" width="128pt" xmlns="http://www.w3.org/2000/svg"><g transform="matrix(.1 0 0 -.1 0 55)"><path d="m0 275c0-275 0-275 640-275s640 0 640 275 0 275-640 275-640 0-640-275zm370 222c19-9 47-24 62-34 27-17 29-17 55 0 55 35 99 50 153 50 37 0 69-7 97-21 23-12 44-26 48-32 10-16 45-12 72 10 38 30 128 53 171 45 41-8 107-39 117-56 4-6-9-28-30-49-36-37-38-37-99-33-56 5-65 3-93-21-18-15-33-39-37-59-3-17-2-48 4-67 9-32 8-37-31-76-23-23-46-52-53-65-6-12-29-31-50-42-54-28-136-34-190-13-24 9-51 25-60 34-15 17-13 21 28 61 38 37 47 41 64 32 11-6 36-11 56-11 23 0 45 9 66 26 30 26 31 30 29 94-2 56 2 73 19 95 12 15 22 34 22 41 0 22-24 16-49-10-20-21-28-23-84-19-57 5-66 3-94-21-18-15-33-39-37-59-3-18-1-48 5-66 11-31 10-35-31-76-23-24-47-54-54-66-6-13-31-34-56-46-30-16-62-23-100-23-56 0-125 24-147 52-10 12-5 22 30 56 41 40 45 42 75 31 18-6 47-8 65-5 19 3 46 19 60 34 26 27 27 31 19 90-8 57-7 63 15 84 25 23 31 58 10 58-8 0-24-11-36-24-20-21-28-23-86-18-61 4-65 3-94-26-25-24-31-39-31-72 0-23 5-51 11-62 10-18 5-27-35-67-47-46-47-46-66-21-11 14-27 49-36 79-14 45-14 63-5 107 7 29 25 70 41 92 15 22 43 50 60 62 18 13 49 29 69 37 20 7 56 12 81 10s61-11 80-20zm854-129c18-36 26-68 26-104 0-28-7-68-15-88-9-20-31-54-51-75-19-22-55-49-79-60-28-13-65-21-98-21-37 0-69 8-105 26-29 14-52 29-52 33s19 26 43 49c40 39 44 41 73 30 73-27 155 26 153 100 0 20-4 46-9 57-6 16 1 29 33 63 23 23 44 42 48 42s19-23 33-52z" fill="#fff"/><path d="m569 517c-25-7-59-23-76-35s-36-22-42-22c-11 0-37-40-33-53 1-5-7-20-18-34-17-22-20-39-19-102 1-42 6-87 11-101 14-40 52-90 67-90 8 0 11 3 7 7-3 4 16 30 44 58 51 51 51 51 36 86-8 19-12 46-9 62 3 15 19 38 35 52 19 16 42 25 64 25 20 0 45-5 56-11 17-9 26-6 56 23 19 18 31 26 27 18-5-8 4-4 18 9 15 14 27 29 27 34s-8 16-17 24c-39 30-92 52-139 57-27 3-69 0-95-7z" fill="#fac606"/><path d="m212 520c-18-4-50-19-72-34-22-14-53-45-70-67-16-22-34-65-40-95-9-40-9-68 0-106 6-28 20-66 31-85 11-18 28-33 38-33 9 0 37 20 61 45 43 43 44 46 32 78-19 54-15 86 17 118 23 22 39 29 68 29 22 0 47-6 57-13 16-12 24-7 73 42 55 55 55 55 27 78-34 27-114 53-158 52-17-1-46-5-64-9z" fill="#ec1b23"/><path d="m1134 388c-48-50-50-54-38-78 8-14 14-37 14-52 0-14-12-40-26-57-31-38-80-49-121-27-30 15-30 15-84-40-53-54-53-56-34-71 11-8 38-24 60-34 56-26 152-25 210 2 24 11 60 38 79 60 20 21 42 55 51 75 8 20 15 65 15 99 0 49-6 74-28 116-15 29-32 54-37 56-6 2-33-20-61-49z" fill="#6db021"/><path d="m912 512c-50-18-81-39-109-72-7-8-23-35-34-60-16-33-22-64-22-115 0-49 6-84 20-116 12-26 26-50 33-54 8-5 33 13 68 48 48 48 54 58 42 72-7 8-13 34-13 57 0 34 6 47 32 70 22 20 42 28 67 28 19 0 45-5 56-11 18-10 27-4 74 42 53 52 53 52 31 69-41 32-85 50-139 55-38 4-68 0-106-13z" fill="#7fcb27"/><g fill="#f89b0e"><path d="m754 372c-27-32-30-41-19-55 7-9 15-17 19-17 3 0 6 7 6 15 0 9 9 34 20 55 11 22 17 40 13 40-5 0-22-17-39-38z"/><path d="m712 190c-18-17-44-30-58-30s-38 6-53 14c-27 15-29 14-80-38-52-53-52-53-22-79 17-14 47-31 67-37 20-7 64-10 98-8 62 4 131 31 149 59 6 10 2 26-16 52-14 21-28 51-32 67-4 17-10 30-13 30-4 0-22-14-40-30z"/></g><path d="m359 194c-7-9-25-20-38-26-18-6-40-5-69 3-44 12-44 12-90-35-39-38-45-49-36-64 6-9 30-27 54-39 33-17 61-23 110-23 41 0 80 7 105 19 22 10 46 25 53 33 10 13 6 25-23 74-19 32-35 61-35 66 0 13-17 9-31-8z" fill="#ce171e"/><g fill="#60a90e"><path d="m1137 392c-26-26-47-53-47-59 0-7 4-14 9-17 5-4 7 2 5 11-3 12 11 33 39 61 44 44 44 44 66 16 11-14 21-22 21-17s-9 19-20 31c-12 12-22 22-23 22-2 0-24-22-50-48z"/><path d="m1253 265c0-27 2-38 4-22 2 15 2 37 0 50-2 12-4 0-4-28z"/><path d="m1105 256c0-25 3-40 7-33 10 16 10 77 1 77-5 0-8-20-8-44z"/><path d="m1240 185c-6-15-13-32-16-36-3-5-1-9 3-9 10 0 35 61 28 68-2 3-9-8-15-23z"/><path d="m954 166c21-17 73-21 95-7 8 6-2 8-30 8-24-1-53 2-64 7-20 8-20 7-1-8z"/><path d="m832 79c3-8 28-26 57-41 42-22 66-28 110-27 56 2 56 2-4 9-33 4-69 11-80 15s-35 19-54 33-32 19-29 11z"/></g><g fill="#ea050e"><path d="m173 508c-13-6-23-15-23-20s14-2 30 7c29 15 39 26 23 24-5 0-18-5-30-11z"/><path d="m380 385c-18-19-32-36-29-37 2-2 20 14 40 34 21 21 34 38 30 38s-22-16-41-35z"/><path d="m25 230c4-19 11-39 16-45 6-6 7 4 3 25-4 19-11 40-16 45-7 7-8-2-3-25z"/><path d="m173 245c3-11 8-27 11-35 4-10-9-31-39-60-46-45-46-45-66-21-11 13-21 22-24 20-2-3 7-18 20-34 24-30 24-30 79 25s55 55 35 90c-11 19-18 26-16 15z"/></g><g fill="#f69201"><path d="m722 199c-13-16-35-32-49-35-14-4-41-1-60 5-34 13-35 12-88-38-44-42-51-52-39-62 11-9 13-9 9 2-3 9 13 32 39 58 38 37 47 41 64 32 11-6 37-11 56-11 25 0 45 9 71 31 19 17 35 35 35 40 0 17-15 8-38-22z"/><path d="m811 89c-1-8-18-25-38-37-21-12-31-22-23-22s28 11 44 23c17 14 27 29 23 38-4 11-6 11-6-2z"/><path d="m510 51c0-17 80-41 133-40 52 2 52 2-8 9-33 4-75 14-92 24-18 9-33 12-33 7z"/></g><g fill="#75c716"><path d="m914 512c-28-10-63-28-79-40-15-12-25-22-21-22s24 11 44 25 54 28 75 32c20 3 40 10 43 14 3 5 2 9-3 9-4-1-31-9-59-18z"/><path d="m923 355c-15-13-23-24-18-24 6 0 24 11 40 24 17 14 25 25 18 25s-25-11-40-25z"/><path d="m885 290c-4-19-1-41 9-62 16-32 16-32-36-87-53-56-53-56 6 1 52 49 58 59 46 73-7 9-13 36-12 60 0 25-1 45-3 45s-6-13-10-30z"/></g><g fill="#c9030a"><path d="m360 195c-12-13-35-27-51-30-18-4-41 0-61 10-32 16-32 16-87-40-54-53-55-55-36-70 32-25 75-46 75-37 0 5-16 16-35 25s-35 20-35 25c0 4 20 27 44 51 43 42 45 43 78 31 19-7 47-10 61-6 29 7 85 51 76 60-3 3-16-5-29-19z"/><path d="m450 80c0-6-16-18-35-27s-35-20-35-25 12-2 28 7c52 28 77 55 52 55-5 0-10-5-10-10z"/></g><path d="m148 143c-27-27-48-41-58-38-10 4-8 0 4-12 19-18 21-17 70 35 29 31 55 51 63 47 8-2 11-1 8 4-12 20-47 5-87-36zm12-8c-24-25-46-45-49-45s15 20 39 45 46 45 49 45-15-20-39-45z" fill="#e33f46"/><path d="m150 143c-55-58-55-58 1-5 30 29 59 49 64 45 4-5 5-2 1 5-4 6-8 12-9 12-2 0-27-26-57-57z" fill="#f6adae"/></g></svg>