<svg width="1050" height="770" enable-background="new 0 0 178.4 124.9" viewBox="0 0 178.4 124.9" xmlns="http://www.w3.org/2000/svg"><g fill="#420083"><path d="m101.7 61.1h8.3c1.1 0 1.8-.5 2-1.7.2-1.1-.3-1.7-1.4-1.7h-8.3c-1.1 0-1.7.5-1.9 1.7-.3 1.1.2 1.7 1.3 1.7m-.7 4.1h8.3c1.1 0 1.7-.6 1.9-1.7s-.2-1.7-1.3-1.7h-8.3c-1.1 0-1.8.5-2 1.7-.2 1.1.3 1.7 1.4 1.7zm-2.1 2.5c-.2 1.1.3 1.7 1.4 1.7h8.3c1.1 0 1.7-.6 1.9-1.7s-.3-1.7-1.4-1.7h-8.3c-1.1 0-1.7.6-1.9 1.7zm-.7 4.1c-.2 1.1.3 1.7 1.4 1.7h8.3c1.1 0 1.7-.6 1.9-1.7s-.3-1.7-1.4-1.7h-8.3c-1.1 0-1.8.6-1.9 1.7zm6.4-27.2h8.3c1.1 0 1.7-.5 1.9-1.7.2-1.1-.2-1.7-1.3-1.7h-8.3c-1.1 0-1.8.5-2 1.7-.2 1.1.3 1.7 1.4 1.7zm-.7 4.1h8.3c1.1 0 1.7-.5 1.9-1.7.2-1.1-.2-1.7-1.3-1.7h-8.3c-1.1 0-1.8.5-2 1.7-.2 1.1.3 1.7 1.4 1.7zm-2.1 2.5c-.2 1.1.3 1.7 1.4 1.7h8.3c1.1 0 1.7-.5 1.9-1.7.2-1.1-.3-1.7-1.4-1.7h-8.3c-1.1 0-1.7.6-1.9 1.7zm-.7 4.1c-.2 1.1.2 1.7 1.3 1.7h8.3c1.1 0 1.8-.5 2-1.7.2-1.1-.3-1.7-1.4-1.7h-8.3c-1.1 0-1.7.6-1.9 1.7zm-2.5-23.1h24.8c1.1 0 1.7-.5 1.9-1.6s-.3-1.6-1.4-1.6h-24.8c-1.1 0-1.7.5-1.9 1.6-.2 1 .3 1.6 1.4 1.6zm-.8 4.1h24.8c1.1 0 1.7-.5 1.9-1.7.2-1.1-.3-1.7-1.4-1.7h-24.7c-1.1 0-1.7.5-1.9 1.7-.2 1.1.2 1.7 1.3 1.7zm-.7 4.1h24.8c1.1 0 1.8-.5 2-1.7.2-1.1-.3-1.7-1.4-1.7h-24.8c-1.1 0-1.7.5-1.9 1.7-.3 1.2.2 1.7 1.3 1.7zm-38.2 10.8c-.2 1.1.3 1.7 1.4 1.7h24.7c1.1 0 1.7-.5 1.9-1.7.2-1.1-.3-1.7-1.4-1.7h-24.7c-1.1 0-1.7.6-1.9 1.7zm7.7-20.7c-.2 1.1.3 1.6 1.4 1.6h20.6c1.1 0 1.7-.5 1.9-1.6s-.3-1.6-1.4-1.6h-20.5c-1.1 0-1.8.5-2 1.6zm-11.3 41.3c-.2 1.1.3 1.7 1.4 1.7h20.6c1.1 0 1.7-.6 1.9-1.7s-.3-1.7-1.4-1.7h-20.6c-1.1 0-1.8.6-1.9 1.7zm6.6-16.5c-.2 1.1.2 1.7 1.3 1.7h21c1.1 0 1.8-.5 2-1.7.2-1.1-.3-1.7-1.4-1.7h-21c-1.1 0-1.7.6-1.9 1.7zm-2.3-8.3c-.2 1.1.3 1.7 1.4 1.7h20.6c1.1 0 1.7-.5 1.9-1.7.2-1.1-.2-1.7-1.3-1.7h-20.6c-1.1.1-1.8.6-2 1.7zm.7-4.1c-.2 1.1.3 1.7 1.4 1.7h8.2c1.1 0 1.7-.5 1.9-1.7.2-1.1-.2-1.7-1.3-1.7h-8.2c-1.1 0-1.8.6-2 1.7zm13.7 16.5c-.2 1.1.2 1.7 1.3 1.7h8.3c1.1 0 1.8-.5 2-1.7.2-1.1-.3-1.7-1.4-1.7h-8.3c-1.1.1-1.8.6-1.9 1.7zm-10.8-23.1h24.8c1.1 0 1.7-.5 1.9-1.7.2-1.1-.3-1.7-1.4-1.7h-24.8c-1.1 0-1.7.5-1.9 1.7-.2 1.1.3 1.7 1.4 1.7zm-.8 4.1h24.8c1.1 0 1.8-.5 2-1.7.2-1.1-.3-1.7-1.4-1.7h-24.8c-1.1 0-1.7.5-1.9 1.7s.2 1.7 1.3 1.7zm-4.3 24.8h24.8c1.1 0 1.7-.6 1.9-1.7s-.2-1.7-1.3-1.7h-24.8c-1.1 0-1.8.5-2 1.7-.2 1.1.3 1.7 1.4 1.7zm-.8 4.1h24.8c1.1 0 1.7-.6 1.9-1.7s-.3-1.7-1.4-1.7h-24.7c-1.1 0-1.7.6-1.9 1.7-.2 1.2.2 1.7 1.3 1.7z"/><g clip-rule="evenodd" fill-rule="evenodd"><path d="m55.7 78.4c8 9.7 20.1 15.8 33.7 15.8 24.2 0 43.8-19.6 43.8-43.7 0-3.1-.3-6.2-.9-9.1h4.3c.6 3 .9 6 .9 9.1 0 26.5-21.5 48-48 48-16.1 0-30.3-7.9-39-20.1zm33.6-75.9c17.2 0 32.2 9 40.7 22.6h-5c-8-11.1-21-18.4-35.7-18.4-24.2 0-43.7 19.6-43.7 43.8 0 4 .5 7.9 1.6 11.6h-4.4c-.9-3.7-1.4-7.6-1.4-11.6-.1-26.5 21.4-48 47.9-48z"/><path d="m47 61.5s3.3 6.5 10.6.6l.7 2.5s-11.9 6-15.6-2.7z"/><path d="m55.7 78.5s-5.1-3.6.7-5.2l.6-3.1s-14-.7-6.7 8.3z"/><path d="m132.8 45.2s.4-9.8-10.7-4.4l.4-3s12.8-4.7 13.9 4.6z"/><path d="m123.7 24s4.4 4-.8 5.6l.4 2.8s13.2.6 5.8-8.4z"/></g><path d="m4.6 122.8c-1.2 0-2.1-.3-2.9-.7s-1.4-1.2-1.7-2.1l2.4-1.4c.4 1 1.2 1.5 2.2 1.5.9 0 1.3-.3 1.3-.8 0-.3-.3-.6-.8-.8-.2-.1-.6-.2-1.4-.4-1.1-.3-1.9-.7-2.5-1.3s-.8-1.3-.8-2.2c0-1 .4-1.9 1.1-2.5.8-.6 1.7-1 2.8-1 .9 0 1.8.2 2.5.7s1.3 1.1 1.7 1.9l-2.4 1.4c-.3-.8-.9-1.3-1.7-1.3-.3 0-.6.1-.8.2s-.3.3-.3.5c0 .3.1.4.4.6s.8.4 1.5.6c.6.2 1 .3 1.3.4.3.2.7.3 1.1.6.8.5 1.2 1.3 1.2 2.4s-.4 2-1.2 2.6c-.7.8-1.7 1.1-3 1.1z"/><path d="m15.4 116.8 3.7 5.8h-3.1l-3.2-5v5h-2.9v-11.2h2.9v4.7l3.1-4.7h3.1z"/><path d="m26.3 111.4h3.2l-3.8 6.9v4.3h-2.9v-4.3l-3.8-6.9h3.2l2 4.1z"/><path d="m36.6 117v-5.6h2.8v11.2h-2.2l-4-5.6v5.6h-2.9v-11.2h2.2z"/><path d="m44.1 118.2v1.7h4.3v2.7h-7.2v-11.2h7.1v2.7h-4.3v1.6h3.9v2.6c0-.1-3.8-.1-3.8-.1z"/><path d="m49 111.4h8.4v2.8h-2.8v8.4h-2.9v-8.4h-2.7z"/><path d="m61.4 111.4h8.4v2.8h-2.8v8.4h-2.9v-8.4h-2.8v-2.8z"/><path d="m73.7 118.2v1.7h4.3v2.7h-7.2v-11.2h7.1v2.7h-4.3v1.6h3.9v2.6c0-.1-3.8-.1-3.8-.1z"/><path d="m84.7 122.8c-1.7 0-3.1-.6-4.2-1.7s-1.7-2.5-1.7-4.2.6-3.1 1.7-4.2 2.5-1.7 4.2-1.7c1 0 1.9.2 2.8.7s1.5 1.1 2 1.9l-2.5 1.4c-.2-.4-.5-.7-.9-.9s-.9-.3-1.4-.3c-.9 0-1.6.3-2.2.8-.5.6-.8 1.3-.8 2.2s.3 1.7.8 2.2c.6.6 1.3.8 2.2.8.5 0 1-.1 1.4-.3s.7-.6.9-.9l2.5 1.4c-.5.8-1.2 1.5-2 1.9-.8.7-1.8.9-2.8.9z"/><path d="m96.6 115.5v-4.1h2.8v11.2h-2.8v-4.3h-3.2v4.3h-2.9v-11.2h2.9v4.1z"/><path d="m107.4 117v-5.6h2.8v11.2h-2.2l-3.9-5.6v5.6h-2.9v-11.2h2.2z"/><path d="m121.6 121.1c-1.1 1.1-2.5 1.7-4.2 1.7s-3.1-.6-4.2-1.7-1.7-2.5-1.7-4.2c0-1.6.6-3 1.7-4.1s2.5-1.7 4.2-1.7c1.6 0 3 .6 4.2 1.7 1.1 1.1 1.7 2.5 1.7 4.1 0 1.7-.5 3.1-1.7 4.2zm-6.3-1.9c.6.6 1.3.8 2.2.8s1.6-.3 2.2-.8c.6-.6.9-1.3.9-2.2s-.3-1.6-.9-2.2-1.3-.9-2.2-.9-1.6.3-2.2.9-.9 1.3-.9 2.2.3 1.6.9 2.2z"/><path d="m127.5 111.4v8.4h3.9v2.8h-6.7v-11.2z"/><path d="m141.5 121.1c-1.1 1.1-2.5 1.7-4.2 1.7-1.6 0-3.1-.6-4.2-1.7s-1.7-2.5-1.7-4.2c0-1.6.6-3 1.7-4.1s2.5-1.7 4.2-1.7c1.6 0 3 .6 4.2 1.7 1.1 1.1 1.7 2.5 1.7 4.1 0 1.7-.6 3.1-1.7 4.2zm-6.4-1.9c.6.6 1.3.8 2.2.8s1.6-.3 2.2-.8c.6-.6.9-1.3.9-2.2s-.3-1.6-.9-2.2-1.3-.9-2.2-.9-1.6.3-2.2.9-.9 1.3-.9 2.2c.1.9.4 1.6.9 2.2z"/><path d="m150 116.2h5.6v1.1c0 1.6-.5 3-1.6 4-1 1-2.4 1.5-4 1.5-1.7 0-3.2-.6-4.3-1.7s-1.7-2.5-1.7-4.1.6-3 1.7-4.2c1.1-1.1 2.5-1.7 4.2-1.7 1 0 2 .2 2.9.7s1.6 1.1 2.1 1.9l-2.4 1.4c-.2-.3-.6-.6-1-.8s-.9-.3-1.5-.3c-.9 0-1.6.3-2.2.9s-.9 1.3-.9 2.2.3 1.6.8 2.2c.6.6 1.4.9 2.4.9 1.3 0 2.2-.5 2.6-1.5h-2.7z"/><path d="m156.9 122.6v-11.2h2.9v11.2z"/><path d="m164.4 118.2v1.7h4.3v2.7h-7.2v-11.2h7.1v2.7h-4.3v1.6h3.9v2.6c.1-.1-3.8-.1-3.8-.1z"/><path d="m174.1 122.8c-1.2 0-2.1-.3-2.9-.7s-1.3-1.2-1.7-2.1l2.4-1.4c.4 1 1.1 1.5 2.2 1.5.9 0 1.3-.3 1.3-.8 0-.3-.3-.6-.8-.8-.2-.1-.6-.2-1.4-.4-1.1-.3-1.9-.7-2.5-1.3s-.9-1.3-.9-2.2c0-1 .4-1.9 1.1-2.5.8-.6 1.7-1 2.8-1 .9 0 1.8.2 2.5.7s1.3 1.1 1.7 1.9l-2.4 1.4c-.4-.8-.9-1.3-1.7-1.3-.3 0-.6.1-.8.2s-.3.3-.3.5c0 .3.1.4.4.6s.8.4 1.5.6c.6.2 1 .3 1.3.4.4.2.7.3 1.1.6.8.5 1.2 1.3 1.2 2.4s-.4 2-1.2 2.6c-.6.8-1.6 1.1-2.9 1.1z"/></g></svg>
