<?xml version="1.0" encoding="UTF-8"?>
<svg width="1920" height="335" id="Layer_1" data-name="Layer 1" xmlns="http://www.w3.org/2000/svg" viewBox="0 0 177.37 30.83">
  <defs>
    <style>
      .cls-1 {
        stroke-width: 0px;
      }
    </style>
  </defs>
  <g>
    <g>
      <path class="cls-1" d="m50.01,3.89l-.63,1.43c-.44-.16-.88-.29-1.31-.39-.43-.1-.85-.14-1.25-.14-.67,0-1.21.14-1.61.42-.4.28-.6.63-.6,1.06,0,.36.14.66.43.88.29.22.65.42,1.08.59s.89.35,1.4.53.97.4,1.4.68c.43.28.79.63,1.08,1.05.29.42.43.97.43,1.63,0,.51-.09.98-.28,1.39-.19.41-.47.77-.84,1.07-.37.3-.83.53-1.38.69-.55.16-1.2.24-1.94.24-.47,0-.9-.03-1.28-.1s-.72-.15-1.03-.25c-.31-.1-.57-.21-.8-.33s-.43-.23-.59-.32l.77-1.53c.43.25.9.44,1.43.59.52.15,1,.22,1.43.22.21,0,.48-.03.79-.08.32-.05.62-.15.91-.28s.54-.31.75-.54c.21-.23.31-.51.31-.85,0-.31-.08-.58-.25-.79s-.39-.41-.66-.58c-.27-.17-.58-.32-.93-.45-.35-.13-.7-.27-1.07-.42-.36-.15-.72-.3-1.07-.46s-.66-.36-.93-.59c-.27-.23-.49-.5-.66-.8-.17-.31-.25-.67-.25-1.1,0-.4.08-.79.24-1.17.16-.39.4-.73.72-1.03.32-.3.72-.54,1.2-.72.48-.18,1.03-.27,1.66-.27.39,0,.76.03,1.13.1.37.06.7.14,1,.22s.55.16.76.23c.21.08.35.13.41.16Z"/>
      <path class="cls-1" d="m65.31,3.25v1.67h-2.94v9.98h-1.75V4.92h-2.87v-1.67h7.57Z"/>
      <path class="cls-1" d="m73.28,14.89V3.25h7.65v1.59h-5.88v3.4h5.24v1.62h-5.24v3.41h6.1v1.62h-7.87Z"/>
      <path class="cls-1" d="m97.04,14.89c-.05-.12-.13-.29-.22-.51-.1-.23-.21-.48-.33-.78-.12-.29-.26-.62-.4-.96-.14-.35-.29-.71-.44-1.08h-4.11l-1.38,3.34h-1.73l5.19-12.19c.06.15.18.42.35.82.17.4.36.87.59,1.42.23.55.49,1.16.77,1.83.28.67.57,1.35.87,2.03.29.69.58,1.36.87,2.02.28.66.54,1.27.78,1.83.24.56.44,1.03.6,1.42.17.39.28.66.35.81h-1.74Zm-4.9-4.82h2.91c-.15-.35-.29-.69-.43-1.02-.13-.33-.26-.63-.37-.9s-.21-.51-.3-.71-.15-.36-.19-.48c-.01-.02-.04-.1-.07-.22-.04-.13-.07-.25-.09-.35-.02.11-.05.22-.1.35-.04.13-.07.2-.08.22l-1.29,3.12Z"/>
      <path class="cls-1" d="m106.43,3.25h2.92c1.18,0,2.17.18,2.99.53.81.35,1.48.82,1.98,1.39.51.57.88,1.21,1.11,1.93s.35,1.42.35,2.13c0,.87-.16,1.65-.47,2.35-.31.7-.73,1.3-1.27,1.79-.54.49-1.16.87-1.86,1.13-.71.26-1.46.39-2.25.39h-3.5V3.25Zm3.24,9.97c.62,0,1.2-.09,1.73-.27.53-.18.99-.45,1.38-.79s.7-.78.92-1.29c.22-.51.33-1.09.33-1.76,0-.71-.12-1.32-.37-1.85-.25-.52-.57-.96-.96-1.31-.4-.35-.84-.6-1.34-.77-.5-.17-1-.25-1.52-.25h-1.65v8.29h1.49Z"/>
      <path class="cls-1" d="m124.15,14.89V3.25h6.97v1.62h-5.22v3.52h4.56v1.64h-4.56v4.87h-1.75Z"/>
      <path class="cls-1" d="m145.61,14.89c-.05-.12-.13-.29-.22-.51-.1-.23-.21-.48-.33-.78-.12-.29-.26-.62-.4-.96-.14-.35-.29-.71-.44-1.08h-4.11l-1.38,3.34h-1.73l5.19-12.19c.06.15.18.42.35.82.17.4.36.87.59,1.42.23.55.49,1.16.77,1.83.28.67.57,1.35.87,2.03.29.69.58,1.36.87,2.02.28.66.54,1.27.78,1.83.24.56.44,1.03.6,1.42.17.39.28.66.35.81h-1.74Zm-4.9-4.82h2.91c-.15-.35-.29-.69-.43-1.02-.13-.33-.26-.63-.37-.9s-.21-.51-.3-.71-.15-.36-.19-.48c-.01-.02-.04-.1-.07-.22-.04-.13-.07-.25-.09-.35-.02.11-.05.22-.1.35-.04.13-.07.2-.08.22l-1.29,3.12Z"/>
      <path class="cls-1" d="m162.06,3.89l-.63,1.43c-.44-.16-.88-.29-1.31-.39-.43-.1-.85-.14-1.25-.14-.67,0-1.21.14-1.61.42-.4.28-.6.63-.6,1.06,0,.36.14.66.43.88.29.22.65.42,1.08.59s.89.35,1.4.53.97.4,1.4.68c.43.28.79.63,1.08,1.05.29.42.43.97.43,1.63,0,.51-.09.98-.28,1.39-.19.41-.47.77-.84,1.07-.37.3-.83.53-1.38.69-.55.16-1.2.24-1.94.24-.47,0-.9-.03-1.28-.1s-.72-.15-1.03-.25c-.31-.1-.57-.21-.8-.33s-.43-.23-.59-.32l.77-1.53c.43.25.9.44,1.43.59.52.15,1,.22,1.43.22.21,0,.48-.03.79-.08.32-.05.62-.15.91-.28s.54-.31.75-.54c.21-.23.31-.51.31-.85,0-.31-.08-.58-.25-.79s-.39-.41-.66-.58c-.27-.17-.58-.32-.93-.45-.35-.13-.7-.27-1.07-.42-.36-.15-.72-.3-1.07-.46-.35-.16-.66-.36-.93-.59-.27-.23-.49-.5-.66-.8-.17-.31-.25-.67-.25-1.1,0-.4.08-.79.24-1.17.16-.39.4-.73.72-1.03.32-.3.72-.54,1.2-.72.48-.18,1.03-.27,1.66-.27.39,0,.76.03,1.13.1.37.06.7.14,1,.22s.55.16.76.23c.21.08.35.13.41.16Z"/>
      <path class="cls-1" d="m177.37,3.25v1.67h-2.94v9.98h-1.75V4.92h-2.87v-1.67h7.57Z"/>
    </g>
    <g>
      <path class="cls-1" d="m46.91,27.46c-.06.05-.15.1-.26.15-.11.06-.24.11-.4.15-.15.05-.32.09-.51.12-.19.03-.38.05-.59.05-.44,0-.84-.08-1.2-.23-.35-.15-.65-.36-.9-.62s-.43-.56-.57-.91-.2-.71-.2-1.1c0-.43.08-.82.23-1.19s.37-.67.63-.93c.27-.26.58-.47.94-.61.36-.15.74-.22,1.14-.22.15,0,.31.01.46.03.16.02.3.05.44.09.14.04.26.08.37.13.11.05.19.1.25.15-.04.06-.07.12-.1.16s-.05.09-.07.13c-.03.04-.06.1-.09.15-.03.06-.07.13-.13.23-.07-.05-.15-.09-.24-.12-.09-.03-.19-.06-.29-.08s-.2-.04-.3-.05c-.1-.01-.2-.02-.28-.02-.3,0-.59.06-.84.17-.26.11-.48.26-.67.46-.19.19-.34.41-.44.66-.11.25-.16.51-.16.79s.05.52.15.77c.1.25.24.47.42.66.18.19.4.35.65.46.25.12.53.17.84.17.16,0,.32-.02.47-.05.15-.03.29-.07.41-.11.12-.04.22-.08.31-.13.08-.04.13-.07.15-.09l.36.78Z"/>
      <path class="cls-1" d="m50.16,25.03c0-.39.08-.77.23-1.12.15-.35.36-.66.62-.93.26-.27.57-.48.92-.63.35-.15.73-.23,1.13-.23s.77.08,1.13.23c.35.15.66.37.93.63.26.27.47.58.63.93.15.35.23.73.23,1.12s-.08.78-.23,1.13-.36.66-.63.92c-.26.26-.57.47-.93.62-.35.15-.73.23-1.13.23s-.78-.08-1.13-.23c-.35-.15-.66-.36-.92-.62s-.47-.57-.62-.92c-.15-.35-.23-.73-.23-1.13Zm.86,0c0,.29.05.56.16.81.11.25.26.47.44.66.19.19.41.34.66.45.25.11.52.17.8.17s.55-.05.8-.17c.25-.11.47-.26.65-.45.19-.19.33-.41.44-.66.11-.25.16-.53.16-.82s-.05-.56-.16-.81c-.11-.25-.26-.48-.44-.66-.19-.19-.41-.34-.66-.45s-.51-.17-.8-.17-.55.06-.8.17c-.25.11-.47.26-.66.45-.19.19-.33.41-.44.67-.11.26-.16.53-.16.82Z"/>
      <path class="cls-1" d="m60.09,27.87v-5.69h.86v4.88h2.83v.82h-3.69Z"/>
      <path class="cls-1" d="m67.61,27.87v-5.69h.86v4.88h2.83v.82h-3.69Z"/>
      <path class="cls-1" d="m75.13,27.87v-5.69h3.74v.78h-2.87v1.66h2.56v.79h-2.56v1.66h2.98v.79h-3.85Z"/>
      <path class="cls-1" d="m87.2,27.46c-.06.05-.15.1-.26.15-.11.06-.24.11-.4.15-.15.05-.32.09-.51.12-.19.03-.38.05-.59.05-.44,0-.84-.08-1.2-.23-.35-.15-.65-.36-.9-.62s-.43-.56-.57-.91-.2-.71-.2-1.1c0-.43.08-.82.23-1.19s.37-.67.63-.93c.27-.26.58-.47.94-.61.36-.15.74-.22,1.14-.22.15,0,.31.01.46.03.16.02.3.05.44.09.14.04.26.08.37.13.11.05.19.1.25.15-.04.06-.07.12-.1.16s-.05.09-.07.13c-.03.04-.06.1-.09.15-.03.06-.07.13-.13.23-.07-.05-.15-.09-.24-.12-.09-.03-.19-.06-.29-.08s-.2-.04-.3-.05c-.1-.01-.2-.02-.28-.02-.3,0-.59.06-.84.17-.26.11-.48.26-.67.46-.19.19-.34.41-.44.66-.11.25-.16.51-.16.79s.05.52.15.77c.1.25.24.47.42.66.18.19.4.35.65.46.25.12.53.17.84.17.16,0,.32-.02.47-.05.15-.03.29-.07.41-.11.12-.04.22-.08.31-.13.08-.04.13-.07.15-.09l.36.78Z"/>
      <path class="cls-1" d="m94.46,22.18v.82h-1.44v4.88h-.86v-4.88h-1.41v-.82h3.7Z"/>
      <path class="cls-1" d="m98.4,22.18h.86v5.69h-.86v-5.69Z"/>
      <path class="cls-1" d="m103.89,22.18c.04.09.1.23.18.44.08.2.18.43.29.69.11.26.22.53.34.82.12.29.23.56.33.82s.2.49.28.69c.08.2.14.35.18.44,0,.01.02.05.04.11.02.06.04.12.05.16l.08-.27c.04-.09.1-.23.18-.44.08-.2.18-.43.28-.69s.22-.53.33-.82c.12-.29.23-.56.34-.82.11-.26.2-.49.29-.69.08-.2.14-.35.18-.44h.85c-.03.07-.09.21-.17.4-.08.19-.18.42-.29.7-.12.27-.24.57-.38.9-.14.32-.28.65-.42.99-.14.34-.29.66-.42.99s-.26.62-.38.9c-.11.27-.21.5-.29.69-.08.19-.14.32-.17.4l-2.54-5.95h.85Z"/>
      <path class="cls-1" d="m111.89,27.87v-5.69h3.74v.78h-2.87v1.66h2.56v.79h-2.56v1.66h2.98v.79h-3.85Z"/>
    </g>
  </g>
  <path class="cls-1" d="m29.87,0H.96C.43,0,0,.43,0,.96v28.9c0,.53.43.96.96.96h28.9c.53,0,.96-.43.96-.96V.96c0-.53-.43-.96-.96-.96Zm-15.79,28.9h-4.22l1.81-2.18,2.41,2.18Zm-3.84-3.47l-2.88,3.47H1.93v-.49l5.84-5.22,2.48,2.24Zm-3.91-3.54l-4.4,3.94v-.96l2.72-4.49,1.68,1.52Zm10.49-6.8l3.81,5.71-4.53-1.48h0c-.38-.12-.78,0-1.04.3l-3.59,4.33-2.26-2.05,7.61-6.81Zm-.69,6.26l6.24,2.04,3.68,5.51h-9.09l-4.05-3.66,3.23-3.89Zm.23-8.44l-8.59,7.69-2.7-2.44c-.22-.2-.5-.28-.79-.24-.28.04-.53.21-.68.45l-1.67,2.77V1.93h26.98v21.58l-5.31-1.74-5.8-8.67c-.16-.23-.4-.38-.68-.42-.28-.03-.56.06-.76.24Zm12.55,12.62v3.37h-.54l-3.03-4.54,3.57,1.17Z"/>
</svg>
