<svg width="287" height="100" viewBox="0 0 254.37 104.62" xmlns="http://www.w3.org/2000/svg"><g fill="#101319"><path d="m14.52 59.24-1.18 2.69a22 22 0 0 0 -2.46-.73 10.94 10.94 0 0 0 -2.35-.27 5.21 5.21 0 0 0 -3 .79 2.33 2.33 0 0 0 -1.13 2 2 2 0 0 0 .81 1.65 8.77 8.77 0 0 0 2 1.12c.81.34 1.68.67 2.63 1a11.69 11.69 0 0 1 2.63 1.29 7 7 0 0 1 2 2 5.35 5.35 0 0 1 .82 3.07 6.24 6.24 0 0 1 -.53 2.61 5.59 5.59 0 0 1 -1.58 2 7.46 7.46 0 0 1 -2.6 1.3 13.17 13.17 0 0 1 -3.58.44 14.7 14.7 0 0 1 -2.45-.2 13 13 0 0 1 -1.93-.47 11.12 11.12 0 0 1 -1.52-.62c-.43-.22-.8-.42-1.1-.61l1.45-2.87a12.26 12.26 0 0 0 2.69 1.12 10 10 0 0 0 2.7.42 9.21 9.21 0 0 0 1.49-.15 6.29 6.29 0 0 0 1.67-.51 4.38 4.38 0 0 0 1.41-1 2.27 2.27 0 0 0 .59-1.61 2.42 2.42 0 0 0 -.47-1.5 4.42 4.42 0 0 0 -1.24-1.09 11.89 11.89 0 0 0 -1.75-.85l-2-.78c-.68-.28-1.35-.56-2-.87a7.75 7.75 0 0 1 -1.75-1.1 5.11 5.11 0 0 1 -1.23-1.51 4.33 4.33 0 0 1 -.47-2.07 5.67 5.67 0 0 1 1.81-4.15 6.91 6.91 0 0 1 2.26-1.36 8.78 8.78 0 0 1 3.13-.51 12.5 12.5 0 0 1 2.13.18 18.1 18.1 0 0 1 1.89.41c.57.15 1 .29 1.44.43s.65.25.77.31z"/><path d="m43.34 58v3.14h-5.53v18.86h-3.3v-18.83h-5.41v-3.17z"/><path d="m58.35 80v-22h14.4v3h-11.08v6.41h9.87v3.06h-9.87v6.43h11.5v3.1z"/><path d="m103.1 80c-.1-.22-.25-.55-.43-1s-.39-.91-.62-1.47l-.75-1.81c-.28-.66-.55-1.34-.84-2h-7.74l-2.6 6.28h-3.27l9.77-23 .65 1.54c.32.75.69 1.64 1.12 2.68l1.45 3.45c.54 1.26 1.08 2.53 1.64 3.82l1.63 3.82c.54 1.25 1 2.39 1.47 3.44l1.13 2.68c.32.74.53 1.25.65 1.53zm-9.23-9.08h5.48c-.29-.66-.55-1.3-.81-1.92l-.69-1.69c-.21-.52-.4-1-.56-1.35s-.28-.68-.36-.91a3 3 0 0 1 -.14-.42c-.07-.24-.13-.46-.17-.66a5.55 5.55 0 0 1 -.18.66 4.07 4.07 0 0 1 -.15.42z"/><path d="m120.78 58h5.5a14 14 0 0 1 5.63 1 10.45 10.45 0 0 1 3.74 2.61 10.16 10.16 0 0 1 2.08 3.63 12.79 12.79 0 0 1 .65 4 10.91 10.91 0 0 1 -.87 4.43 10.16 10.16 0 0 1 -2.39 3.37 10.65 10.65 0 0 1 -3.51 2.14 12.16 12.16 0 0 1 -4.24.74h-6.59zm6.11 18.78a10 10 0 0 0 3.25-.51 7.52 7.52 0 0 0 2.6-1.5 6.78 6.78 0 0 0 1.73-2.42 8.35 8.35 0 0 0 .62-3.31 8.18 8.18 0 0 0 -.7-3.48 7.2 7.2 0 0 0 -4.34-3.92 9.07 9.07 0 0 0 -2.86-.47h-3.11v15.64z"/><path d="m154.15 80v-22h13.13v3h-9.83v6.63h8.55v3.08h-8.59v9.29z"/><path d="m194.56 80c-.1-.22-.24-.55-.42-1s-.39-.91-.62-1.47-.48-1.16-.76-1.81-.54-1.34-.83-2h-7.74l-2.6 6.28h-3.27l9.77-23 .65 1.54c.31.75.69 1.64 1.12 2.68s.92 2.19 1.45 3.45 1.08 2.53 1.64 3.82 1.09 2.57 1.63 3.82l1.47 3.44 1.13 2.68c.31.74.53 1.25.65 1.53zm-9.22-9.08h5.47c-.28-.66-.55-1.3-.8-1.92l-.69-1.69c-.22-.52-.4-1-.56-1.35s-.29-.68-.37-.91a3.89 3.89 0 0 1 -.13-.42c-.07-.24-.13-.46-.17-.66a5.55 5.55 0 0 1 -.18.66 4.07 4.07 0 0 1 -.15.42z"/><path d="m225.55 59.24-1.18 2.69a21.56 21.56 0 0 0 -2.47-.73 10.85 10.85 0 0 0 -2.34-.27 5.21 5.21 0 0 0 -3 .79 2.34 2.34 0 0 0 -1.14 2 2 2 0 0 0 .82 1.65 8.77 8.77 0 0 0 2 1.12c.8.34 1.68.67 2.63 1a11.9 11.9 0 0 1 2.63 1.29 7.09 7.09 0 0 1 2 2 5.35 5.35 0 0 1 .81 3.07 6.24 6.24 0 0 1 -.52 2.61 5.59 5.59 0 0 1 -1.58 2 7.46 7.46 0 0 1 -2.6 1.3 13.17 13.17 0 0 1 -3.64.45 14.7 14.7 0 0 1 -2.41-.18 13 13 0 0 1 -1.93-.47 11.12 11.12 0 0 1 -1.52-.62c-.43-.22-.8-.42-1.1-.61l1.45-2.87a12.06 12.06 0 0 0 2.69 1.12 10 10 0 0 0 2.7.42 9.21 9.21 0 0 0 1.49-.15 6.29 6.29 0 0 0 1.71-.53 4.49 4.49 0 0 0 1.41-1 2.27 2.27 0 0 0 .59-1.6 2.42 2.42 0 0 0 -.47-1.5 4.42 4.42 0 0 0 -1.24-1.09 12 12 0 0 0 -1.76-.85l-2-.78c-.68-.28-1.35-.56-2-.87a7.75 7.75 0 0 1 -1.75-1.1 5.11 5.11 0 0 1 -1.24-1.53 4.22 4.22 0 0 1 -.47-2.07 5.71 5.71 0 0 1 .45-2.21 5.61 5.61 0 0 1 1.36-1.94 6.91 6.91 0 0 1 2.26-1.36 8.78 8.78 0 0 1 3.13-.51 12.58 12.58 0 0 1 2.13.18 18.1 18.1 0 0 1 1.89.41c.56.15 1 .29 1.44.43s.65.25.77.31z"/><path d="m254.37 58v3.14h-5.53v18.86h-3.3v-18.83h-5.42v-3.17z"/><path d="m69.71 103.42a2.64 2.64 0 0 1 -.47.28 4.41 4.41 0 0 1 -.71.27 6.75 6.75 0 0 1 -.91.22 7.27 7.27 0 0 1 -1.07.08 5.29 5.29 0 0 1 -2.15-.42 4.74 4.74 0 0 1 -2.63-2.76 5.42 5.42 0 0 1 -.35-2 5.32 5.32 0 0 1 .41-2.09 5.15 5.15 0 0 1 2.82-2.78 5.29 5.29 0 0 1 2.06-.4 5.9 5.9 0 0 1 .83.06 6.31 6.31 0 0 1 .8.15 4.21 4.21 0 0 1 .66.23 2 2 0 0 1 .45.28 3 3 0 0 0 -.18.28l-.13.24-.16.27-.23.41a1.57 1.57 0 0 0 -.43-.21 2.73 2.73 0 0 0 -.51-.14 5.07 5.07 0 0 0 -.54-.09h-.51a3.61 3.61 0 0 0 -1.51.31 3.65 3.65 0 0 0 -1.21.82 3.89 3.89 0 0 0 -.8 1.19 3.59 3.59 0 0 0 -.24 1.38 3.44 3.44 0 0 0 .28 1.38 3.9 3.9 0 0 0 .76 1.19 3.62 3.62 0 0 0 2.68 1.14 4.6 4.6 0 0 0 .84-.08 5.59 5.59 0 0 0 .74-.2 3.91 3.91 0 0 0 .55-.22 1.43 1.43 0 0 0 .27-.17z"/><path d="m75.56 99.05a5.05 5.05 0 0 1 .44-2.05 5.37 5.37 0 0 1 1.12-1.68 5.26 5.26 0 0 1 1.66-1.13 5.12 5.12 0 0 1 4.06 0 5.19 5.19 0 0 1 1.67 1.13 5.58 5.58 0 0 1 1.1 1.68 5.05 5.05 0 0 1 .41 2 5.11 5.11 0 0 1 -.41 2 5.61 5.61 0 0 1 -1.13 1.66 5.33 5.33 0 0 1 -1.67 1.12 5.23 5.23 0 0 1 -4.06 0 5.25 5.25 0 0 1 -2.75-2.7 5.11 5.11 0 0 1 -.44-2.03zm1.54 0a3.73 3.73 0 0 0 .29 1.46 3.66 3.66 0 0 0 .8 1.2 4 4 0 0 0 1.18.8 3.61 3.61 0 0 0 2.88 0 4.12 4.12 0 0 0 1.17-.8 4 4 0 0 0 .79-1.2 3.78 3.78 0 0 0 .29-1.47 3.73 3.73 0 0 0 -.29-1.46 3.73 3.73 0 0 0 -2-2 3.46 3.46 0 0 0 -1.43-.3 3.51 3.51 0 0 0 -1.44.3 3.73 3.73 0 0 0 -1.18.8 3.81 3.81 0 0 0 -1.08 2.67z"/><path d="m93.41 104.16v-10.24h1.59v8.77h5.08v1.47z"/><path d="m106.93 104.16v-10.24h1.55v8.77h5.08v1.47z"/><path d="m120.44 104.16v-10.24h6.72v1.4h-5.16v3h4.61v1.43h-4.61v3h5.37v1.43z"/><path d="m142.14 103.42a2.64 2.64 0 0 1 -.47.28 4.41 4.41 0 0 1 -.71.27 7.14 7.14 0 0 1 -.91.22 7.27 7.27 0 0 1 -1.07.08 5.25 5.25 0 0 1 -2.15-.42 4.7 4.7 0 0 1 -1.62-1.12 4.76 4.76 0 0 1 -1-1.64 5.42 5.42 0 0 1 -.36-2 5.33 5.33 0 0 1 .42-2.13 5.15 5.15 0 0 1 2.82-2.78 5.29 5.29 0 0 1 2.06-.4 5.9 5.9 0 0 1 .83.06 6.31 6.31 0 0 1 .8.15 4.21 4.21 0 0 1 .66.23 2.2 2.2 0 0 1 .45.28 3 3 0 0 0 -.18.28c0 .08-.09.16-.14.24l-.15.27-.23.41a1.57 1.57 0 0 0 -.43-.21 2.73 2.73 0 0 0 -.51-.14 4.85 4.85 0 0 0 -.55-.09h-.5a3.82 3.82 0 0 0 -3.52 2.32 3.59 3.59 0 0 0 -.29 1.41 3.44 3.44 0 0 0 .28 1.38 3.72 3.72 0 0 0 .76 1.19 3.41 3.41 0 0 0 1.17.83 3.57 3.57 0 0 0 1.5.31 4.63 4.63 0 0 0 .85-.08 6 6 0 0 0 .74-.2 3.91 3.91 0 0 0 .55-.22 1.23 1.23 0 0 0 .26-.17z"/><path d="m155.19 93.92v1.47h-2.58v8.77h-1.54v-8.77h-2.53v-1.47z"/><path d="m162.27 93.92h1.54v10.24h-1.54z"/><path d="m172.15 93.92c.07.16.18.42.33.79l.51 1.23c.19.46.4 1 .61 1.47l.6 1.47.51 1.23c.15.37.25.63.32.79a1.81 1.81 0 0 1 .07.19q.06.18.09.3l.14-.49c.06-.16.17-.42.32-.79l.51-1.23.6-1.47c.21-.52.41-1 .61-1.47l.51-1.23c.15-.37.26-.63.33-.79h1.52c-.06.14-.16.37-.3.72s-.32.76-.53 1.25l-.69 1.6-.76 1.78-.76 1.78c-.25.59-.48 1.12-.68 1.61s-.37.91-.52 1.25-.25.58-.3.71l-4.56-10.7z"/><path d="m186.54 104.16v-10.24h6.72v1.4h-5.17v3h4.6v1.43h-4.6v3h5.37v1.43z"/><path d="m144.57 0h-33.93a1.13 1.13 0 0 0 -1.13 1.13v33.93a1.13 1.13 0 0 0 1.13 1.13h33.93a1.14 1.14 0 0 0 1.13-1.13v-33.93a1.14 1.14 0 0 0 -1.13-1.13zm-18.57 33.93h-5l2.13-2.56zm-4.5-4.08-3.39 4.08h-6.37v-.57l6.85-6.14zm-4.6-4.15-5.16 4.62v-1.13l3.26-5.27zm12.31-8 4.48 6.69-5.31-1.74a1.14 1.14 0 0 0 -1.22.36l-4.16 5.1-2.66-2.4zm-.8 7.34 7.32 2.4 4.32 6.47h-10.64l-4.76-4.3zm.27-9.9-10.08 9-3.17-2.86a1.12 1.12 0 0 0 -1.72.26l-2 3.24v-22.52h31.66v25.33l-6.22-2-6.75-10.22a1.13 1.13 0 0 0 -1.69-.21zm14.75 14.86v4h-.62l-3.57-5.33z"/></g></svg>
